%FSLAX45Y45*%
G04 Gerber Fmt 4.5, Leading zero omitted, Abs format (unit mm)*
G04 Created by KiCad (PCBNEW (5.1.8)-1) date 2021-04-18 14:38:34*
%MOMM*%
%LPD*%
G01*
G04 APERTURE LIST*
%TA.AperFunction,Profile*%
%ADD10C,0.050000*%
%TD*%
%ADD11C,0.200000*%
%ADD12C,0.300000*%
G04 APERTURE END LIST*
D10*
X5500000Y-14000000D02*
G75*
G02*
X4500000Y-13000000I0J1000000D01*
G01*
X13500000Y-13000000D02*
G75*
G02*
X12500000Y-14000000I-1000000J0D01*
G01*
X12500000Y-5000000D02*
G75*
G02*
X13500000Y-6000000I0J-1000000D01*
G01*
X13500000Y-6000000D02*
X13500000Y-13000000D01*
X5500000Y-14000000D02*
X12500000Y-14000000D01*
X5500000Y-5000000D02*
X12500000Y-5000000D01*
X4500000Y-6000000D02*
G75*
G02*
X5500000Y-5000000I1000000J0D01*
G01*
X4500000Y-6000000D02*
X4500000Y-13000000D01*
D11*
X9555000Y-5272000D02*
X9645000Y-5362000D01*
X9645000Y-5272000D02*
X9555000Y-5362000D01*
X9855000Y-5272000D02*
X9945000Y-5362000D01*
X9945000Y-5272000D02*
X9855000Y-5362000D01*
X8330000Y-5650000D02*
G75*
G03*
X8330000Y-5650000I-50000J0D01*
G01*
X8770000Y-5650000D02*
G75*
G03*
X8770000Y-5650000I-50000J0D01*
G01*
D12*
X4783928Y-14468214D02*
X4783928Y-14168214D01*
X4855357Y-14168214D01*
X4898214Y-14182500D01*
X4926786Y-14211071D01*
X4941071Y-14239643D01*
X4955357Y-14296786D01*
X4955357Y-14339643D01*
X4941071Y-14396786D01*
X4926786Y-14425357D01*
X4898214Y-14453929D01*
X4855357Y-14468214D01*
X4783928Y-14468214D01*
X5083928Y-14468214D02*
X5083928Y-14268214D01*
X5083928Y-14325357D02*
X5098214Y-14296786D01*
X5112500Y-14282500D01*
X5141071Y-14268214D01*
X5169643Y-14268214D01*
X5269643Y-14468214D02*
X5269643Y-14268214D01*
X5269643Y-14168214D02*
X5255357Y-14182500D01*
X5269643Y-14196786D01*
X5283928Y-14182500D01*
X5269643Y-14168214D01*
X5269643Y-14196786D01*
X5455357Y-14468214D02*
X5426786Y-14453929D01*
X5412500Y-14425357D01*
X5412500Y-14168214D01*
X5612500Y-14468214D02*
X5583928Y-14453929D01*
X5569643Y-14425357D01*
X5569643Y-14168214D01*
X5955357Y-14468214D02*
X5955357Y-14168214D01*
X6055357Y-14382500D01*
X6155357Y-14168214D01*
X6155357Y-14468214D01*
X6426786Y-14468214D02*
X6426786Y-14311071D01*
X6412500Y-14282500D01*
X6383928Y-14268214D01*
X6326786Y-14268214D01*
X6298214Y-14282500D01*
X6426786Y-14453929D02*
X6398214Y-14468214D01*
X6326786Y-14468214D01*
X6298214Y-14453929D01*
X6283928Y-14425357D01*
X6283928Y-14396786D01*
X6298214Y-14368214D01*
X6326786Y-14353929D01*
X6398214Y-14353929D01*
X6426786Y-14339643D01*
X6569643Y-14268214D02*
X6569643Y-14568214D01*
X6569643Y-14282500D02*
X6598214Y-14268214D01*
X6655357Y-14268214D01*
X6683928Y-14282500D01*
X6698214Y-14296786D01*
X6712500Y-14325357D01*
X6712500Y-14411071D01*
X6698214Y-14439643D01*
X6683928Y-14453929D01*
X6655357Y-14468214D01*
X6598214Y-14468214D01*
X6569643Y-14453929D01*
X6841071Y-14439643D02*
X6855357Y-14453929D01*
X6841071Y-14468214D01*
X6826786Y-14453929D01*
X6841071Y-14439643D01*
X6841071Y-14468214D01*
X6841071Y-14282500D02*
X6855357Y-14296786D01*
X6841071Y-14311071D01*
X6826786Y-14296786D01*
X6841071Y-14282500D01*
X6841071Y-14311071D01*
X4407500Y-14917500D02*
X4497500Y-15007500D01*
X4497500Y-14917500D02*
X4407500Y-15007500D01*
X4841071Y-14798214D02*
X4869643Y-14798214D01*
X4898214Y-14812500D01*
X4912500Y-14826786D01*
X4926786Y-14855357D01*
X4941071Y-14912500D01*
X4941071Y-14983929D01*
X4926786Y-15041071D01*
X4912500Y-15069643D01*
X4898214Y-15083929D01*
X4869643Y-15098214D01*
X4841071Y-15098214D01*
X4812500Y-15083929D01*
X4798214Y-15069643D01*
X4783928Y-15041071D01*
X4769643Y-14983929D01*
X4769643Y-14912500D01*
X4783928Y-14855357D01*
X4798214Y-14826786D01*
X4812500Y-14812500D01*
X4841071Y-14798214D01*
X5069643Y-15069643D02*
X5083928Y-15083929D01*
X5069643Y-15098214D01*
X5055357Y-15083929D01*
X5069643Y-15069643D01*
X5069643Y-15098214D01*
X5226786Y-15098214D02*
X5283928Y-15098214D01*
X5312500Y-15083929D01*
X5326786Y-15069643D01*
X5355357Y-15026786D01*
X5369643Y-14969643D01*
X5369643Y-14855357D01*
X5355357Y-14826786D01*
X5341071Y-14812500D01*
X5312500Y-14798214D01*
X5255357Y-14798214D01*
X5226786Y-14812500D01*
X5212500Y-14826786D01*
X5198214Y-14855357D01*
X5198214Y-14926786D01*
X5212500Y-14955357D01*
X5226786Y-14969643D01*
X5255357Y-14983929D01*
X5312500Y-14983929D01*
X5341071Y-14969643D01*
X5355357Y-14955357D01*
X5369643Y-14926786D01*
X5555357Y-14798214D02*
X5583928Y-14798214D01*
X5612500Y-14812500D01*
X5626786Y-14826786D01*
X5641071Y-14855357D01*
X5655357Y-14912500D01*
X5655357Y-14983929D01*
X5641071Y-15041071D01*
X5626786Y-15069643D01*
X5612500Y-15083929D01*
X5583928Y-15098214D01*
X5555357Y-15098214D01*
X5526786Y-15083929D01*
X5512500Y-15069643D01*
X5498214Y-15041071D01*
X5483928Y-14983929D01*
X5483928Y-14912500D01*
X5498214Y-14855357D01*
X5512500Y-14826786D01*
X5526786Y-14812500D01*
X5555357Y-14798214D01*
X5783928Y-15098214D02*
X5783928Y-14898214D01*
X5783928Y-14926786D02*
X5798214Y-14912500D01*
X5826786Y-14898214D01*
X5869643Y-14898214D01*
X5898214Y-14912500D01*
X5912500Y-14941071D01*
X5912500Y-15098214D01*
X5912500Y-14941071D02*
X5926786Y-14912500D01*
X5955357Y-14898214D01*
X5998214Y-14898214D01*
X6026786Y-14912500D01*
X6041071Y-14941071D01*
X6041071Y-15098214D01*
X6183928Y-15098214D02*
X6183928Y-14898214D01*
X6183928Y-14926786D02*
X6198214Y-14912500D01*
X6226786Y-14898214D01*
X6269643Y-14898214D01*
X6298214Y-14912500D01*
X6312500Y-14941071D01*
X6312500Y-15098214D01*
X6312500Y-14941071D02*
X6326786Y-14912500D01*
X6355357Y-14898214D01*
X6398214Y-14898214D01*
X6426786Y-14912500D01*
X6441071Y-14941071D01*
X6441071Y-15098214D01*
X7026786Y-14783929D02*
X6769643Y-15169643D01*
X7412500Y-14798214D02*
X7441071Y-14798214D01*
X7469643Y-14812500D01*
X7483928Y-14826786D01*
X7498214Y-14855357D01*
X7512500Y-14912500D01*
X7512500Y-14983929D01*
X7498214Y-15041071D01*
X7483928Y-15069643D01*
X7469643Y-15083929D01*
X7441071Y-15098214D01*
X7412500Y-15098214D01*
X7383928Y-15083929D01*
X7369643Y-15069643D01*
X7355357Y-15041071D01*
X7341071Y-14983929D01*
X7341071Y-14912500D01*
X7355357Y-14855357D01*
X7369643Y-14826786D01*
X7383928Y-14812500D01*
X7412500Y-14798214D01*
X7641071Y-15069643D02*
X7655357Y-15083929D01*
X7641071Y-15098214D01*
X7626786Y-15083929D01*
X7641071Y-15069643D01*
X7641071Y-15098214D01*
X7841071Y-14798214D02*
X7869643Y-14798214D01*
X7898214Y-14812500D01*
X7912500Y-14826786D01*
X7926786Y-14855357D01*
X7941071Y-14912500D01*
X7941071Y-14983929D01*
X7926786Y-15041071D01*
X7912500Y-15069643D01*
X7898214Y-15083929D01*
X7869643Y-15098214D01*
X7841071Y-15098214D01*
X7812500Y-15083929D01*
X7798214Y-15069643D01*
X7783928Y-15041071D01*
X7769643Y-14983929D01*
X7769643Y-14912500D01*
X7783928Y-14855357D01*
X7798214Y-14826786D01*
X7812500Y-14812500D01*
X7841071Y-14798214D01*
X8041071Y-14798214D02*
X8226786Y-14798214D01*
X8126786Y-14912500D01*
X8169643Y-14912500D01*
X8198214Y-14926786D01*
X8212500Y-14941071D01*
X8226786Y-14969643D01*
X8226786Y-15041071D01*
X8212500Y-15069643D01*
X8198214Y-15083929D01*
X8169643Y-15098214D01*
X8083928Y-15098214D01*
X8055357Y-15083929D01*
X8041071Y-15069643D01*
X8498214Y-14798214D02*
X8355357Y-14798214D01*
X8341071Y-14941071D01*
X8355357Y-14926786D01*
X8383928Y-14912500D01*
X8455357Y-14912500D01*
X8483928Y-14926786D01*
X8498214Y-14941071D01*
X8512500Y-14969643D01*
X8512500Y-15041071D01*
X8498214Y-15069643D01*
X8483928Y-15083929D01*
X8455357Y-15098214D01*
X8383928Y-15098214D01*
X8355357Y-15083929D01*
X8341071Y-15069643D01*
X8626786Y-14798214D02*
X8626786Y-14855357D01*
X8741071Y-14798214D02*
X8741071Y-14855357D01*
X9183928Y-15212500D02*
X9169643Y-15198214D01*
X9141071Y-15155357D01*
X9126786Y-15126786D01*
X9112500Y-15083929D01*
X9098214Y-15012500D01*
X9098214Y-14955357D01*
X9112500Y-14883929D01*
X9126786Y-14841071D01*
X9141071Y-14812500D01*
X9169643Y-14769643D01*
X9183928Y-14755357D01*
X9283928Y-14826786D02*
X9298214Y-14812500D01*
X9326786Y-14798214D01*
X9398214Y-14798214D01*
X9426786Y-14812500D01*
X9441071Y-14826786D01*
X9455357Y-14855357D01*
X9455357Y-14883929D01*
X9441071Y-14926786D01*
X9269643Y-15098214D01*
X9455357Y-15098214D01*
X9812500Y-15098214D02*
X9812500Y-14798214D01*
X9941071Y-15098214D02*
X9941071Y-14941071D01*
X9926786Y-14912500D01*
X9898214Y-14898214D01*
X9855357Y-14898214D01*
X9826786Y-14912500D01*
X9812500Y-14926786D01*
X10126786Y-15098214D02*
X10098214Y-15083929D01*
X10083928Y-15069643D01*
X10069643Y-15041071D01*
X10069643Y-14955357D01*
X10083928Y-14926786D01*
X10098214Y-14912500D01*
X10126786Y-14898214D01*
X10169643Y-14898214D01*
X10198214Y-14912500D01*
X10212500Y-14926786D01*
X10226786Y-14955357D01*
X10226786Y-15041071D01*
X10212500Y-15069643D01*
X10198214Y-15083929D01*
X10169643Y-15098214D01*
X10126786Y-15098214D01*
X10398214Y-15098214D02*
X10369643Y-15083929D01*
X10355357Y-15055357D01*
X10355357Y-14798214D01*
X10626786Y-15083929D02*
X10598214Y-15098214D01*
X10541071Y-15098214D01*
X10512500Y-15083929D01*
X10498214Y-15055357D01*
X10498214Y-14941071D01*
X10512500Y-14912500D01*
X10541071Y-14898214D01*
X10598214Y-14898214D01*
X10626786Y-14912500D01*
X10641071Y-14941071D01*
X10641071Y-14969643D01*
X10498214Y-14998214D01*
X10755357Y-15083929D02*
X10783928Y-15098214D01*
X10841071Y-15098214D01*
X10869643Y-15083929D01*
X10883928Y-15055357D01*
X10883928Y-15041071D01*
X10869643Y-15012500D01*
X10841071Y-14998214D01*
X10798214Y-14998214D01*
X10769643Y-14983929D01*
X10755357Y-14955357D01*
X10755357Y-14941071D01*
X10769643Y-14912500D01*
X10798214Y-14898214D01*
X10841071Y-14898214D01*
X10869643Y-14912500D01*
X10983928Y-15212500D02*
X10998214Y-15198214D01*
X11026786Y-15155357D01*
X11041071Y-15126786D01*
X11055357Y-15083929D01*
X11069643Y-15012500D01*
X11069643Y-14955357D01*
X11055357Y-14883929D01*
X11041071Y-14841071D01*
X11026786Y-14812500D01*
X10998214Y-14769643D01*
X10983928Y-14755357D01*
X11526786Y-15212500D02*
X11512500Y-15198214D01*
X11483928Y-15155357D01*
X11469643Y-15126786D01*
X11455357Y-15083929D01*
X11441071Y-15012500D01*
X11441071Y-14955357D01*
X11455357Y-14883929D01*
X11469643Y-14841071D01*
X11483928Y-14812500D01*
X11512500Y-14769643D01*
X11526786Y-14755357D01*
X11641071Y-14898214D02*
X11641071Y-15098214D01*
X11641071Y-14926786D02*
X11655357Y-14912500D01*
X11683928Y-14898214D01*
X11726786Y-14898214D01*
X11755357Y-14912500D01*
X11769643Y-14941071D01*
X11769643Y-15098214D01*
X11955357Y-15098214D02*
X11926786Y-15083929D01*
X11912500Y-15069643D01*
X11898214Y-15041071D01*
X11898214Y-14955357D01*
X11912500Y-14926786D01*
X11926786Y-14912500D01*
X11955357Y-14898214D01*
X11998214Y-14898214D01*
X12026786Y-14912500D01*
X12041071Y-14926786D01*
X12055357Y-14955357D01*
X12055357Y-15041071D01*
X12041071Y-15069643D01*
X12026786Y-15083929D01*
X11998214Y-15098214D01*
X11955357Y-15098214D01*
X12141071Y-14898214D02*
X12255357Y-14898214D01*
X12183928Y-14798214D02*
X12183928Y-15055357D01*
X12198214Y-15083929D01*
X12226786Y-15098214D01*
X12255357Y-15098214D01*
X12583928Y-14898214D02*
X12583928Y-15198214D01*
X12583928Y-14912500D02*
X12612500Y-14898214D01*
X12669643Y-14898214D01*
X12698214Y-14912500D01*
X12712500Y-14926786D01*
X12726786Y-14955357D01*
X12726786Y-15041071D01*
X12712500Y-15069643D01*
X12698214Y-15083929D01*
X12669643Y-15098214D01*
X12612500Y-15098214D01*
X12583928Y-15083929D01*
X12898214Y-15098214D02*
X12869643Y-15083929D01*
X12855357Y-15055357D01*
X12855357Y-14798214D01*
X13141071Y-15098214D02*
X13141071Y-14941071D01*
X13126786Y-14912500D01*
X13098214Y-14898214D01*
X13041071Y-14898214D01*
X13012500Y-14912500D01*
X13141071Y-15083929D02*
X13112500Y-15098214D01*
X13041071Y-15098214D01*
X13012500Y-15083929D01*
X12998214Y-15055357D01*
X12998214Y-15026786D01*
X13012500Y-14998214D01*
X13041071Y-14983929D01*
X13112500Y-14983929D01*
X13141071Y-14969643D01*
X13241071Y-14898214D02*
X13355357Y-14898214D01*
X13283928Y-14798214D02*
X13283928Y-15055357D01*
X13298214Y-15083929D01*
X13326786Y-15098214D01*
X13355357Y-15098214D01*
X13569643Y-15083929D02*
X13541071Y-15098214D01*
X13483928Y-15098214D01*
X13455357Y-15083929D01*
X13441071Y-15055357D01*
X13441071Y-14941071D01*
X13455357Y-14912500D01*
X13483928Y-14898214D01*
X13541071Y-14898214D01*
X13569643Y-14912500D01*
X13583928Y-14941071D01*
X13583928Y-14969643D01*
X13441071Y-14998214D01*
X13841071Y-15098214D02*
X13841071Y-14798214D01*
X13841071Y-15083929D02*
X13812500Y-15098214D01*
X13755357Y-15098214D01*
X13726786Y-15083929D01*
X13712500Y-15069643D01*
X13698214Y-15041071D01*
X13698214Y-14955357D01*
X13712500Y-14926786D01*
X13726786Y-14912500D01*
X13755357Y-14898214D01*
X13812500Y-14898214D01*
X13841071Y-14912500D01*
X13955357Y-15212500D02*
X13969643Y-15198214D01*
X13998214Y-15155357D01*
X14012500Y-15126786D01*
X14026786Y-15083929D01*
X14041071Y-15012500D01*
X14041071Y-14955357D01*
X14026786Y-14883929D01*
X14012500Y-14841071D01*
X13998214Y-14812500D01*
X13969643Y-14769643D01*
X13955357Y-14755357D01*
X4497500Y-15358500D02*
G75*
G03*
X4497500Y-15358500I-50000J0D01*
G01*
X4941071Y-15494214D02*
X4769643Y-15494214D01*
X4855357Y-15494214D02*
X4855357Y-15194214D01*
X4826786Y-15237071D01*
X4798214Y-15265643D01*
X4769643Y-15279929D01*
X5069643Y-15465643D02*
X5083928Y-15479929D01*
X5069643Y-15494214D01*
X5055357Y-15479929D01*
X5069643Y-15465643D01*
X5069643Y-15494214D01*
X5269643Y-15194214D02*
X5298214Y-15194214D01*
X5326786Y-15208500D01*
X5341071Y-15222786D01*
X5355357Y-15251357D01*
X5369643Y-15308500D01*
X5369643Y-15379929D01*
X5355357Y-15437071D01*
X5341071Y-15465643D01*
X5326786Y-15479929D01*
X5298214Y-15494214D01*
X5269643Y-15494214D01*
X5241071Y-15479929D01*
X5226786Y-15465643D01*
X5212500Y-15437071D01*
X5198214Y-15379929D01*
X5198214Y-15308500D01*
X5212500Y-15251357D01*
X5226786Y-15222786D01*
X5241071Y-15208500D01*
X5269643Y-15194214D01*
X5555357Y-15194214D02*
X5583928Y-15194214D01*
X5612500Y-15208500D01*
X5626786Y-15222786D01*
X5641071Y-15251357D01*
X5655357Y-15308500D01*
X5655357Y-15379929D01*
X5641071Y-15437071D01*
X5626786Y-15465643D01*
X5612500Y-15479929D01*
X5583928Y-15494214D01*
X5555357Y-15494214D01*
X5526786Y-15479929D01*
X5512500Y-15465643D01*
X5498214Y-15437071D01*
X5483928Y-15379929D01*
X5483928Y-15308500D01*
X5498214Y-15251357D01*
X5512500Y-15222786D01*
X5526786Y-15208500D01*
X5555357Y-15194214D01*
X5783928Y-15494214D02*
X5783928Y-15294214D01*
X5783928Y-15322786D02*
X5798214Y-15308500D01*
X5826786Y-15294214D01*
X5869643Y-15294214D01*
X5898214Y-15308500D01*
X5912500Y-15337071D01*
X5912500Y-15494214D01*
X5912500Y-15337071D02*
X5926786Y-15308500D01*
X5955357Y-15294214D01*
X5998214Y-15294214D01*
X6026786Y-15308500D01*
X6041071Y-15337071D01*
X6041071Y-15494214D01*
X6183928Y-15494214D02*
X6183928Y-15294214D01*
X6183928Y-15322786D02*
X6198214Y-15308500D01*
X6226786Y-15294214D01*
X6269643Y-15294214D01*
X6298214Y-15308500D01*
X6312500Y-15337071D01*
X6312500Y-15494214D01*
X6312500Y-15337071D02*
X6326786Y-15308500D01*
X6355357Y-15294214D01*
X6398214Y-15294214D01*
X6426786Y-15308500D01*
X6441071Y-15337071D01*
X6441071Y-15494214D01*
X7026786Y-15179929D02*
X6769643Y-15565643D01*
X7412500Y-15194214D02*
X7441071Y-15194214D01*
X7469643Y-15208500D01*
X7483928Y-15222786D01*
X7498214Y-15251357D01*
X7512500Y-15308500D01*
X7512500Y-15379929D01*
X7498214Y-15437071D01*
X7483928Y-15465643D01*
X7469643Y-15479929D01*
X7441071Y-15494214D01*
X7412500Y-15494214D01*
X7383928Y-15479929D01*
X7369643Y-15465643D01*
X7355357Y-15437071D01*
X7341071Y-15379929D01*
X7341071Y-15308500D01*
X7355357Y-15251357D01*
X7369643Y-15222786D01*
X7383928Y-15208500D01*
X7412500Y-15194214D01*
X7641071Y-15465643D02*
X7655357Y-15479929D01*
X7641071Y-15494214D01*
X7626786Y-15479929D01*
X7641071Y-15465643D01*
X7641071Y-15494214D01*
X7841071Y-15194214D02*
X7869643Y-15194214D01*
X7898214Y-15208500D01*
X7912500Y-15222786D01*
X7926786Y-15251357D01*
X7941071Y-15308500D01*
X7941071Y-15379929D01*
X7926786Y-15437071D01*
X7912500Y-15465643D01*
X7898214Y-15479929D01*
X7869643Y-15494214D01*
X7841071Y-15494214D01*
X7812500Y-15479929D01*
X7798214Y-15465643D01*
X7783928Y-15437071D01*
X7769643Y-15379929D01*
X7769643Y-15308500D01*
X7783928Y-15251357D01*
X7798214Y-15222786D01*
X7812500Y-15208500D01*
X7841071Y-15194214D01*
X8041071Y-15194214D02*
X8226786Y-15194214D01*
X8126786Y-15308500D01*
X8169643Y-15308500D01*
X8198214Y-15322786D01*
X8212500Y-15337071D01*
X8226786Y-15365643D01*
X8226786Y-15437071D01*
X8212500Y-15465643D01*
X8198214Y-15479929D01*
X8169643Y-15494214D01*
X8083928Y-15494214D01*
X8055357Y-15479929D01*
X8041071Y-15465643D01*
X8369643Y-15494214D02*
X8426786Y-15494214D01*
X8455357Y-15479929D01*
X8469643Y-15465643D01*
X8498214Y-15422786D01*
X8512500Y-15365643D01*
X8512500Y-15251357D01*
X8498214Y-15222786D01*
X8483928Y-15208500D01*
X8455357Y-15194214D01*
X8398214Y-15194214D01*
X8369643Y-15208500D01*
X8355357Y-15222786D01*
X8341071Y-15251357D01*
X8341071Y-15322786D01*
X8355357Y-15351357D01*
X8369643Y-15365643D01*
X8398214Y-15379929D01*
X8455357Y-15379929D01*
X8483928Y-15365643D01*
X8498214Y-15351357D01*
X8512500Y-15322786D01*
X8626786Y-15194214D02*
X8626786Y-15251357D01*
X8741071Y-15194214D02*
X8741071Y-15251357D01*
X9183928Y-15608500D02*
X9169643Y-15594214D01*
X9141071Y-15551357D01*
X9126786Y-15522786D01*
X9112500Y-15479929D01*
X9098214Y-15408500D01*
X9098214Y-15351357D01*
X9112500Y-15279929D01*
X9126786Y-15237071D01*
X9141071Y-15208500D01*
X9169643Y-15165643D01*
X9183928Y-15151357D01*
X9283928Y-15222786D02*
X9298214Y-15208500D01*
X9326786Y-15194214D01*
X9398214Y-15194214D01*
X9426786Y-15208500D01*
X9441071Y-15222786D01*
X9455357Y-15251357D01*
X9455357Y-15279929D01*
X9441071Y-15322786D01*
X9269643Y-15494214D01*
X9455357Y-15494214D01*
X9812500Y-15494214D02*
X9812500Y-15194214D01*
X9941071Y-15494214D02*
X9941071Y-15337071D01*
X9926786Y-15308500D01*
X9898214Y-15294214D01*
X9855357Y-15294214D01*
X9826786Y-15308500D01*
X9812500Y-15322786D01*
X10126786Y-15494214D02*
X10098214Y-15479929D01*
X10083928Y-15465643D01*
X10069643Y-15437071D01*
X10069643Y-15351357D01*
X10083928Y-15322786D01*
X10098214Y-15308500D01*
X10126786Y-15294214D01*
X10169643Y-15294214D01*
X10198214Y-15308500D01*
X10212500Y-15322786D01*
X10226786Y-15351357D01*
X10226786Y-15437071D01*
X10212500Y-15465643D01*
X10198214Y-15479929D01*
X10169643Y-15494214D01*
X10126786Y-15494214D01*
X10398214Y-15494214D02*
X10369643Y-15479929D01*
X10355357Y-15451357D01*
X10355357Y-15194214D01*
X10626786Y-15479929D02*
X10598214Y-15494214D01*
X10541071Y-15494214D01*
X10512500Y-15479929D01*
X10498214Y-15451357D01*
X10498214Y-15337071D01*
X10512500Y-15308500D01*
X10541071Y-15294214D01*
X10598214Y-15294214D01*
X10626786Y-15308500D01*
X10641071Y-15337071D01*
X10641071Y-15365643D01*
X10498214Y-15394214D01*
X10755357Y-15479929D02*
X10783928Y-15494214D01*
X10841071Y-15494214D01*
X10869643Y-15479929D01*
X10883928Y-15451357D01*
X10883928Y-15437071D01*
X10869643Y-15408500D01*
X10841071Y-15394214D01*
X10798214Y-15394214D01*
X10769643Y-15379929D01*
X10755357Y-15351357D01*
X10755357Y-15337071D01*
X10769643Y-15308500D01*
X10798214Y-15294214D01*
X10841071Y-15294214D01*
X10869643Y-15308500D01*
X10983928Y-15608500D02*
X10998214Y-15594214D01*
X11026786Y-15551357D01*
X11041071Y-15522786D01*
X11055357Y-15479929D01*
X11069643Y-15408500D01*
X11069643Y-15351357D01*
X11055357Y-15279929D01*
X11041071Y-15237071D01*
X11026786Y-15208500D01*
X10998214Y-15165643D01*
X10983928Y-15151357D01*
X11526786Y-15608500D02*
X11512500Y-15594214D01*
X11483928Y-15551357D01*
X11469643Y-15522786D01*
X11455357Y-15479929D01*
X11441071Y-15408500D01*
X11441071Y-15351357D01*
X11455357Y-15279929D01*
X11469643Y-15237071D01*
X11483928Y-15208500D01*
X11512500Y-15165643D01*
X11526786Y-15151357D01*
X11641071Y-15294214D02*
X11641071Y-15494214D01*
X11641071Y-15322786D02*
X11655357Y-15308500D01*
X11683928Y-15294214D01*
X11726786Y-15294214D01*
X11755357Y-15308500D01*
X11769643Y-15337071D01*
X11769643Y-15494214D01*
X11955357Y-15494214D02*
X11926786Y-15479929D01*
X11912500Y-15465643D01*
X11898214Y-15437071D01*
X11898214Y-15351357D01*
X11912500Y-15322786D01*
X11926786Y-15308500D01*
X11955357Y-15294214D01*
X11998214Y-15294214D01*
X12026786Y-15308500D01*
X12041071Y-15322786D01*
X12055357Y-15351357D01*
X12055357Y-15437071D01*
X12041071Y-15465643D01*
X12026786Y-15479929D01*
X11998214Y-15494214D01*
X11955357Y-15494214D01*
X12141071Y-15294214D02*
X12255357Y-15294214D01*
X12183928Y-15194214D02*
X12183928Y-15451357D01*
X12198214Y-15479929D01*
X12226786Y-15494214D01*
X12255357Y-15494214D01*
X12583928Y-15294214D02*
X12583928Y-15594214D01*
X12583928Y-15308500D02*
X12612500Y-15294214D01*
X12669643Y-15294214D01*
X12698214Y-15308500D01*
X12712500Y-15322786D01*
X12726786Y-15351357D01*
X12726786Y-15437071D01*
X12712500Y-15465643D01*
X12698214Y-15479929D01*
X12669643Y-15494214D01*
X12612500Y-15494214D01*
X12583928Y-15479929D01*
X12898214Y-15494214D02*
X12869643Y-15479929D01*
X12855357Y-15451357D01*
X12855357Y-15194214D01*
X13141071Y-15494214D02*
X13141071Y-15337071D01*
X13126786Y-15308500D01*
X13098214Y-15294214D01*
X13041071Y-15294214D01*
X13012500Y-15308500D01*
X13141071Y-15479929D02*
X13112500Y-15494214D01*
X13041071Y-15494214D01*
X13012500Y-15479929D01*
X12998214Y-15451357D01*
X12998214Y-15422786D01*
X13012500Y-15394214D01*
X13041071Y-15379929D01*
X13112500Y-15379929D01*
X13141071Y-15365643D01*
X13241071Y-15294214D02*
X13355357Y-15294214D01*
X13283928Y-15194214D02*
X13283928Y-15451357D01*
X13298214Y-15479929D01*
X13326786Y-15494214D01*
X13355357Y-15494214D01*
X13569643Y-15479929D02*
X13541071Y-15494214D01*
X13483928Y-15494214D01*
X13455357Y-15479929D01*
X13441071Y-15451357D01*
X13441071Y-15337071D01*
X13455357Y-15308500D01*
X13483928Y-15294214D01*
X13541071Y-15294214D01*
X13569643Y-15308500D01*
X13583928Y-15337071D01*
X13583928Y-15365643D01*
X13441071Y-15394214D01*
X13841071Y-15494214D02*
X13841071Y-15194214D01*
X13841071Y-15479929D02*
X13812500Y-15494214D01*
X13755357Y-15494214D01*
X13726786Y-15479929D01*
X13712500Y-15465643D01*
X13698214Y-15437071D01*
X13698214Y-15351357D01*
X13712500Y-15322786D01*
X13726786Y-15308500D01*
X13755357Y-15294214D01*
X13812500Y-15294214D01*
X13841071Y-15308500D01*
X13955357Y-15608500D02*
X13969643Y-15594214D01*
X13998214Y-15551357D01*
X14012500Y-15522786D01*
X14026786Y-15479929D01*
X14041071Y-15408500D01*
X14041071Y-15351357D01*
X14026786Y-15279929D01*
X14012500Y-15237071D01*
X13998214Y-15208500D01*
X13969643Y-15165643D01*
X13955357Y-15151357D01*
M02*
