G04 #@! TF.GenerationSoftware,KiCad,Pcbnew,(5.1.8)-1*
G04 #@! TF.CreationDate,2021-04-18T14:37:25+02:00*
G04 #@! TF.ProjectId,Coaster_LiPo,436f6173-7465-4725-9f4c-69506f2e6b69,D*
G04 #@! TF.SameCoordinates,Original*
G04 #@! TF.FileFunction,Copper,L2,Bot*
G04 #@! TF.FilePolarity,Positive*
%FSLAX46Y46*%
G04 Gerber Fmt 4.6, Leading zero omitted, Abs format (unit mm)*
G04 Created by KiCad (PCBNEW (5.1.8)-1) date 2021-04-18 14:37:25*
%MOMM*%
%LPD*%
G01*
G04 APERTURE LIST*
G04 #@! TA.AperFunction,ViaPad*
%ADD10C,0.800000*%
G04 #@! TD*
G04 #@! TA.AperFunction,Conductor*
%ADD11C,0.254000*%
G04 #@! TD*
G04 #@! TA.AperFunction,Conductor*
%ADD12C,0.150000*%
G04 #@! TD*
G04 APERTURE END LIST*
D10*
X73250000Y-111500000D03*
X101500000Y-103500000D03*
X100500000Y-110000000D03*
X93500000Y-116000000D03*
X96500000Y-118000000D03*
X84750000Y-104250000D03*
X50250000Y-116750000D03*
X76750000Y-133500000D03*
X111750000Y-133500000D03*
X128750000Y-108250000D03*
X128500000Y-73250000D03*
X51250000Y-81750000D03*
X103250000Y-56250000D03*
X68250000Y-56250000D03*
X82250000Y-59250000D03*
X89000000Y-98000000D03*
X91000000Y-98000000D03*
X91000000Y-92000000D03*
X88250000Y-96500000D03*
X91750000Y-96500000D03*
X88250000Y-93500000D03*
X91750000Y-93500000D03*
X89000000Y-92000000D03*
X106000000Y-92250000D03*
X108500000Y-90000000D03*
X89500000Y-61000000D03*
X91500000Y-53750000D03*
X78500000Y-59250000D03*
X78500000Y-53500000D03*
D11*
X126170449Y-50734944D02*
X127322444Y-50954698D01*
X128437801Y-51317100D01*
X129498955Y-51816441D01*
X130489146Y-52444836D01*
X131392776Y-53192383D01*
X132195588Y-54047292D01*
X132884922Y-54996079D01*
X133449903Y-56023774D01*
X133881627Y-57114186D01*
X134173281Y-58250103D01*
X134321571Y-59423941D01*
X134340000Y-60010358D01*
X134340001Y-129979237D01*
X134265056Y-131170448D01*
X134045302Y-132322444D01*
X133682900Y-133437801D01*
X133183560Y-134498952D01*
X132555165Y-135489144D01*
X131807612Y-136392780D01*
X130952708Y-137195588D01*
X130003922Y-137884922D01*
X128976227Y-138449903D01*
X127885813Y-138881627D01*
X126749897Y-139173281D01*
X125576058Y-139321571D01*
X124989642Y-139340000D01*
X55020747Y-139340000D01*
X53829552Y-139265056D01*
X52677556Y-139045302D01*
X51562199Y-138682900D01*
X50501048Y-138183560D01*
X49510856Y-137555165D01*
X48607220Y-136807612D01*
X47804412Y-135952708D01*
X47115078Y-135003922D01*
X46550097Y-133976227D01*
X46118373Y-132885813D01*
X45826719Y-131749897D01*
X45678429Y-130576058D01*
X45660000Y-129989642D01*
X45660000Y-60020747D01*
X45734944Y-58829551D01*
X45954698Y-57677556D01*
X46317100Y-56562199D01*
X46398972Y-56388212D01*
X81665000Y-56388212D01*
X81665000Y-56611788D01*
X81708617Y-56831067D01*
X81794176Y-57037624D01*
X81918388Y-57223520D01*
X82076480Y-57381612D01*
X82262376Y-57505824D01*
X82468933Y-57591383D01*
X82688212Y-57635000D01*
X82911788Y-57635000D01*
X83131067Y-57591383D01*
X83337624Y-57505824D01*
X83523520Y-57381612D01*
X83681612Y-57223520D01*
X83805824Y-57037624D01*
X83891383Y-56831067D01*
X83935000Y-56611788D01*
X83935000Y-56388212D01*
X86065000Y-56388212D01*
X86065000Y-56611788D01*
X86108617Y-56831067D01*
X86194176Y-57037624D01*
X86318388Y-57223520D01*
X86476480Y-57381612D01*
X86662376Y-57505824D01*
X86868933Y-57591383D01*
X87088212Y-57635000D01*
X87311788Y-57635000D01*
X87531067Y-57591383D01*
X87737624Y-57505824D01*
X87923520Y-57381612D01*
X88081612Y-57223520D01*
X88205824Y-57037624D01*
X88291383Y-56831067D01*
X88335000Y-56611788D01*
X88335000Y-56388212D01*
X88291383Y-56168933D01*
X88205824Y-55962376D01*
X88081612Y-55776480D01*
X87923520Y-55618388D01*
X87737624Y-55494176D01*
X87531067Y-55408617D01*
X87311788Y-55365000D01*
X87088212Y-55365000D01*
X86868933Y-55408617D01*
X86662376Y-55494176D01*
X86476480Y-55618388D01*
X86318388Y-55776480D01*
X86194176Y-55962376D01*
X86108617Y-56168933D01*
X86065000Y-56388212D01*
X83935000Y-56388212D01*
X83891383Y-56168933D01*
X83805824Y-55962376D01*
X83681612Y-55776480D01*
X83523520Y-55618388D01*
X83337624Y-55494176D01*
X83131067Y-55408617D01*
X82911788Y-55365000D01*
X82688212Y-55365000D01*
X82468933Y-55408617D01*
X82262376Y-55494176D01*
X82076480Y-55618388D01*
X81918388Y-55776480D01*
X81794176Y-55962376D01*
X81708617Y-56168933D01*
X81665000Y-56388212D01*
X46398972Y-56388212D01*
X46816441Y-55501045D01*
X47444836Y-54510854D01*
X48192383Y-53607224D01*
X48771777Y-53063137D01*
X94915000Y-53063137D01*
X94915000Y-53276863D01*
X94956696Y-53486483D01*
X95038485Y-53683940D01*
X95157225Y-53861647D01*
X95308353Y-54012775D01*
X95486060Y-54131515D01*
X95683517Y-54213304D01*
X95893137Y-54255000D01*
X96106863Y-54255000D01*
X96316483Y-54213304D01*
X96513940Y-54131515D01*
X96691647Y-54012775D01*
X96842775Y-53861647D01*
X96961515Y-53683940D01*
X97043304Y-53486483D01*
X97085000Y-53276863D01*
X97085000Y-53063137D01*
X97915000Y-53063137D01*
X97915000Y-53276863D01*
X97956696Y-53486483D01*
X98038485Y-53683940D01*
X98157225Y-53861647D01*
X98308353Y-54012775D01*
X98486060Y-54131515D01*
X98683517Y-54213304D01*
X98893137Y-54255000D01*
X99106863Y-54255000D01*
X99316483Y-54213304D01*
X99513940Y-54131515D01*
X99691647Y-54012775D01*
X99842775Y-53861647D01*
X99961515Y-53683940D01*
X100043304Y-53486483D01*
X100085000Y-53276863D01*
X100085000Y-53063137D01*
X100043304Y-52853517D01*
X99961515Y-52656060D01*
X99842775Y-52478353D01*
X99691647Y-52327225D01*
X99513940Y-52208485D01*
X99316483Y-52126696D01*
X99106863Y-52085000D01*
X98893137Y-52085000D01*
X98683517Y-52126696D01*
X98486060Y-52208485D01*
X98308353Y-52327225D01*
X98157225Y-52478353D01*
X98038485Y-52656060D01*
X97956696Y-52853517D01*
X97915000Y-53063137D01*
X97085000Y-53063137D01*
X97043304Y-52853517D01*
X96961515Y-52656060D01*
X96842775Y-52478353D01*
X96691647Y-52327225D01*
X96513940Y-52208485D01*
X96316483Y-52126696D01*
X96106863Y-52085000D01*
X95893137Y-52085000D01*
X95683517Y-52126696D01*
X95486060Y-52208485D01*
X95308353Y-52327225D01*
X95157225Y-52478353D01*
X95038485Y-52656060D01*
X94956696Y-52853517D01*
X94915000Y-53063137D01*
X48771777Y-53063137D01*
X49047292Y-52804412D01*
X49996079Y-52115078D01*
X51023774Y-51550097D01*
X52114186Y-51118373D01*
X53250103Y-50826719D01*
X54423941Y-50678429D01*
X55010358Y-50660000D01*
X124979253Y-50660000D01*
X126170449Y-50734944D01*
G04 #@! TA.AperFunction,Conductor*
D12*
G36*
X126170449Y-50734944D02*
G01*
X127322444Y-50954698D01*
X128437801Y-51317100D01*
X129498955Y-51816441D01*
X130489146Y-52444836D01*
X131392776Y-53192383D01*
X132195588Y-54047292D01*
X132884922Y-54996079D01*
X133449903Y-56023774D01*
X133881627Y-57114186D01*
X134173281Y-58250103D01*
X134321571Y-59423941D01*
X134340000Y-60010358D01*
X134340001Y-129979237D01*
X134265056Y-131170448D01*
X134045302Y-132322444D01*
X133682900Y-133437801D01*
X133183560Y-134498952D01*
X132555165Y-135489144D01*
X131807612Y-136392780D01*
X130952708Y-137195588D01*
X130003922Y-137884922D01*
X128976227Y-138449903D01*
X127885813Y-138881627D01*
X126749897Y-139173281D01*
X125576058Y-139321571D01*
X124989642Y-139340000D01*
X55020747Y-139340000D01*
X53829552Y-139265056D01*
X52677556Y-139045302D01*
X51562199Y-138682900D01*
X50501048Y-138183560D01*
X49510856Y-137555165D01*
X48607220Y-136807612D01*
X47804412Y-135952708D01*
X47115078Y-135003922D01*
X46550097Y-133976227D01*
X46118373Y-132885813D01*
X45826719Y-131749897D01*
X45678429Y-130576058D01*
X45660000Y-129989642D01*
X45660000Y-60020747D01*
X45734944Y-58829551D01*
X45954698Y-57677556D01*
X46317100Y-56562199D01*
X46398972Y-56388212D01*
X81665000Y-56388212D01*
X81665000Y-56611788D01*
X81708617Y-56831067D01*
X81794176Y-57037624D01*
X81918388Y-57223520D01*
X82076480Y-57381612D01*
X82262376Y-57505824D01*
X82468933Y-57591383D01*
X82688212Y-57635000D01*
X82911788Y-57635000D01*
X83131067Y-57591383D01*
X83337624Y-57505824D01*
X83523520Y-57381612D01*
X83681612Y-57223520D01*
X83805824Y-57037624D01*
X83891383Y-56831067D01*
X83935000Y-56611788D01*
X83935000Y-56388212D01*
X86065000Y-56388212D01*
X86065000Y-56611788D01*
X86108617Y-56831067D01*
X86194176Y-57037624D01*
X86318388Y-57223520D01*
X86476480Y-57381612D01*
X86662376Y-57505824D01*
X86868933Y-57591383D01*
X87088212Y-57635000D01*
X87311788Y-57635000D01*
X87531067Y-57591383D01*
X87737624Y-57505824D01*
X87923520Y-57381612D01*
X88081612Y-57223520D01*
X88205824Y-57037624D01*
X88291383Y-56831067D01*
X88335000Y-56611788D01*
X88335000Y-56388212D01*
X88291383Y-56168933D01*
X88205824Y-55962376D01*
X88081612Y-55776480D01*
X87923520Y-55618388D01*
X87737624Y-55494176D01*
X87531067Y-55408617D01*
X87311788Y-55365000D01*
X87088212Y-55365000D01*
X86868933Y-55408617D01*
X86662376Y-55494176D01*
X86476480Y-55618388D01*
X86318388Y-55776480D01*
X86194176Y-55962376D01*
X86108617Y-56168933D01*
X86065000Y-56388212D01*
X83935000Y-56388212D01*
X83891383Y-56168933D01*
X83805824Y-55962376D01*
X83681612Y-55776480D01*
X83523520Y-55618388D01*
X83337624Y-55494176D01*
X83131067Y-55408617D01*
X82911788Y-55365000D01*
X82688212Y-55365000D01*
X82468933Y-55408617D01*
X82262376Y-55494176D01*
X82076480Y-55618388D01*
X81918388Y-55776480D01*
X81794176Y-55962376D01*
X81708617Y-56168933D01*
X81665000Y-56388212D01*
X46398972Y-56388212D01*
X46816441Y-55501045D01*
X47444836Y-54510854D01*
X48192383Y-53607224D01*
X48771777Y-53063137D01*
X94915000Y-53063137D01*
X94915000Y-53276863D01*
X94956696Y-53486483D01*
X95038485Y-53683940D01*
X95157225Y-53861647D01*
X95308353Y-54012775D01*
X95486060Y-54131515D01*
X95683517Y-54213304D01*
X95893137Y-54255000D01*
X96106863Y-54255000D01*
X96316483Y-54213304D01*
X96513940Y-54131515D01*
X96691647Y-54012775D01*
X96842775Y-53861647D01*
X96961515Y-53683940D01*
X97043304Y-53486483D01*
X97085000Y-53276863D01*
X97085000Y-53063137D01*
X97915000Y-53063137D01*
X97915000Y-53276863D01*
X97956696Y-53486483D01*
X98038485Y-53683940D01*
X98157225Y-53861647D01*
X98308353Y-54012775D01*
X98486060Y-54131515D01*
X98683517Y-54213304D01*
X98893137Y-54255000D01*
X99106863Y-54255000D01*
X99316483Y-54213304D01*
X99513940Y-54131515D01*
X99691647Y-54012775D01*
X99842775Y-53861647D01*
X99961515Y-53683940D01*
X100043304Y-53486483D01*
X100085000Y-53276863D01*
X100085000Y-53063137D01*
X100043304Y-52853517D01*
X99961515Y-52656060D01*
X99842775Y-52478353D01*
X99691647Y-52327225D01*
X99513940Y-52208485D01*
X99316483Y-52126696D01*
X99106863Y-52085000D01*
X98893137Y-52085000D01*
X98683517Y-52126696D01*
X98486060Y-52208485D01*
X98308353Y-52327225D01*
X98157225Y-52478353D01*
X98038485Y-52656060D01*
X97956696Y-52853517D01*
X97915000Y-53063137D01*
X97085000Y-53063137D01*
X97043304Y-52853517D01*
X96961515Y-52656060D01*
X96842775Y-52478353D01*
X96691647Y-52327225D01*
X96513940Y-52208485D01*
X96316483Y-52126696D01*
X96106863Y-52085000D01*
X95893137Y-52085000D01*
X95683517Y-52126696D01*
X95486060Y-52208485D01*
X95308353Y-52327225D01*
X95157225Y-52478353D01*
X95038485Y-52656060D01*
X94956696Y-52853517D01*
X94915000Y-53063137D01*
X48771777Y-53063137D01*
X49047292Y-52804412D01*
X49996079Y-52115078D01*
X51023774Y-51550097D01*
X52114186Y-51118373D01*
X53250103Y-50826719D01*
X54423941Y-50678429D01*
X55010358Y-50660000D01*
X124979253Y-50660000D01*
X126170449Y-50734944D01*
G37*
G04 #@! TD.AperFunction*
M02*
