G04 #@! TF.GenerationSoftware,KiCad,Pcbnew,(5.1.8)-1*
G04 #@! TF.CreationDate,2021-04-18T14:37:25+02:00*
G04 #@! TF.ProjectId,Coaster_LiPo,436f6173-7465-4725-9f4c-69506f2e6b69,D*
G04 #@! TF.SameCoordinates,Original*
G04 #@! TF.FileFunction,Paste,Top*
G04 #@! TF.FilePolarity,Positive*
%FSLAX46Y46*%
G04 Gerber Fmt 4.6, Leading zero omitted, Abs format (unit mm)*
G04 Created by KiCad (PCBNEW (5.1.8)-1) date 2021-04-18 14:37:25*
%MOMM*%
%LPD*%
G01*
G04 APERTURE LIST*
%ADD10R,1.700000X1.000000*%
%ADD11R,1.700000X0.650000*%
%ADD12R,0.500000X2.000000*%
%ADD13R,2.000000X1.700000*%
%ADD14R,2.400000X0.740000*%
%ADD15R,1.060000X0.650000*%
%ADD16C,3.000000*%
%ADD17R,1.000000X1.500000*%
%ADD18R,1.500000X1.000000*%
%ADD19R,0.700000X1.500000*%
%ADD20R,1.000000X0.800000*%
G04 APERTURE END LIST*
D10*
X76100000Y-94350000D03*
X82400000Y-94350000D03*
X76100000Y-98150000D03*
X82400000Y-98150000D03*
G36*
G01*
X100599999Y-104700000D02*
X101900001Y-104700000D01*
G75*
G02*
X102150000Y-104949999I0J-249999D01*
G01*
X102150000Y-105600001D01*
G75*
G02*
X101900001Y-105850000I-249999J0D01*
G01*
X100599999Y-105850000D01*
G75*
G02*
X100350000Y-105600001I0J249999D01*
G01*
X100350000Y-104949999D01*
G75*
G02*
X100599999Y-104700000I249999J0D01*
G01*
G37*
G36*
G01*
X100599999Y-107650000D02*
X101900001Y-107650000D01*
G75*
G02*
X102150000Y-107899999I0J-249999D01*
G01*
X102150000Y-108550001D01*
G75*
G02*
X101900001Y-108800000I-249999J0D01*
G01*
X100599999Y-108800000D01*
G75*
G02*
X100350000Y-108550001I0J249999D01*
G01*
X100350000Y-107899999D01*
G75*
G02*
X100599999Y-107650000I249999J0D01*
G01*
G37*
D11*
X83150000Y-108155000D03*
X83150000Y-106885000D03*
X83150000Y-105615000D03*
X83150000Y-104345000D03*
X75850000Y-104345000D03*
X75850000Y-105615000D03*
X75850000Y-106885000D03*
X75850000Y-108155000D03*
D12*
X86600000Y-59200000D03*
X85800000Y-59200000D03*
X85000000Y-59200000D03*
X84200000Y-59200000D03*
X83400000Y-59200000D03*
D13*
X89450000Y-59100000D03*
X89450000Y-53650000D03*
X80550000Y-59100000D03*
X80550000Y-53650000D03*
G36*
G01*
X94150001Y-112100000D02*
X92849999Y-112100000D01*
G75*
G02*
X92600000Y-111850001I0J249999D01*
G01*
X92600000Y-111199999D01*
G75*
G02*
X92849999Y-110950000I249999J0D01*
G01*
X94150001Y-110950000D01*
G75*
G02*
X94400000Y-111199999I0J-249999D01*
G01*
X94400000Y-111850001D01*
G75*
G02*
X94150001Y-112100000I-249999J0D01*
G01*
G37*
G36*
G01*
X94150001Y-115050000D02*
X92849999Y-115050000D01*
G75*
G02*
X92600000Y-114800001I0J249999D01*
G01*
X92600000Y-114149999D01*
G75*
G02*
X92849999Y-113900000I249999J0D01*
G01*
X94150001Y-113900000D01*
G75*
G02*
X94400000Y-114149999I0J-249999D01*
G01*
X94400000Y-114800001D01*
G75*
G02*
X94150001Y-115050000I-249999J0D01*
G01*
G37*
D14*
X80700000Y-115020000D03*
X76800000Y-115020000D03*
X80700000Y-113750000D03*
X76800000Y-113750000D03*
X80700000Y-112480000D03*
X76800000Y-112480000D03*
G36*
G01*
X100400000Y-60125003D02*
X100400000Y-58874997D01*
G75*
G02*
X100649997Y-58625000I249997J0D01*
G01*
X101275003Y-58625000D01*
G75*
G02*
X101525000Y-58874997I0J-249997D01*
G01*
X101525000Y-60125003D01*
G75*
G02*
X101275003Y-60375000I-249997J0D01*
G01*
X100649997Y-60375000D01*
G75*
G02*
X100400000Y-60125003I0J249997D01*
G01*
G37*
G36*
G01*
X97475000Y-60125003D02*
X97475000Y-58874997D01*
G75*
G02*
X97724997Y-58625000I249997J0D01*
G01*
X98350003Y-58625000D01*
G75*
G02*
X98600000Y-58874997I0J-249997D01*
G01*
X98600000Y-60125003D01*
G75*
G02*
X98350003Y-60375000I-249997J0D01*
G01*
X97724997Y-60375000D01*
G75*
G02*
X97475000Y-60125003I0J249997D01*
G01*
G37*
G36*
G01*
X95874997Y-112975000D02*
X97125003Y-112975000D01*
G75*
G02*
X97375000Y-113224997I0J-249997D01*
G01*
X97375000Y-113850003D01*
G75*
G02*
X97125003Y-114100000I-249997J0D01*
G01*
X95874997Y-114100000D01*
G75*
G02*
X95625000Y-113850003I0J249997D01*
G01*
X95625000Y-113224997D01*
G75*
G02*
X95874997Y-112975000I249997J0D01*
G01*
G37*
G36*
G01*
X95874997Y-115900000D02*
X97125003Y-115900000D01*
G75*
G02*
X97375000Y-116149997I0J-249997D01*
G01*
X97375000Y-116775003D01*
G75*
G02*
X97125003Y-117025000I-249997J0D01*
G01*
X95874997Y-117025000D01*
G75*
G02*
X95625000Y-116775003I0J249997D01*
G01*
X95625000Y-116149997D01*
G75*
G02*
X95874997Y-115900000I249997J0D01*
G01*
G37*
G36*
G01*
X87650000Y-111125003D02*
X87650000Y-109874997D01*
G75*
G02*
X87899997Y-109625000I249997J0D01*
G01*
X88525003Y-109625000D01*
G75*
G02*
X88775000Y-109874997I0J-249997D01*
G01*
X88775000Y-111125003D01*
G75*
G02*
X88525003Y-111375000I-249997J0D01*
G01*
X87899997Y-111375000D01*
G75*
G02*
X87650000Y-111125003I0J249997D01*
G01*
G37*
G36*
G01*
X84725000Y-111125003D02*
X84725000Y-109874997D01*
G75*
G02*
X84974997Y-109625000I249997J0D01*
G01*
X85600003Y-109625000D01*
G75*
G02*
X85850000Y-109874997I0J-249997D01*
G01*
X85850000Y-111125003D01*
G75*
G02*
X85600003Y-111375000I-249997J0D01*
G01*
X84974997Y-111375000D01*
G75*
G02*
X84725000Y-111125003I0J249997D01*
G01*
G37*
G36*
G01*
X90625003Y-97025000D02*
X89374997Y-97025000D01*
G75*
G02*
X89125000Y-96775003I0J249997D01*
G01*
X89125000Y-96149997D01*
G75*
G02*
X89374997Y-95900000I249997J0D01*
G01*
X90625003Y-95900000D01*
G75*
G02*
X90875000Y-96149997I0J-249997D01*
G01*
X90875000Y-96775003D01*
G75*
G02*
X90625003Y-97025000I-249997J0D01*
G01*
G37*
G36*
G01*
X90625003Y-94100000D02*
X89374997Y-94100000D01*
G75*
G02*
X89125000Y-93850003I0J249997D01*
G01*
X89125000Y-93224997D01*
G75*
G02*
X89374997Y-92975000I249997J0D01*
G01*
X90625003Y-92975000D01*
G75*
G02*
X90875000Y-93224997I0J-249997D01*
G01*
X90875000Y-93850003D01*
G75*
G02*
X90625003Y-94100000I-249997J0D01*
G01*
G37*
D15*
X98850000Y-110950000D03*
X98850000Y-110000000D03*
X98850000Y-109050000D03*
X96650000Y-109050000D03*
X96650000Y-110950000D03*
D16*
X106000000Y-90000000D03*
X95500000Y-90000000D03*
D17*
X54600000Y-75050000D03*
X51400000Y-75050000D03*
X54600000Y-79950000D03*
X51400000Y-79950000D03*
D18*
X70050000Y-56400000D03*
X70050000Y-59600000D03*
X74950000Y-56400000D03*
X74950000Y-59600000D03*
X109950000Y-59600000D03*
X109950000Y-56400000D03*
X105050000Y-59600000D03*
X105050000Y-56400000D03*
D17*
X128600000Y-75050000D03*
X125400000Y-75050000D03*
X128600000Y-79950000D03*
X125400000Y-79950000D03*
D19*
X99750000Y-54930000D03*
X96750000Y-54930000D03*
X95250000Y-54930000D03*
D20*
X101150000Y-52070000D03*
X93850000Y-52070000D03*
X93850000Y-54280000D03*
X101150000Y-54280000D03*
G36*
G01*
X96025000Y-58875000D02*
X96025000Y-60125000D01*
G75*
G02*
X95775000Y-60375000I-250000J0D01*
G01*
X95025000Y-60375000D01*
G75*
G02*
X94775000Y-60125000I0J250000D01*
G01*
X94775000Y-58875000D01*
G75*
G02*
X95025000Y-58625000I250000J0D01*
G01*
X95775000Y-58625000D01*
G75*
G02*
X96025000Y-58875000I0J-250000D01*
G01*
G37*
G36*
G01*
X93225000Y-58875000D02*
X93225000Y-60125000D01*
G75*
G02*
X92975000Y-60375000I-250000J0D01*
G01*
X92225000Y-60375000D01*
G75*
G02*
X91975000Y-60125000I0J250000D01*
G01*
X91975000Y-58875000D01*
G75*
G02*
X92225000Y-58625000I250000J0D01*
G01*
X92975000Y-58625000D01*
G75*
G02*
X93225000Y-58875000I0J-250000D01*
G01*
G37*
D17*
X128600000Y-110050000D03*
X125400000Y-110050000D03*
X128600000Y-114950000D03*
X125400000Y-114950000D03*
D18*
X105050000Y-130400000D03*
X105050000Y-133600000D03*
X109950000Y-130400000D03*
X109950000Y-133600000D03*
X74950000Y-133600000D03*
X74950000Y-130400000D03*
X70050000Y-133600000D03*
X70050000Y-130400000D03*
D17*
X53600000Y-110050000D03*
X50400000Y-110050000D03*
X53600000Y-114950000D03*
X50400000Y-114950000D03*
M02*
