G04 #@! TF.GenerationSoftware,KiCad,Pcbnew,(5.1.8)-1*
G04 #@! TF.CreationDate,2021-04-18T14:37:25+02:00*
G04 #@! TF.ProjectId,Coaster_LiPo,436f6173-7465-4725-9f4c-69506f2e6b69,D*
G04 #@! TF.SameCoordinates,Original*
G04 #@! TF.FileFunction,Legend,Top*
G04 #@! TF.FilePolarity,Positive*
%FSLAX46Y46*%
G04 Gerber Fmt 4.6, Leading zero omitted, Abs format (unit mm)*
G04 Created by KiCad (PCBNEW (5.1.8)-1) date 2021-04-18 14:37:25*
%MOMM*%
%LPD*%
G01*
G04 APERTURE LIST*
%ADD10C,0.150000*%
%ADD11C,0.120000*%
%ADD12C,0.300000*%
%ADD13R,1.700000X1.000000*%
%ADD14R,1.700000X0.650000*%
%ADD15R,0.500000X2.000000*%
%ADD16R,2.000000X1.700000*%
%ADD17C,1.000000*%
%ADD18R,2.400000X0.740000*%
%ADD19R,1.060000X0.650000*%
%ADD20C,3.000000*%
%ADD21R,1.000000X1.500000*%
%ADD22R,1.500000X1.000000*%
%ADD23C,0.900000*%
%ADD24R,0.700000X1.500000*%
%ADD25R,1.000000X0.800000*%
G04 APERTURE END LIST*
D10*
X114452380Y-81369047D02*
X115166666Y-81369047D01*
X115309523Y-81416666D01*
X115404761Y-81511904D01*
X115452380Y-81654761D01*
X115452380Y-81750000D01*
X115452380Y-80416666D02*
X115452380Y-80892857D01*
X114452380Y-80892857D01*
X115357142Y-79511904D02*
X115404761Y-79559523D01*
X115452380Y-79702380D01*
X115452380Y-79797619D01*
X115404761Y-79940476D01*
X115309523Y-80035714D01*
X115214285Y-80083333D01*
X115023809Y-80130952D01*
X114880952Y-80130952D01*
X114690476Y-80083333D01*
X114595238Y-80035714D01*
X114500000Y-79940476D01*
X114452380Y-79797619D01*
X114452380Y-79702380D01*
X114500000Y-79559523D01*
X114547619Y-79511904D01*
X114452380Y-78797619D02*
X115166666Y-78797619D01*
X115309523Y-78845238D01*
X115404761Y-78940476D01*
X115452380Y-79083333D01*
X115452380Y-79178571D01*
X115452380Y-77845238D02*
X115452380Y-78321428D01*
X114452380Y-78321428D01*
X115357142Y-76940476D02*
X115404761Y-76988095D01*
X115452380Y-77130952D01*
X115452380Y-77226190D01*
X115404761Y-77369047D01*
X115309523Y-77464285D01*
X115214285Y-77511904D01*
X115023809Y-77559523D01*
X114880952Y-77559523D01*
X114690476Y-77511904D01*
X114595238Y-77464285D01*
X114500000Y-77369047D01*
X114452380Y-77226190D01*
X114452380Y-77130952D01*
X114500000Y-76988095D01*
X114547619Y-76940476D01*
X114452380Y-76226190D02*
X115166666Y-76226190D01*
X115309523Y-76273809D01*
X115404761Y-76369047D01*
X115452380Y-76511904D01*
X115452380Y-76607142D01*
X115452380Y-75273809D02*
X115452380Y-75750000D01*
X114452380Y-75750000D01*
X115357142Y-74369047D02*
X115404761Y-74416666D01*
X115452380Y-74559523D01*
X115452380Y-74654761D01*
X115404761Y-74797619D01*
X115309523Y-74892857D01*
X115214285Y-74940476D01*
X115023809Y-74988095D01*
X114880952Y-74988095D01*
X114690476Y-74940476D01*
X114595238Y-74892857D01*
X114500000Y-74797619D01*
X114452380Y-74654761D01*
X114452380Y-74559523D01*
X114500000Y-74416666D01*
X114547619Y-74369047D01*
X114452380Y-73654761D02*
X115166666Y-73654761D01*
X115309523Y-73702380D01*
X115404761Y-73797619D01*
X115452380Y-73940476D01*
X115452380Y-74035714D01*
X115452380Y-72702380D02*
X115452380Y-73178571D01*
X114452380Y-73178571D01*
X115357142Y-71797619D02*
X115404761Y-71845238D01*
X115452380Y-71988095D01*
X115452380Y-72083333D01*
X115404761Y-72226190D01*
X115309523Y-72321428D01*
X115214285Y-72369047D01*
X115023809Y-72416666D01*
X114880952Y-72416666D01*
X114690476Y-72369047D01*
X114595238Y-72321428D01*
X114500000Y-72226190D01*
X114452380Y-72083333D01*
X114452380Y-71988095D01*
X114500000Y-71845238D01*
X114547619Y-71797619D01*
D11*
X85000000Y-109000000D02*
G75*
G03*
X85000000Y-109000000I-250000J0D01*
G01*
D10*
X83642857Y-115361904D02*
X83642857Y-114561904D01*
X83909523Y-115133333D01*
X84176190Y-114561904D01*
X84176190Y-115361904D01*
X84557142Y-115361904D02*
X84557142Y-114561904D01*
X84900000Y-115323809D02*
X85014285Y-115361904D01*
X85204761Y-115361904D01*
X85280952Y-115323809D01*
X85319047Y-115285714D01*
X85357142Y-115209523D01*
X85357142Y-115133333D01*
X85319047Y-115057142D01*
X85280952Y-115019047D01*
X85204761Y-114980952D01*
X85052380Y-114942857D01*
X84976190Y-114904761D01*
X84938095Y-114866666D01*
X84900000Y-114790476D01*
X84900000Y-114714285D01*
X84938095Y-114638095D01*
X84976190Y-114600000D01*
X85052380Y-114561904D01*
X85242857Y-114561904D01*
X85357142Y-114600000D01*
X85852380Y-114561904D02*
X86004761Y-114561904D01*
X86080952Y-114600000D01*
X86157142Y-114676190D01*
X86195238Y-114828571D01*
X86195238Y-115095238D01*
X86157142Y-115247619D01*
X86080952Y-115323809D01*
X86004761Y-115361904D01*
X85852380Y-115361904D01*
X85776190Y-115323809D01*
X85700000Y-115247619D01*
X85661904Y-115095238D01*
X85661904Y-114828571D01*
X85700000Y-114676190D01*
X85776190Y-114600000D01*
X85852380Y-114561904D01*
X87376190Y-115666666D02*
X87338095Y-115628571D01*
X87261904Y-115514285D01*
X87223809Y-115438095D01*
X87185714Y-115323809D01*
X87147619Y-115133333D01*
X87147619Y-114980952D01*
X87185714Y-114790476D01*
X87223809Y-114676190D01*
X87261904Y-114600000D01*
X87338095Y-114485714D01*
X87376190Y-114447619D01*
X88100000Y-115361904D02*
X87642857Y-115361904D01*
X87871428Y-115361904D02*
X87871428Y-114561904D01*
X87795238Y-114676190D01*
X87719047Y-114752380D01*
X87642857Y-114790476D01*
X88404761Y-114638095D02*
X88442857Y-114600000D01*
X88519047Y-114561904D01*
X88709523Y-114561904D01*
X88785714Y-114600000D01*
X88823809Y-114638095D01*
X88861904Y-114714285D01*
X88861904Y-114790476D01*
X88823809Y-114904761D01*
X88366666Y-115361904D01*
X88861904Y-115361904D01*
X89128571Y-115666666D02*
X89166666Y-115628571D01*
X89242857Y-115514285D01*
X89280952Y-115438095D01*
X89319047Y-115323809D01*
X89357142Y-115133333D01*
X89357142Y-114980952D01*
X89319047Y-114790476D01*
X89280952Y-114676190D01*
X89242857Y-114600000D01*
X89166666Y-114485714D01*
X89128571Y-114447619D01*
X83621428Y-114073809D02*
X83735714Y-114111904D01*
X83926190Y-114111904D01*
X84002380Y-114073809D01*
X84040476Y-114035714D01*
X84078571Y-113959523D01*
X84078571Y-113883333D01*
X84040476Y-113807142D01*
X84002380Y-113769047D01*
X83926190Y-113730952D01*
X83773809Y-113692857D01*
X83697619Y-113654761D01*
X83659523Y-113616666D01*
X83621428Y-113540476D01*
X83621428Y-113464285D01*
X83659523Y-113388095D01*
X83697619Y-113350000D01*
X83773809Y-113311904D01*
X83964285Y-113311904D01*
X84078571Y-113350000D01*
X84878571Y-114035714D02*
X84840476Y-114073809D01*
X84726190Y-114111904D01*
X84650000Y-114111904D01*
X84535714Y-114073809D01*
X84459523Y-113997619D01*
X84421428Y-113921428D01*
X84383333Y-113769047D01*
X84383333Y-113654761D01*
X84421428Y-113502380D01*
X84459523Y-113426190D01*
X84535714Y-113350000D01*
X84650000Y-113311904D01*
X84726190Y-113311904D01*
X84840476Y-113350000D01*
X84878571Y-113388095D01*
X85221428Y-114111904D02*
X85221428Y-113311904D01*
X85678571Y-114111904D02*
X85335714Y-113654761D01*
X85678571Y-113311904D02*
X85221428Y-113769047D01*
X86859523Y-114416666D02*
X86821428Y-114378571D01*
X86745238Y-114264285D01*
X86707142Y-114188095D01*
X86669047Y-114073809D01*
X86630952Y-113883333D01*
X86630952Y-113730952D01*
X86669047Y-113540476D01*
X86707142Y-113426190D01*
X86745238Y-113350000D01*
X86821428Y-113235714D01*
X86859523Y-113197619D01*
X87583333Y-114111904D02*
X87126190Y-114111904D01*
X87354761Y-114111904D02*
X87354761Y-113311904D01*
X87278571Y-113426190D01*
X87202380Y-113502380D01*
X87126190Y-113540476D01*
X87850000Y-113311904D02*
X88345238Y-113311904D01*
X88078571Y-113616666D01*
X88192857Y-113616666D01*
X88269047Y-113654761D01*
X88307142Y-113692857D01*
X88345238Y-113769047D01*
X88345238Y-113959523D01*
X88307142Y-114035714D01*
X88269047Y-114073809D01*
X88192857Y-114111904D01*
X87964285Y-114111904D01*
X87888095Y-114073809D01*
X87850000Y-114035714D01*
X88611904Y-114416666D02*
X88650000Y-114378571D01*
X88726190Y-114264285D01*
X88764285Y-114188095D01*
X88802380Y-114073809D01*
X88840476Y-113883333D01*
X88840476Y-113730952D01*
X88802380Y-113540476D01*
X88764285Y-113426190D01*
X88726190Y-113350000D01*
X88650000Y-113235714D01*
X88611904Y-113197619D01*
X83961904Y-112861904D02*
X83695238Y-112480952D01*
X83504761Y-112861904D02*
X83504761Y-112061904D01*
X83809523Y-112061904D01*
X83885714Y-112100000D01*
X83923809Y-112138095D01*
X83961904Y-112214285D01*
X83961904Y-112328571D01*
X83923809Y-112404761D01*
X83885714Y-112442857D01*
X83809523Y-112480952D01*
X83504761Y-112480952D01*
X84266666Y-112823809D02*
X84380952Y-112861904D01*
X84571428Y-112861904D01*
X84647619Y-112823809D01*
X84685714Y-112785714D01*
X84723809Y-112709523D01*
X84723809Y-112633333D01*
X84685714Y-112557142D01*
X84647619Y-112519047D01*
X84571428Y-112480952D01*
X84419047Y-112442857D01*
X84342857Y-112404761D01*
X84304761Y-112366666D01*
X84266666Y-112290476D01*
X84266666Y-112214285D01*
X84304761Y-112138095D01*
X84342857Y-112100000D01*
X84419047Y-112061904D01*
X84609523Y-112061904D01*
X84723809Y-112100000D01*
X84952380Y-112061904D02*
X85409523Y-112061904D01*
X85180952Y-112861904D02*
X85180952Y-112061904D01*
X86514285Y-113166666D02*
X86476190Y-113128571D01*
X86400000Y-113014285D01*
X86361904Y-112938095D01*
X86323809Y-112823809D01*
X86285714Y-112633333D01*
X86285714Y-112480952D01*
X86323809Y-112290476D01*
X86361904Y-112176190D01*
X86400000Y-112100000D01*
X86476190Y-111985714D01*
X86514285Y-111947619D01*
X87238095Y-112861904D02*
X86780952Y-112861904D01*
X87009523Y-112861904D02*
X87009523Y-112061904D01*
X86933333Y-112176190D01*
X86857142Y-112252380D01*
X86780952Y-112290476D01*
X87733333Y-112061904D02*
X87809523Y-112061904D01*
X87885714Y-112100000D01*
X87923809Y-112138095D01*
X87961904Y-112214285D01*
X88000000Y-112366666D01*
X88000000Y-112557142D01*
X87961904Y-112709523D01*
X87923809Y-112785714D01*
X87885714Y-112823809D01*
X87809523Y-112861904D01*
X87733333Y-112861904D01*
X87657142Y-112823809D01*
X87619047Y-112785714D01*
X87580952Y-112709523D01*
X87542857Y-112557142D01*
X87542857Y-112366666D01*
X87580952Y-112214285D01*
X87619047Y-112138095D01*
X87657142Y-112100000D01*
X87733333Y-112061904D01*
X88266666Y-113166666D02*
X88304761Y-113128571D01*
X88380952Y-113014285D01*
X88419047Y-112938095D01*
X88457142Y-112823809D01*
X88495238Y-112633333D01*
X88495238Y-112480952D01*
X88457142Y-112290476D01*
X88419047Y-112176190D01*
X88380952Y-112100000D01*
X88304761Y-111985714D01*
X88266666Y-111947619D01*
X68871428Y-114561904D02*
X69138095Y-115361904D01*
X69404761Y-114561904D01*
X70128571Y-115285714D02*
X70090476Y-115323809D01*
X69976190Y-115361904D01*
X69900000Y-115361904D01*
X69785714Y-115323809D01*
X69709523Y-115247619D01*
X69671428Y-115171428D01*
X69633333Y-115019047D01*
X69633333Y-114904761D01*
X69671428Y-114752380D01*
X69709523Y-114676190D01*
X69785714Y-114600000D01*
X69900000Y-114561904D01*
X69976190Y-114561904D01*
X70090476Y-114600000D01*
X70128571Y-114638095D01*
X70928571Y-115285714D02*
X70890476Y-115323809D01*
X70776190Y-115361904D01*
X70700000Y-115361904D01*
X70585714Y-115323809D01*
X70509523Y-115247619D01*
X70471428Y-115171428D01*
X70433333Y-115019047D01*
X70433333Y-114904761D01*
X70471428Y-114752380D01*
X70509523Y-114676190D01*
X70585714Y-114600000D01*
X70700000Y-114561904D01*
X70776190Y-114561904D01*
X70890476Y-114600000D01*
X70928571Y-114638095D01*
X72109523Y-115666666D02*
X72071428Y-115628571D01*
X71995238Y-115514285D01*
X71957142Y-115438095D01*
X71919047Y-115323809D01*
X71880952Y-115133333D01*
X71880952Y-114980952D01*
X71919047Y-114790476D01*
X71957142Y-114676190D01*
X71995238Y-114600000D01*
X72071428Y-114485714D01*
X72109523Y-114447619D01*
X72795238Y-114561904D02*
X72414285Y-114561904D01*
X72376190Y-114942857D01*
X72414285Y-114904761D01*
X72490476Y-114866666D01*
X72680952Y-114866666D01*
X72757142Y-114904761D01*
X72795238Y-114942857D01*
X72833333Y-115019047D01*
X72833333Y-115209523D01*
X72795238Y-115285714D01*
X72757142Y-115323809D01*
X72680952Y-115361904D01*
X72490476Y-115361904D01*
X72414285Y-115323809D01*
X72376190Y-115285714D01*
X73061904Y-114561904D02*
X73328571Y-115361904D01*
X73595238Y-114561904D01*
X73785714Y-115666666D02*
X73823809Y-115628571D01*
X73900000Y-115514285D01*
X73938095Y-115438095D01*
X73976190Y-115323809D01*
X74014285Y-115133333D01*
X74014285Y-114980952D01*
X73976190Y-114790476D01*
X73938095Y-114676190D01*
X73900000Y-114600000D01*
X73823809Y-114485714D01*
X73785714Y-114447619D01*
X68392857Y-114111904D02*
X68392857Y-113311904D01*
X68659523Y-113883333D01*
X68926190Y-113311904D01*
X68926190Y-114111904D01*
X69459523Y-113311904D02*
X69611904Y-113311904D01*
X69688095Y-113350000D01*
X69764285Y-113426190D01*
X69802380Y-113578571D01*
X69802380Y-113845238D01*
X69764285Y-113997619D01*
X69688095Y-114073809D01*
X69611904Y-114111904D01*
X69459523Y-114111904D01*
X69383333Y-114073809D01*
X69307142Y-113997619D01*
X69269047Y-113845238D01*
X69269047Y-113578571D01*
X69307142Y-113426190D01*
X69383333Y-113350000D01*
X69459523Y-113311904D01*
X70107142Y-114073809D02*
X70221428Y-114111904D01*
X70411904Y-114111904D01*
X70488095Y-114073809D01*
X70526190Y-114035714D01*
X70564285Y-113959523D01*
X70564285Y-113883333D01*
X70526190Y-113807142D01*
X70488095Y-113769047D01*
X70411904Y-113730952D01*
X70259523Y-113692857D01*
X70183333Y-113654761D01*
X70145238Y-113616666D01*
X70107142Y-113540476D01*
X70107142Y-113464285D01*
X70145238Y-113388095D01*
X70183333Y-113350000D01*
X70259523Y-113311904D01*
X70450000Y-113311904D01*
X70564285Y-113350000D01*
X70907142Y-114111904D02*
X70907142Y-113311904D01*
X72126190Y-114416666D02*
X72088095Y-114378571D01*
X72011904Y-114264285D01*
X71973809Y-114188095D01*
X71935714Y-114073809D01*
X71897619Y-113883333D01*
X71897619Y-113730952D01*
X71935714Y-113540476D01*
X71973809Y-113426190D01*
X72011904Y-113350000D01*
X72088095Y-113235714D01*
X72126190Y-113197619D01*
X72850000Y-114111904D02*
X72392857Y-114111904D01*
X72621428Y-114111904D02*
X72621428Y-113311904D01*
X72545238Y-113426190D01*
X72469047Y-113502380D01*
X72392857Y-113540476D01*
X73611904Y-114111904D02*
X73154761Y-114111904D01*
X73383333Y-114111904D02*
X73383333Y-113311904D01*
X73307142Y-113426190D01*
X73230952Y-113502380D01*
X73154761Y-113540476D01*
X73878571Y-114416666D02*
X73916666Y-114378571D01*
X73992857Y-114264285D01*
X74030952Y-114188095D01*
X74069047Y-114073809D01*
X74107142Y-113883333D01*
X74107142Y-113730952D01*
X74069047Y-113540476D01*
X74030952Y-113426190D01*
X73992857Y-113350000D01*
X73916666Y-113235714D01*
X73878571Y-113197619D01*
X68333333Y-112100000D02*
X68257142Y-112061904D01*
X68142857Y-112061904D01*
X68028571Y-112100000D01*
X67952380Y-112176190D01*
X67914285Y-112252380D01*
X67876190Y-112404761D01*
X67876190Y-112519047D01*
X67914285Y-112671428D01*
X67952380Y-112747619D01*
X68028571Y-112823809D01*
X68142857Y-112861904D01*
X68219047Y-112861904D01*
X68333333Y-112823809D01*
X68371428Y-112785714D01*
X68371428Y-112519047D01*
X68219047Y-112519047D01*
X68714285Y-112861904D02*
X68714285Y-112061904D01*
X69171428Y-112861904D01*
X69171428Y-112061904D01*
X69552380Y-112861904D02*
X69552380Y-112061904D01*
X69742857Y-112061904D01*
X69857142Y-112100000D01*
X69933333Y-112176190D01*
X69971428Y-112252380D01*
X70009523Y-112404761D01*
X70009523Y-112519047D01*
X69971428Y-112671428D01*
X69933333Y-112747619D01*
X69857142Y-112823809D01*
X69742857Y-112861904D01*
X69552380Y-112861904D01*
X71190476Y-113166666D02*
X71152380Y-113128571D01*
X71076190Y-113014285D01*
X71038095Y-112938095D01*
X71000000Y-112823809D01*
X70961904Y-112633333D01*
X70961904Y-112480952D01*
X71000000Y-112290476D01*
X71038095Y-112176190D01*
X71076190Y-112100000D01*
X71152380Y-111985714D01*
X71190476Y-111947619D01*
X71914285Y-112100000D02*
X71838095Y-112061904D01*
X71723809Y-112061904D01*
X71609523Y-112100000D01*
X71533333Y-112176190D01*
X71495238Y-112252380D01*
X71457142Y-112404761D01*
X71457142Y-112519047D01*
X71495238Y-112671428D01*
X71533333Y-112747619D01*
X71609523Y-112823809D01*
X71723809Y-112861904D01*
X71800000Y-112861904D01*
X71914285Y-112823809D01*
X71952380Y-112785714D01*
X71952380Y-112519047D01*
X71800000Y-112519047D01*
X72295238Y-112861904D02*
X72295238Y-112061904D01*
X72752380Y-112861904D01*
X72752380Y-112061904D01*
X73133333Y-112861904D02*
X73133333Y-112061904D01*
X73323809Y-112061904D01*
X73438095Y-112100000D01*
X73514285Y-112176190D01*
X73552380Y-112252380D01*
X73590476Y-112404761D01*
X73590476Y-112519047D01*
X73552380Y-112671428D01*
X73514285Y-112747619D01*
X73438095Y-112823809D01*
X73323809Y-112861904D01*
X73133333Y-112861904D01*
X73857142Y-113166666D02*
X73895238Y-113128571D01*
X73971428Y-113014285D01*
X74009523Y-112938095D01*
X74047619Y-112823809D01*
X74085714Y-112633333D01*
X74085714Y-112480952D01*
X74047619Y-112290476D01*
X74009523Y-112176190D01*
X73971428Y-112100000D01*
X73895238Y-111985714D01*
X73857142Y-111947619D01*
D12*
X100095238Y-116254761D02*
X100095238Y-114254761D01*
X100761904Y-115683333D01*
X101428571Y-114254761D01*
X101428571Y-116254761D01*
X103238095Y-116254761D02*
X103238095Y-115207142D01*
X103142857Y-115016666D01*
X102952380Y-114921428D01*
X102571428Y-114921428D01*
X102380952Y-115016666D01*
X103238095Y-116159523D02*
X103047619Y-116254761D01*
X102571428Y-116254761D01*
X102380952Y-116159523D01*
X102285714Y-115969047D01*
X102285714Y-115778571D01*
X102380952Y-115588095D01*
X102571428Y-115492857D01*
X103047619Y-115492857D01*
X103238095Y-115397619D01*
X105047619Y-116254761D02*
X105047619Y-114254761D01*
X105047619Y-116159523D02*
X104857142Y-116254761D01*
X104476190Y-116254761D01*
X104285714Y-116159523D01*
X104190476Y-116064285D01*
X104095238Y-115873809D01*
X104095238Y-115302380D01*
X104190476Y-115111904D01*
X104285714Y-115016666D01*
X104476190Y-114921428D01*
X104857142Y-114921428D01*
X105047619Y-115016666D01*
X106761904Y-116159523D02*
X106571428Y-116254761D01*
X106190476Y-116254761D01*
X105999999Y-116159523D01*
X105904761Y-115969047D01*
X105904761Y-115207142D01*
X105999999Y-115016666D01*
X106190476Y-114921428D01*
X106571428Y-114921428D01*
X106761904Y-115016666D01*
X106857142Y-115207142D01*
X106857142Y-115397619D01*
X105904761Y-115588095D01*
X109238095Y-116254761D02*
X109238095Y-114254761D01*
X109238095Y-115016666D02*
X109428571Y-114921428D01*
X109809523Y-114921428D01*
X110000000Y-115016666D01*
X110095238Y-115111904D01*
X110190476Y-115302380D01*
X110190476Y-115873809D01*
X110095238Y-116064285D01*
X110000000Y-116159523D01*
X109809523Y-116254761D01*
X109428571Y-116254761D01*
X109238095Y-116159523D01*
X110857142Y-114921428D02*
X111333333Y-116254761D01*
X111809523Y-114921428D02*
X111333333Y-116254761D01*
X111142857Y-116730952D01*
X111047619Y-116826190D01*
X110857142Y-116921428D01*
X114761904Y-115207142D02*
X115047619Y-115302380D01*
X115142857Y-115397619D01*
X115238095Y-115588095D01*
X115238095Y-115873809D01*
X115142857Y-116064285D01*
X115047619Y-116159523D01*
X114857142Y-116254761D01*
X114095238Y-116254761D01*
X114095238Y-114254761D01*
X114761904Y-114254761D01*
X114952380Y-114350000D01*
X115047619Y-114445238D01*
X115142857Y-114635714D01*
X115142857Y-114826190D01*
X115047619Y-115016666D01*
X114952380Y-115111904D01*
X114761904Y-115207142D01*
X114095238Y-115207142D01*
X116952380Y-116254761D02*
X116952380Y-115207142D01*
X116857142Y-115016666D01*
X116666666Y-114921428D01*
X116285714Y-114921428D01*
X116095238Y-115016666D01*
X116952380Y-116159523D02*
X116761904Y-116254761D01*
X116285714Y-116254761D01*
X116095238Y-116159523D01*
X116000000Y-115969047D01*
X116000000Y-115778571D01*
X116095238Y-115588095D01*
X116285714Y-115492857D01*
X116761904Y-115492857D01*
X116952380Y-115397619D01*
X117809523Y-116159523D02*
X118000000Y-116254761D01*
X118380952Y-116254761D01*
X118571428Y-116159523D01*
X118666666Y-115969047D01*
X118666666Y-115873809D01*
X118571428Y-115683333D01*
X118380952Y-115588095D01*
X118095238Y-115588095D01*
X117904761Y-115492857D01*
X117809523Y-115302380D01*
X117809523Y-115207142D01*
X117904761Y-115016666D01*
X118095238Y-114921428D01*
X118380952Y-114921428D01*
X118571428Y-115016666D01*
X119428571Y-116159523D02*
X119619047Y-116254761D01*
X120000000Y-116254761D01*
X120190476Y-116159523D01*
X120285714Y-115969047D01*
X120285714Y-115873809D01*
X120190476Y-115683333D01*
X120000000Y-115588095D01*
X119714285Y-115588095D01*
X119523809Y-115492857D01*
X119428571Y-115302380D01*
X119428571Y-115207142D01*
X119523809Y-115016666D01*
X119714285Y-114921428D01*
X120000000Y-114921428D01*
X120190476Y-115016666D01*
X121904761Y-116159523D02*
X121714285Y-116254761D01*
X121333333Y-116254761D01*
X121142857Y-116159523D01*
X121047619Y-115969047D01*
X121047619Y-115207142D01*
X121142857Y-115016666D01*
X121333333Y-114921428D01*
X121714285Y-114921428D01*
X121904761Y-115016666D01*
X122000000Y-115207142D01*
X122000000Y-115397619D01*
X121047619Y-115588095D01*
X92952380Y-119554761D02*
X92952380Y-117554761D01*
X94095238Y-119554761D01*
X94095238Y-117554761D01*
X95809523Y-119459523D02*
X95619047Y-119554761D01*
X95238095Y-119554761D01*
X95047619Y-119459523D01*
X94952380Y-119269047D01*
X94952380Y-118507142D01*
X95047619Y-118316666D01*
X95238095Y-118221428D01*
X95619047Y-118221428D01*
X95809523Y-118316666D01*
X95904761Y-118507142D01*
X95904761Y-118697619D01*
X94952380Y-118888095D01*
X97047619Y-119554761D02*
X96857142Y-119459523D01*
X96761904Y-119364285D01*
X96666666Y-119173809D01*
X96666666Y-118602380D01*
X96761904Y-118411904D01*
X96857142Y-118316666D01*
X97047619Y-118221428D01*
X97333333Y-118221428D01*
X97523809Y-118316666D01*
X97619047Y-118411904D01*
X97714285Y-118602380D01*
X97714285Y-119173809D01*
X97619047Y-119364285D01*
X97523809Y-119459523D01*
X97333333Y-119554761D01*
X97047619Y-119554761D01*
X98571428Y-119554761D02*
X98571428Y-117554761D01*
X99333333Y-117554761D01*
X99523809Y-117650000D01*
X99619047Y-117745238D01*
X99714285Y-117935714D01*
X99714285Y-118221428D01*
X99619047Y-118411904D01*
X99523809Y-118507142D01*
X99333333Y-118602380D01*
X98571428Y-118602380D01*
X100571428Y-119554761D02*
X100571428Y-118221428D01*
X100571428Y-117554761D02*
X100476190Y-117650000D01*
X100571428Y-117745238D01*
X100666666Y-117650000D01*
X100571428Y-117554761D01*
X100571428Y-117745238D01*
X101333333Y-119554761D02*
X102380952Y-118221428D01*
X101333333Y-118221428D02*
X102380952Y-119554761D01*
X103904761Y-119459523D02*
X103714285Y-119554761D01*
X103333333Y-119554761D01*
X103142857Y-119459523D01*
X103047619Y-119269047D01*
X103047619Y-118507142D01*
X103142857Y-118316666D01*
X103333333Y-118221428D01*
X103714285Y-118221428D01*
X103904761Y-118316666D01*
X104000000Y-118507142D01*
X104000000Y-118697619D01*
X103047619Y-118888095D01*
X105142857Y-119554761D02*
X104952380Y-119459523D01*
X104857142Y-119269047D01*
X104857142Y-117554761D01*
X108571428Y-119364285D02*
X108476190Y-119459523D01*
X108190476Y-119554761D01*
X108000000Y-119554761D01*
X107714285Y-119459523D01*
X107523809Y-119269047D01*
X107428571Y-119078571D01*
X107333333Y-118697619D01*
X107333333Y-118411904D01*
X107428571Y-118030952D01*
X107523809Y-117840476D01*
X107714285Y-117650000D01*
X108000000Y-117554761D01*
X108190476Y-117554761D01*
X108476190Y-117650000D01*
X108571428Y-117745238D01*
X109714285Y-119554761D02*
X109523809Y-119459523D01*
X109428571Y-119364285D01*
X109333333Y-119173809D01*
X109333333Y-118602380D01*
X109428571Y-118411904D01*
X109523809Y-118316666D01*
X109714285Y-118221428D01*
X110000000Y-118221428D01*
X110190476Y-118316666D01*
X110285714Y-118411904D01*
X110380952Y-118602380D01*
X110380952Y-119173809D01*
X110285714Y-119364285D01*
X110190476Y-119459523D01*
X110000000Y-119554761D01*
X109714285Y-119554761D01*
X112095238Y-119554761D02*
X112095238Y-118507142D01*
X112000000Y-118316666D01*
X111809523Y-118221428D01*
X111428571Y-118221428D01*
X111238095Y-118316666D01*
X112095238Y-119459523D02*
X111904761Y-119554761D01*
X111428571Y-119554761D01*
X111238095Y-119459523D01*
X111142857Y-119269047D01*
X111142857Y-119078571D01*
X111238095Y-118888095D01*
X111428571Y-118792857D01*
X111904761Y-118792857D01*
X112095238Y-118697619D01*
X112952380Y-119459523D02*
X113142857Y-119554761D01*
X113523809Y-119554761D01*
X113714285Y-119459523D01*
X113809523Y-119269047D01*
X113809523Y-119173809D01*
X113714285Y-118983333D01*
X113523809Y-118888095D01*
X113238095Y-118888095D01*
X113047619Y-118792857D01*
X112952380Y-118602380D01*
X112952380Y-118507142D01*
X113047619Y-118316666D01*
X113238095Y-118221428D01*
X113523809Y-118221428D01*
X113714285Y-118316666D01*
X114380952Y-118221428D02*
X115142857Y-118221428D01*
X114666666Y-117554761D02*
X114666666Y-119269047D01*
X114761904Y-119459523D01*
X114952380Y-119554761D01*
X115142857Y-119554761D01*
X116571428Y-119459523D02*
X116380952Y-119554761D01*
X116000000Y-119554761D01*
X115809523Y-119459523D01*
X115714285Y-119269047D01*
X115714285Y-118507142D01*
X115809523Y-118316666D01*
X116000000Y-118221428D01*
X116380952Y-118221428D01*
X116571428Y-118316666D01*
X116666666Y-118507142D01*
X116666666Y-118697619D01*
X115714285Y-118888095D01*
X117523809Y-119554761D02*
X117523809Y-118221428D01*
X117523809Y-118602380D02*
X117619047Y-118411904D01*
X117714285Y-118316666D01*
X117904761Y-118221428D01*
X118095238Y-118221428D01*
X121428571Y-119554761D02*
X120761904Y-118602380D01*
X120285714Y-119554761D02*
X120285714Y-117554761D01*
X121047619Y-117554761D01*
X121238095Y-117650000D01*
X121333333Y-117745238D01*
X121428571Y-117935714D01*
X121428571Y-118221428D01*
X121333333Y-118411904D01*
X121238095Y-118507142D01*
X121047619Y-118602380D01*
X120285714Y-118602380D01*
X123047619Y-119459523D02*
X122857142Y-119554761D01*
X122476190Y-119554761D01*
X122285714Y-119459523D01*
X122190476Y-119269047D01*
X122190476Y-118507142D01*
X122285714Y-118316666D01*
X122476190Y-118221428D01*
X122857142Y-118221428D01*
X123047619Y-118316666D01*
X123142857Y-118507142D01*
X123142857Y-118697619D01*
X122190476Y-118888095D01*
X123809523Y-118221428D02*
X124285714Y-119554761D01*
X124761904Y-118221428D01*
X125523809Y-119364285D02*
X125619047Y-119459523D01*
X125523809Y-119554761D01*
X125428571Y-119459523D01*
X125523809Y-119364285D01*
X125523809Y-119554761D01*
X128000000Y-119554761D02*
X128000000Y-117554761D01*
X128476190Y-117554761D01*
X128761904Y-117650000D01*
X128952380Y-117840476D01*
X129047619Y-118030952D01*
X129142857Y-118411904D01*
X129142857Y-118697619D01*
X129047619Y-119078571D01*
X128952380Y-119269047D01*
X128761904Y-119459523D01*
X128476190Y-119554761D01*
X128000000Y-119554761D01*
D10*
X101238095Y-87500000D02*
X101142857Y-87452380D01*
X101000000Y-87452380D01*
X100857142Y-87500000D01*
X100761904Y-87595238D01*
X100714285Y-87690476D01*
X100666666Y-87880952D01*
X100666666Y-88023809D01*
X100714285Y-88214285D01*
X100761904Y-88309523D01*
X100857142Y-88404761D01*
X101000000Y-88452380D01*
X101095238Y-88452380D01*
X101238095Y-88404761D01*
X101285714Y-88357142D01*
X101285714Y-88023809D01*
X101095238Y-88023809D01*
X101714285Y-88452380D02*
X101714285Y-87452380D01*
X102285714Y-88452380D01*
X102285714Y-87452380D01*
X102761904Y-88452380D02*
X102761904Y-87452380D01*
X103000000Y-87452380D01*
X103142857Y-87500000D01*
X103238095Y-87595238D01*
X103285714Y-87690476D01*
X103333333Y-87880952D01*
X103333333Y-88023809D01*
X103285714Y-88214285D01*
X103238095Y-88309523D01*
X103142857Y-88404761D01*
X103000000Y-88452380D01*
X102761904Y-88452380D01*
X90809523Y-87452380D02*
X91142857Y-88452380D01*
X91476190Y-87452380D01*
X92238095Y-88404761D02*
X92142857Y-88452380D01*
X91952380Y-88452380D01*
X91857142Y-88404761D01*
X91809523Y-88357142D01*
X91761904Y-88261904D01*
X91761904Y-87976190D01*
X91809523Y-87880952D01*
X91857142Y-87833333D01*
X91952380Y-87785714D01*
X92142857Y-87785714D01*
X92238095Y-87833333D01*
X93095238Y-88404761D02*
X93000000Y-88452380D01*
X92809523Y-88452380D01*
X92714285Y-88404761D01*
X92666666Y-88357142D01*
X92619047Y-88261904D01*
X92619047Y-87976190D01*
X92666666Y-87880952D01*
X92714285Y-87833333D01*
X92809523Y-87785714D01*
X93000000Y-87785714D01*
X93095238Y-87833333D01*
D11*
X80500000Y-99000000D02*
X78000000Y-99000000D01*
X82000000Y-97250000D02*
X82000000Y-95250000D01*
X80500000Y-93500000D02*
X78000000Y-93500000D01*
X76500000Y-97250000D02*
X76500000Y-95250000D01*
X80950000Y-98550000D02*
X80500000Y-99000000D01*
X77550000Y-98550000D02*
X78000000Y-99000000D01*
X77550000Y-93950000D02*
X78000000Y-93500000D01*
X80950000Y-93950000D02*
X80500000Y-93500000D01*
X65000000Y-95000000D02*
G75*
G03*
X65000000Y-95000000I-10000000J0D01*
G01*
X135000000Y-95000000D02*
G75*
G03*
X135000000Y-95000000I-10000000J0D01*
G01*
X100000000Y-130000000D02*
G75*
G03*
X100000000Y-130000000I-10000000J0D01*
G01*
X135000000Y-130000000D02*
G75*
G03*
X135000000Y-130000000I-10000000J0D01*
G01*
X65000000Y-130000000D02*
G75*
G03*
X65000000Y-130000000I-10000000J0D01*
G01*
X135000000Y-60000000D02*
G75*
G03*
X135000000Y-60000000I-10000000J0D01*
G01*
X65000000Y-60000000D02*
G75*
G03*
X65000000Y-60000000I-10000000J0D01*
G01*
X102160000Y-106038748D02*
X102160000Y-107461252D01*
X100340000Y-106038748D02*
X100340000Y-107461252D01*
D10*
X82250000Y-109005000D02*
X82250000Y-108800000D01*
X76750000Y-109005000D02*
X76750000Y-108705000D01*
X76750000Y-103495000D02*
X76750000Y-103795000D01*
X82250000Y-103495000D02*
X82250000Y-103795000D01*
X82250000Y-109005000D02*
X76750000Y-109005000D01*
X82250000Y-103495000D02*
X76750000Y-103495000D01*
X82250000Y-108800000D02*
X84000000Y-108800000D01*
D11*
X88910000Y-50590000D02*
X88910000Y-52540000D01*
X88910000Y-54760000D02*
X88910000Y-57990000D01*
X88190000Y-59910000D02*
X87110000Y-59910000D01*
X82890000Y-59910000D02*
X81810000Y-59910000D01*
X81090000Y-54760000D02*
X81090000Y-57990000D01*
X81090000Y-50590000D02*
X81090000Y-52540000D01*
X87110000Y-59910000D02*
X87110000Y-60340000D01*
X81090000Y-50590000D02*
X88910000Y-50590000D01*
X94410000Y-113711252D02*
X94410000Y-112288748D01*
X92590000Y-113711252D02*
X92590000Y-112288748D01*
X80515000Y-115715000D02*
X76985000Y-115715000D01*
X80515000Y-111785000D02*
X76985000Y-111785000D01*
X81840000Y-115650000D02*
X80515000Y-115650000D01*
X80515000Y-115715000D02*
X80515000Y-115650000D01*
X76985000Y-115715000D02*
X76985000Y-115650000D01*
X80515000Y-111850000D02*
X80515000Y-111785000D01*
X76985000Y-111850000D02*
X76985000Y-111785000D01*
X98772936Y-60410000D02*
X100227064Y-60410000D01*
X98772936Y-58590000D02*
X100227064Y-58590000D01*
X97410000Y-114272936D02*
X97410000Y-115727064D01*
X95590000Y-114272936D02*
X95590000Y-115727064D01*
X86022936Y-111410000D02*
X87477064Y-111410000D01*
X86022936Y-109590000D02*
X87477064Y-109590000D01*
X89090000Y-95727064D02*
X89090000Y-94272936D01*
X90910000Y-95727064D02*
X90910000Y-94272936D01*
X98650000Y-108390000D02*
X96850000Y-108390000D01*
X96850000Y-111610000D02*
X99300000Y-111610000D01*
X72000000Y-62000000D02*
X107000000Y-62000000D01*
X72000000Y-62000000D02*
X72000000Y-87000000D01*
X72000000Y-87000000D02*
X107000000Y-87000000D01*
X107000000Y-62000000D02*
X107000000Y-87000000D01*
X72000000Y-87000000D02*
X72000000Y-89400000D01*
X72000000Y-89400000D02*
X76800000Y-89400000D01*
X76800000Y-89400000D02*
X76800000Y-87000000D01*
X50250000Y-81150000D02*
X51400000Y-81150000D01*
X50250000Y-73850000D02*
X50250000Y-81150000D01*
X55750000Y-73850000D02*
X55750000Y-81150000D01*
X76150000Y-60750000D02*
X68850000Y-60750000D01*
X76150000Y-55250000D02*
X68850000Y-55250000D01*
X68850000Y-55250000D02*
X68850000Y-56400000D01*
X103850000Y-55250000D02*
X103850000Y-56400000D01*
X111150000Y-55250000D02*
X103850000Y-55250000D01*
X111150000Y-60750000D02*
X103850000Y-60750000D01*
X124250000Y-81150000D02*
X124250000Y-73850000D01*
X129750000Y-81150000D02*
X129750000Y-73850000D01*
X129750000Y-73850000D02*
X128600000Y-73850000D01*
X96100000Y-54620000D02*
X95900000Y-54620000D01*
X98900000Y-50480000D02*
X98700000Y-50270000D01*
X97600000Y-50480000D02*
X97800000Y-50270000D01*
X98900000Y-51770000D02*
X98900000Y-50480000D01*
X98700000Y-50270000D02*
X97800000Y-50270000D01*
X97600000Y-50480000D02*
X97600000Y-51770000D01*
X100350000Y-51770000D02*
X94650000Y-51770000D01*
X99100000Y-54620000D02*
X97400000Y-54620000D01*
X100950000Y-53570000D02*
X100950000Y-52780000D01*
X94050000Y-52780000D02*
X94050000Y-53570000D01*
X92400000Y-60635000D02*
X96285000Y-60635000D01*
X96285000Y-60635000D02*
X96285000Y-58365000D01*
X96285000Y-58365000D02*
X92400000Y-58365000D01*
X124250000Y-116150000D02*
X124250000Y-108850000D01*
X129750000Y-116150000D02*
X129750000Y-108850000D01*
X129750000Y-108850000D02*
X128600000Y-108850000D01*
X111150000Y-134750000D02*
X111150000Y-133600000D01*
X103850000Y-134750000D02*
X111150000Y-134750000D01*
X103850000Y-129250000D02*
X111150000Y-129250000D01*
X68850000Y-129250000D02*
X76150000Y-129250000D01*
X68850000Y-134750000D02*
X76150000Y-134750000D01*
X76150000Y-134750000D02*
X76150000Y-133600000D01*
X49250000Y-116150000D02*
X50400000Y-116150000D01*
X49250000Y-108850000D02*
X49250000Y-116150000D01*
X54750000Y-108850000D02*
X54750000Y-116150000D01*
D10*
X77916666Y-100404761D02*
X78059523Y-100452380D01*
X78297619Y-100452380D01*
X78392857Y-100404761D01*
X78440476Y-100357142D01*
X78488095Y-100261904D01*
X78488095Y-100166666D01*
X78440476Y-100071428D01*
X78392857Y-100023809D01*
X78297619Y-99976190D01*
X78107142Y-99928571D01*
X78011904Y-99880952D01*
X77964285Y-99833333D01*
X77916666Y-99738095D01*
X77916666Y-99642857D01*
X77964285Y-99547619D01*
X78011904Y-99500000D01*
X78107142Y-99452380D01*
X78345238Y-99452380D01*
X78488095Y-99500000D01*
X78821428Y-99452380D02*
X79059523Y-100452380D01*
X79250000Y-99738095D01*
X79440476Y-100452380D01*
X79678571Y-99452380D01*
X80011904Y-99547619D02*
X80059523Y-99500000D01*
X80154761Y-99452380D01*
X80392857Y-99452380D01*
X80488095Y-99500000D01*
X80535714Y-99547619D01*
X80583333Y-99642857D01*
X80583333Y-99738095D01*
X80535714Y-99880952D01*
X79964285Y-100452380D01*
X80583333Y-100452380D01*
X103457142Y-106916666D02*
X103504761Y-106964285D01*
X103552380Y-107107142D01*
X103552380Y-107202380D01*
X103504761Y-107345238D01*
X103409523Y-107440476D01*
X103314285Y-107488095D01*
X103123809Y-107535714D01*
X102980952Y-107535714D01*
X102790476Y-107488095D01*
X102695238Y-107440476D01*
X102600000Y-107345238D01*
X102552380Y-107202380D01*
X102552380Y-107107142D01*
X102600000Y-106964285D01*
X102647619Y-106916666D01*
X102647619Y-106535714D02*
X102600000Y-106488095D01*
X102552380Y-106392857D01*
X102552380Y-106154761D01*
X102600000Y-106059523D01*
X102647619Y-106011904D01*
X102742857Y-105964285D01*
X102838095Y-105964285D01*
X102980952Y-106011904D01*
X103552380Y-106583333D01*
X103552380Y-105964285D01*
X78738095Y-109382380D02*
X78738095Y-110191904D01*
X78785714Y-110287142D01*
X78833333Y-110334761D01*
X78928571Y-110382380D01*
X79119047Y-110382380D01*
X79214285Y-110334761D01*
X79261904Y-110287142D01*
X79309523Y-110191904D01*
X79309523Y-109382380D01*
X79738095Y-109477619D02*
X79785714Y-109430000D01*
X79880952Y-109382380D01*
X80119047Y-109382380D01*
X80214285Y-109430000D01*
X80261904Y-109477619D01*
X80309523Y-109572857D01*
X80309523Y-109668095D01*
X80261904Y-109810952D01*
X79690476Y-110382380D01*
X80309523Y-110382380D01*
X84666666Y-60952380D02*
X84666666Y-61666666D01*
X84619047Y-61809523D01*
X84523809Y-61904761D01*
X84380952Y-61952380D01*
X84285714Y-61952380D01*
X85666666Y-61952380D02*
X85095238Y-61952380D01*
X85380952Y-61952380D02*
X85380952Y-60952380D01*
X85285714Y-61095238D01*
X85190476Y-61190476D01*
X85095238Y-61238095D01*
X92007142Y-113166666D02*
X92054761Y-113214285D01*
X92102380Y-113357142D01*
X92102380Y-113452380D01*
X92054761Y-113595238D01*
X91959523Y-113690476D01*
X91864285Y-113738095D01*
X91673809Y-113785714D01*
X91530952Y-113785714D01*
X91340476Y-113738095D01*
X91245238Y-113690476D01*
X91150000Y-113595238D01*
X91102380Y-113452380D01*
X91102380Y-113357142D01*
X91150000Y-113214285D01*
X91197619Y-113166666D01*
X92102380Y-112214285D02*
X92102380Y-112785714D01*
X92102380Y-112500000D02*
X91102380Y-112500000D01*
X91245238Y-112595238D01*
X91340476Y-112690476D01*
X91388095Y-112785714D01*
X78416666Y-116167380D02*
X78416666Y-116881666D01*
X78369047Y-117024523D01*
X78273809Y-117119761D01*
X78130952Y-117167380D01*
X78035714Y-117167380D01*
X78845238Y-116262619D02*
X78892857Y-116215000D01*
X78988095Y-116167380D01*
X79226190Y-116167380D01*
X79321428Y-116215000D01*
X79369047Y-116262619D01*
X79416666Y-116357857D01*
X79416666Y-116453095D01*
X79369047Y-116595952D01*
X78797619Y-117167380D01*
X79416666Y-117167380D01*
X99333333Y-58132380D02*
X99000000Y-57656190D01*
X98761904Y-58132380D02*
X98761904Y-57132380D01*
X99142857Y-57132380D01*
X99238095Y-57180000D01*
X99285714Y-57227619D01*
X99333333Y-57322857D01*
X99333333Y-57465714D01*
X99285714Y-57560952D01*
X99238095Y-57608571D01*
X99142857Y-57656190D01*
X98761904Y-57656190D01*
X100285714Y-58132380D02*
X99714285Y-58132380D01*
X100000000Y-58132380D02*
X100000000Y-57132380D01*
X99904761Y-57275238D01*
X99809523Y-57370476D01*
X99714285Y-57418095D01*
X98772380Y-115166666D02*
X98296190Y-115500000D01*
X98772380Y-115738095D02*
X97772380Y-115738095D01*
X97772380Y-115357142D01*
X97820000Y-115261904D01*
X97867619Y-115214285D01*
X97962857Y-115166666D01*
X98105714Y-115166666D01*
X98200952Y-115214285D01*
X98248571Y-115261904D01*
X98296190Y-115357142D01*
X98296190Y-115738095D01*
X97867619Y-114785714D02*
X97820000Y-114738095D01*
X97772380Y-114642857D01*
X97772380Y-114404761D01*
X97820000Y-114309523D01*
X97867619Y-114261904D01*
X97962857Y-114214285D01*
X98058095Y-114214285D01*
X98200952Y-114261904D01*
X98772380Y-114833333D01*
X98772380Y-114214285D01*
X86583333Y-109132380D02*
X86250000Y-108656190D01*
X86011904Y-109132380D02*
X86011904Y-108132380D01*
X86392857Y-108132380D01*
X86488095Y-108180000D01*
X86535714Y-108227619D01*
X86583333Y-108322857D01*
X86583333Y-108465714D01*
X86535714Y-108560952D01*
X86488095Y-108608571D01*
X86392857Y-108656190D01*
X86011904Y-108656190D01*
X86916666Y-108132380D02*
X87535714Y-108132380D01*
X87202380Y-108513333D01*
X87345238Y-108513333D01*
X87440476Y-108560952D01*
X87488095Y-108608571D01*
X87535714Y-108703809D01*
X87535714Y-108941904D01*
X87488095Y-109037142D01*
X87440476Y-109084761D01*
X87345238Y-109132380D01*
X87059523Y-109132380D01*
X86964285Y-109084761D01*
X86916666Y-109037142D01*
X87632380Y-96285714D02*
X87632380Y-95714285D01*
X88632380Y-96000000D02*
X87632380Y-96000000D01*
X88632380Y-95380952D02*
X87632380Y-95380952D01*
X88108571Y-95380952D02*
X88108571Y-94809523D01*
X88632380Y-94809523D02*
X87632380Y-94809523D01*
X88632380Y-93809523D02*
X88632380Y-94380952D01*
X88632380Y-94095238D02*
X87632380Y-94095238D01*
X87775238Y-94190476D01*
X87870476Y-94285714D01*
X87918095Y-94380952D01*
X96988095Y-112352380D02*
X96988095Y-113161904D01*
X97035714Y-113257142D01*
X97083333Y-113304761D01*
X97178571Y-113352380D01*
X97369047Y-113352380D01*
X97464285Y-113304761D01*
X97511904Y-113257142D01*
X97559523Y-113161904D01*
X97559523Y-112352380D01*
X98559523Y-113352380D02*
X97988095Y-113352380D01*
X98273809Y-113352380D02*
X98273809Y-112352380D01*
X98178571Y-112495238D01*
X98083333Y-112590476D01*
X97988095Y-112638095D01*
X91214285Y-58928571D02*
X91357142Y-58976190D01*
X91404761Y-59023809D01*
X91452380Y-59119047D01*
X91452380Y-59261904D01*
X91404761Y-59357142D01*
X91357142Y-59404761D01*
X91261904Y-59452380D01*
X90880952Y-59452380D01*
X90880952Y-58452380D01*
X91214285Y-58452380D01*
X91309523Y-58500000D01*
X91357142Y-58547619D01*
X91404761Y-58642857D01*
X91404761Y-58738095D01*
X91357142Y-58833333D01*
X91309523Y-58880952D01*
X91214285Y-58928571D01*
X90880952Y-58928571D01*
X91738095Y-58452380D02*
X92309523Y-58452380D01*
X92023809Y-59452380D02*
X92023809Y-58452380D01*
X93166666Y-59452380D02*
X92595238Y-59452380D01*
X92880952Y-59452380D02*
X92880952Y-58452380D01*
X92785714Y-58595238D01*
X92690476Y-58690476D01*
X92595238Y-58738095D01*
X56952380Y-78238095D02*
X55952380Y-78238095D01*
X55952380Y-78000000D01*
X56000000Y-77857142D01*
X56095238Y-77761904D01*
X56190476Y-77714285D01*
X56380952Y-77666666D01*
X56523809Y-77666666D01*
X56714285Y-77714285D01*
X56809523Y-77761904D01*
X56904761Y-77857142D01*
X56952380Y-78000000D01*
X56952380Y-78238095D01*
X56047619Y-77285714D02*
X56000000Y-77238095D01*
X55952380Y-77142857D01*
X55952380Y-76904761D01*
X56000000Y-76809523D01*
X56047619Y-76761904D01*
X56142857Y-76714285D01*
X56238095Y-76714285D01*
X56380952Y-76761904D01*
X56952380Y-77333333D01*
X56952380Y-76714285D01*
X71761904Y-61952380D02*
X71761904Y-60952380D01*
X72000000Y-60952380D01*
X72142857Y-61000000D01*
X72238095Y-61095238D01*
X72285714Y-61190476D01*
X72333333Y-61380952D01*
X72333333Y-61523809D01*
X72285714Y-61714285D01*
X72238095Y-61809523D01*
X72142857Y-61904761D01*
X72000000Y-61952380D01*
X71761904Y-61952380D01*
X72666666Y-60952380D02*
X73285714Y-60952380D01*
X72952380Y-61333333D01*
X73095238Y-61333333D01*
X73190476Y-61380952D01*
X73238095Y-61428571D01*
X73285714Y-61523809D01*
X73285714Y-61761904D01*
X73238095Y-61857142D01*
X73190476Y-61904761D01*
X73095238Y-61952380D01*
X72809523Y-61952380D01*
X72714285Y-61904761D01*
X72666666Y-61857142D01*
X106761904Y-61952380D02*
X106761904Y-60952380D01*
X107000000Y-60952380D01*
X107142857Y-61000000D01*
X107238095Y-61095238D01*
X107285714Y-61190476D01*
X107333333Y-61380952D01*
X107333333Y-61523809D01*
X107285714Y-61714285D01*
X107238095Y-61809523D01*
X107142857Y-61904761D01*
X107000000Y-61952380D01*
X106761904Y-61952380D01*
X108190476Y-61285714D02*
X108190476Y-61952380D01*
X107952380Y-60904761D02*
X107714285Y-61619047D01*
X108333333Y-61619047D01*
X123952380Y-78238095D02*
X122952380Y-78238095D01*
X122952380Y-78000000D01*
X123000000Y-77857142D01*
X123095238Y-77761904D01*
X123190476Y-77714285D01*
X123380952Y-77666666D01*
X123523809Y-77666666D01*
X123714285Y-77714285D01*
X123809523Y-77761904D01*
X123904761Y-77857142D01*
X123952380Y-78000000D01*
X123952380Y-78238095D01*
X122952380Y-76761904D02*
X122952380Y-77238095D01*
X123428571Y-77285714D01*
X123380952Y-77238095D01*
X123333333Y-77142857D01*
X123333333Y-76904761D01*
X123380952Y-76809523D01*
X123428571Y-76761904D01*
X123523809Y-76714285D01*
X123761904Y-76714285D01*
X123857142Y-76761904D01*
X123904761Y-76809523D01*
X123952380Y-76904761D01*
X123952380Y-77142857D01*
X123904761Y-77238095D01*
X123857142Y-77285714D01*
X96166666Y-57104761D02*
X96309523Y-57152380D01*
X96547619Y-57152380D01*
X96642857Y-57104761D01*
X96690476Y-57057142D01*
X96738095Y-56961904D01*
X96738095Y-56866666D01*
X96690476Y-56771428D01*
X96642857Y-56723809D01*
X96547619Y-56676190D01*
X96357142Y-56628571D01*
X96261904Y-56580952D01*
X96214285Y-56533333D01*
X96166666Y-56438095D01*
X96166666Y-56342857D01*
X96214285Y-56247619D01*
X96261904Y-56200000D01*
X96357142Y-56152380D01*
X96595238Y-56152380D01*
X96738095Y-56200000D01*
X97071428Y-56152380D02*
X97309523Y-57152380D01*
X97500000Y-56438095D01*
X97690476Y-57152380D01*
X97928571Y-56152380D01*
X98833333Y-57152380D02*
X98261904Y-57152380D01*
X98547619Y-57152380D02*
X98547619Y-56152380D01*
X98452380Y-56295238D01*
X98357142Y-56390476D01*
X98261904Y-56438095D01*
X93261904Y-61772380D02*
X93261904Y-60772380D01*
X93500000Y-60772380D01*
X93642857Y-60820000D01*
X93738095Y-60915238D01*
X93785714Y-61010476D01*
X93833333Y-61200952D01*
X93833333Y-61343809D01*
X93785714Y-61534285D01*
X93738095Y-61629523D01*
X93642857Y-61724761D01*
X93500000Y-61772380D01*
X93261904Y-61772380D01*
X94785714Y-61772380D02*
X94214285Y-61772380D01*
X94500000Y-61772380D02*
X94500000Y-60772380D01*
X94404761Y-60915238D01*
X94309523Y-61010476D01*
X94214285Y-61058095D01*
X123952380Y-113238095D02*
X122952380Y-113238095D01*
X122952380Y-113000000D01*
X123000000Y-112857142D01*
X123095238Y-112761904D01*
X123190476Y-112714285D01*
X123380952Y-112666666D01*
X123523809Y-112666666D01*
X123714285Y-112714285D01*
X123809523Y-112761904D01*
X123904761Y-112857142D01*
X123952380Y-113000000D01*
X123952380Y-113238095D01*
X122952380Y-111809523D02*
X122952380Y-112000000D01*
X123000000Y-112095238D01*
X123047619Y-112142857D01*
X123190476Y-112238095D01*
X123380952Y-112285714D01*
X123761904Y-112285714D01*
X123857142Y-112238095D01*
X123904761Y-112190476D01*
X123952380Y-112095238D01*
X123952380Y-111904761D01*
X123904761Y-111809523D01*
X123857142Y-111761904D01*
X123761904Y-111714285D01*
X123523809Y-111714285D01*
X123428571Y-111761904D01*
X123380952Y-111809523D01*
X123333333Y-111904761D01*
X123333333Y-112095238D01*
X123380952Y-112190476D01*
X123428571Y-112238095D01*
X123523809Y-112285714D01*
X106761904Y-128952380D02*
X106761904Y-127952380D01*
X107000000Y-127952380D01*
X107142857Y-128000000D01*
X107238095Y-128095238D01*
X107285714Y-128190476D01*
X107333333Y-128380952D01*
X107333333Y-128523809D01*
X107285714Y-128714285D01*
X107238095Y-128809523D01*
X107142857Y-128904761D01*
X107000000Y-128952380D01*
X106761904Y-128952380D01*
X107666666Y-127952380D02*
X108333333Y-127952380D01*
X107904761Y-128952380D01*
X71761904Y-128952380D02*
X71761904Y-127952380D01*
X72000000Y-127952380D01*
X72142857Y-128000000D01*
X72238095Y-128095238D01*
X72285714Y-128190476D01*
X72333333Y-128380952D01*
X72333333Y-128523809D01*
X72285714Y-128714285D01*
X72238095Y-128809523D01*
X72142857Y-128904761D01*
X72000000Y-128952380D01*
X71761904Y-128952380D01*
X72904761Y-128380952D02*
X72809523Y-128333333D01*
X72761904Y-128285714D01*
X72714285Y-128190476D01*
X72714285Y-128142857D01*
X72761904Y-128047619D01*
X72809523Y-128000000D01*
X72904761Y-127952380D01*
X73095238Y-127952380D01*
X73190476Y-128000000D01*
X73238095Y-128047619D01*
X73285714Y-128142857D01*
X73285714Y-128190476D01*
X73238095Y-128285714D01*
X73190476Y-128333333D01*
X73095238Y-128380952D01*
X72904761Y-128380952D01*
X72809523Y-128428571D01*
X72761904Y-128476190D01*
X72714285Y-128571428D01*
X72714285Y-128761904D01*
X72761904Y-128857142D01*
X72809523Y-128904761D01*
X72904761Y-128952380D01*
X73095238Y-128952380D01*
X73190476Y-128904761D01*
X73238095Y-128857142D01*
X73285714Y-128761904D01*
X73285714Y-128571428D01*
X73238095Y-128476190D01*
X73190476Y-128428571D01*
X73095238Y-128380952D01*
X55952380Y-113238095D02*
X54952380Y-113238095D01*
X54952380Y-113000000D01*
X55000000Y-112857142D01*
X55095238Y-112761904D01*
X55190476Y-112714285D01*
X55380952Y-112666666D01*
X55523809Y-112666666D01*
X55714285Y-112714285D01*
X55809523Y-112761904D01*
X55904761Y-112857142D01*
X55952380Y-113000000D01*
X55952380Y-113238095D01*
X55952380Y-112190476D02*
X55952380Y-112000000D01*
X55904761Y-111904761D01*
X55857142Y-111857142D01*
X55714285Y-111761904D01*
X55523809Y-111714285D01*
X55142857Y-111714285D01*
X55047619Y-111761904D01*
X55000000Y-111809523D01*
X54952380Y-111904761D01*
X54952380Y-112095238D01*
X55000000Y-112190476D01*
X55047619Y-112238095D01*
X55142857Y-112285714D01*
X55380952Y-112285714D01*
X55476190Y-112238095D01*
X55523809Y-112190476D01*
X55571428Y-112095238D01*
X55571428Y-111904761D01*
X55523809Y-111809523D01*
X55476190Y-111761904D01*
X55380952Y-111714285D01*
%LPC*%
D13*
X76100000Y-94350000D03*
X82400000Y-94350000D03*
X76100000Y-98150000D03*
X82400000Y-98150000D03*
G36*
G01*
X100599999Y-104700000D02*
X101900001Y-104700000D01*
G75*
G02*
X102150000Y-104949999I0J-249999D01*
G01*
X102150000Y-105600001D01*
G75*
G02*
X101900001Y-105850000I-249999J0D01*
G01*
X100599999Y-105850000D01*
G75*
G02*
X100350000Y-105600001I0J249999D01*
G01*
X100350000Y-104949999D01*
G75*
G02*
X100599999Y-104700000I249999J0D01*
G01*
G37*
G36*
G01*
X100599999Y-107650000D02*
X101900001Y-107650000D01*
G75*
G02*
X102150000Y-107899999I0J-249999D01*
G01*
X102150000Y-108550001D01*
G75*
G02*
X101900001Y-108800000I-249999J0D01*
G01*
X100599999Y-108800000D01*
G75*
G02*
X100350000Y-108550001I0J249999D01*
G01*
X100350000Y-107899999D01*
G75*
G02*
X100599999Y-107650000I249999J0D01*
G01*
G37*
D14*
X83150000Y-108155000D03*
X83150000Y-106885000D03*
X83150000Y-105615000D03*
X83150000Y-104345000D03*
X75850000Y-104345000D03*
X75850000Y-105615000D03*
X75850000Y-106885000D03*
X75850000Y-108155000D03*
D15*
X86600000Y-59200000D03*
X85800000Y-59200000D03*
X85000000Y-59200000D03*
X84200000Y-59200000D03*
X83400000Y-59200000D03*
D16*
X89450000Y-59100000D03*
X89450000Y-53650000D03*
X80550000Y-59100000D03*
X80550000Y-53650000D03*
D17*
X87200000Y-56500000D03*
X82800000Y-56500000D03*
G36*
G01*
X94150001Y-112100000D02*
X92849999Y-112100000D01*
G75*
G02*
X92600000Y-111850001I0J249999D01*
G01*
X92600000Y-111199999D01*
G75*
G02*
X92849999Y-110950000I249999J0D01*
G01*
X94150001Y-110950000D01*
G75*
G02*
X94400000Y-111199999I0J-249999D01*
G01*
X94400000Y-111850001D01*
G75*
G02*
X94150001Y-112100000I-249999J0D01*
G01*
G37*
G36*
G01*
X94150001Y-115050000D02*
X92849999Y-115050000D01*
G75*
G02*
X92600000Y-114800001I0J249999D01*
G01*
X92600000Y-114149999D01*
G75*
G02*
X92849999Y-113900000I249999J0D01*
G01*
X94150001Y-113900000D01*
G75*
G02*
X94400000Y-114149999I0J-249999D01*
G01*
X94400000Y-114800001D01*
G75*
G02*
X94150001Y-115050000I-249999J0D01*
G01*
G37*
D18*
X80700000Y-115020000D03*
X76800000Y-115020000D03*
X80700000Y-113750000D03*
X76800000Y-113750000D03*
X80700000Y-112480000D03*
X76800000Y-112480000D03*
G36*
G01*
X100400000Y-60125003D02*
X100400000Y-58874997D01*
G75*
G02*
X100649997Y-58625000I249997J0D01*
G01*
X101275003Y-58625000D01*
G75*
G02*
X101525000Y-58874997I0J-249997D01*
G01*
X101525000Y-60125003D01*
G75*
G02*
X101275003Y-60375000I-249997J0D01*
G01*
X100649997Y-60375000D01*
G75*
G02*
X100400000Y-60125003I0J249997D01*
G01*
G37*
G36*
G01*
X97475000Y-60125003D02*
X97475000Y-58874997D01*
G75*
G02*
X97724997Y-58625000I249997J0D01*
G01*
X98350003Y-58625000D01*
G75*
G02*
X98600000Y-58874997I0J-249997D01*
G01*
X98600000Y-60125003D01*
G75*
G02*
X98350003Y-60375000I-249997J0D01*
G01*
X97724997Y-60375000D01*
G75*
G02*
X97475000Y-60125003I0J249997D01*
G01*
G37*
G36*
G01*
X95874997Y-112975000D02*
X97125003Y-112975000D01*
G75*
G02*
X97375000Y-113224997I0J-249997D01*
G01*
X97375000Y-113850003D01*
G75*
G02*
X97125003Y-114100000I-249997J0D01*
G01*
X95874997Y-114100000D01*
G75*
G02*
X95625000Y-113850003I0J249997D01*
G01*
X95625000Y-113224997D01*
G75*
G02*
X95874997Y-112975000I249997J0D01*
G01*
G37*
G36*
G01*
X95874997Y-115900000D02*
X97125003Y-115900000D01*
G75*
G02*
X97375000Y-116149997I0J-249997D01*
G01*
X97375000Y-116775003D01*
G75*
G02*
X97125003Y-117025000I-249997J0D01*
G01*
X95874997Y-117025000D01*
G75*
G02*
X95625000Y-116775003I0J249997D01*
G01*
X95625000Y-116149997D01*
G75*
G02*
X95874997Y-115900000I249997J0D01*
G01*
G37*
G36*
G01*
X87650000Y-111125003D02*
X87650000Y-109874997D01*
G75*
G02*
X87899997Y-109625000I249997J0D01*
G01*
X88525003Y-109625000D01*
G75*
G02*
X88775000Y-109874997I0J-249997D01*
G01*
X88775000Y-111125003D01*
G75*
G02*
X88525003Y-111375000I-249997J0D01*
G01*
X87899997Y-111375000D01*
G75*
G02*
X87650000Y-111125003I0J249997D01*
G01*
G37*
G36*
G01*
X84725000Y-111125003D02*
X84725000Y-109874997D01*
G75*
G02*
X84974997Y-109625000I249997J0D01*
G01*
X85600003Y-109625000D01*
G75*
G02*
X85850000Y-109874997I0J-249997D01*
G01*
X85850000Y-111125003D01*
G75*
G02*
X85600003Y-111375000I-249997J0D01*
G01*
X84974997Y-111375000D01*
G75*
G02*
X84725000Y-111125003I0J249997D01*
G01*
G37*
G36*
G01*
X90625003Y-97025000D02*
X89374997Y-97025000D01*
G75*
G02*
X89125000Y-96775003I0J249997D01*
G01*
X89125000Y-96149997D01*
G75*
G02*
X89374997Y-95900000I249997J0D01*
G01*
X90625003Y-95900000D01*
G75*
G02*
X90875000Y-96149997I0J-249997D01*
G01*
X90875000Y-96775003D01*
G75*
G02*
X90625003Y-97025000I-249997J0D01*
G01*
G37*
G36*
G01*
X90625003Y-94100000D02*
X89374997Y-94100000D01*
G75*
G02*
X89125000Y-93850003I0J249997D01*
G01*
X89125000Y-93224997D01*
G75*
G02*
X89374997Y-92975000I249997J0D01*
G01*
X90625003Y-92975000D01*
G75*
G02*
X90875000Y-93224997I0J-249997D01*
G01*
X90875000Y-93850003D01*
G75*
G02*
X90625003Y-94100000I-249997J0D01*
G01*
G37*
D19*
X98850000Y-110950000D03*
X98850000Y-110000000D03*
X98850000Y-109050000D03*
X96650000Y-109050000D03*
X96650000Y-110950000D03*
D20*
X106000000Y-90000000D03*
X95500000Y-90000000D03*
D21*
X54600000Y-75050000D03*
X51400000Y-75050000D03*
X54600000Y-79950000D03*
X51400000Y-79950000D03*
D22*
X70050000Y-56400000D03*
X70050000Y-59600000D03*
X74950000Y-56400000D03*
X74950000Y-59600000D03*
X109950000Y-59600000D03*
X109950000Y-56400000D03*
X105050000Y-59600000D03*
X105050000Y-56400000D03*
D21*
X128600000Y-75050000D03*
X125400000Y-75050000D03*
X128600000Y-79950000D03*
X125400000Y-79950000D03*
D23*
X99000000Y-53170000D03*
X96000000Y-53170000D03*
D24*
X99750000Y-54930000D03*
X96750000Y-54930000D03*
X95250000Y-54930000D03*
D25*
X101150000Y-52070000D03*
X93850000Y-52070000D03*
X93850000Y-54280000D03*
X101150000Y-54280000D03*
G36*
G01*
X96025000Y-58875000D02*
X96025000Y-60125000D01*
G75*
G02*
X95775000Y-60375000I-250000J0D01*
G01*
X95025000Y-60375000D01*
G75*
G02*
X94775000Y-60125000I0J250000D01*
G01*
X94775000Y-58875000D01*
G75*
G02*
X95025000Y-58625000I250000J0D01*
G01*
X95775000Y-58625000D01*
G75*
G02*
X96025000Y-58875000I0J-250000D01*
G01*
G37*
G36*
G01*
X93225000Y-58875000D02*
X93225000Y-60125000D01*
G75*
G02*
X92975000Y-60375000I-250000J0D01*
G01*
X92225000Y-60375000D01*
G75*
G02*
X91975000Y-60125000I0J250000D01*
G01*
X91975000Y-58875000D01*
G75*
G02*
X92225000Y-58625000I250000J0D01*
G01*
X92975000Y-58625000D01*
G75*
G02*
X93225000Y-58875000I0J-250000D01*
G01*
G37*
D21*
X128600000Y-110050000D03*
X125400000Y-110050000D03*
X128600000Y-114950000D03*
X125400000Y-114950000D03*
D22*
X105050000Y-130400000D03*
X105050000Y-133600000D03*
X109950000Y-130400000D03*
X109950000Y-133600000D03*
X74950000Y-133600000D03*
X74950000Y-130400000D03*
X70050000Y-133600000D03*
X70050000Y-130400000D03*
D21*
X53600000Y-110050000D03*
X50400000Y-110050000D03*
X53600000Y-114950000D03*
X50400000Y-114950000D03*
M02*
