%FSLAX45Y45*%
G04 Gerber Fmt 4.5, Leading zero omitted, Abs format (unit mm)*
G04 Created by KiCad (PCBNEW (5.1.8)-1) date 2021-04-18 14:38:34*
%MOMM*%
%LPD*%
G01*
G04 APERTURE LIST*
%TA.AperFunction,Profile*%
%ADD10C,0.050000*%
%TD*%
%ADD11C,0.200000*%
%ADD12C,0.300000*%
G04 APERTURE END LIST*
D10*
X5500000Y-14000000D02*
G75*
G02*
X4500000Y-13000000I0J1000000D01*
G01*
X13500000Y-13000000D02*
G75*
G02*
X12500000Y-14000000I-1000000J0D01*
G01*
X12500000Y-5000000D02*
G75*
G02*
X13500000Y-6000000I0J-1000000D01*
G01*
X13500000Y-6000000D02*
X13500000Y-13000000D01*
X5500000Y-14000000D02*
X12500000Y-14000000D01*
X5500000Y-5000000D02*
X12500000Y-5000000D01*
X4500000Y-6000000D02*
G75*
G02*
X5500000Y-5000000I1000000J0D01*
G01*
X4500000Y-6000000D02*
X4500000Y-13000000D01*
D11*
X5005000Y-11655000D02*
X5045000Y-11695000D01*
X5045000Y-11655000D02*
X5005000Y-11695000D01*
X5105000Y-8155000D02*
X5145000Y-8195000D01*
X5145000Y-8155000D02*
X5105000Y-8195000D01*
X6805000Y-5605000D02*
X6845000Y-5645000D01*
X6845000Y-5605000D02*
X6805000Y-5645000D01*
X7305000Y-11130000D02*
X7345000Y-11170000D01*
X7345000Y-11130000D02*
X7305000Y-11170000D01*
X7655000Y-13330000D02*
X7695000Y-13370000D01*
X7695000Y-13330000D02*
X7655000Y-13370000D01*
X7830000Y-5330000D02*
X7870000Y-5370000D01*
X7870000Y-5330000D02*
X7830000Y-5370000D01*
X7830000Y-5905000D02*
X7870000Y-5945000D01*
X7870000Y-5905000D02*
X7830000Y-5945000D01*
X8205000Y-5905000D02*
X8245000Y-5945000D01*
X8245000Y-5905000D02*
X8205000Y-5945000D01*
X8455000Y-10405000D02*
X8495000Y-10445000D01*
X8495000Y-10405000D02*
X8455000Y-10445000D01*
X8805000Y-9330000D02*
X8845000Y-9370000D01*
X8845000Y-9330000D02*
X8805000Y-9370000D01*
X8805000Y-9630000D02*
X8845000Y-9670000D01*
X8845000Y-9630000D02*
X8805000Y-9670000D01*
X8880000Y-9180000D02*
X8920000Y-9220000D01*
X8920000Y-9180000D02*
X8880000Y-9220000D01*
X8880000Y-9780000D02*
X8920000Y-9820000D01*
X8920000Y-9780000D02*
X8880000Y-9820000D01*
X8930000Y-6080000D02*
X8970000Y-6120000D01*
X8970000Y-6080000D02*
X8930000Y-6120000D01*
X9080000Y-9180000D02*
X9120000Y-9220000D01*
X9120000Y-9180000D02*
X9080000Y-9220000D01*
X9080000Y-9780000D02*
X9120000Y-9820000D01*
X9120000Y-9780000D02*
X9080000Y-9820000D01*
X9130000Y-5355000D02*
X9170000Y-5395000D01*
X9170000Y-5355000D02*
X9130000Y-5395000D01*
X9155000Y-9330000D02*
X9195000Y-9370000D01*
X9195000Y-9330000D02*
X9155000Y-9370000D01*
X9155000Y-9630000D02*
X9195000Y-9670000D01*
X9195000Y-9630000D02*
X9155000Y-9670000D01*
X9330000Y-11580000D02*
X9370000Y-11620000D01*
X9370000Y-11580000D02*
X9330000Y-11620000D01*
X9630000Y-11780000D02*
X9670000Y-11820000D01*
X9670000Y-11780000D02*
X9630000Y-11820000D01*
X10030000Y-10980000D02*
X10070000Y-11020000D01*
X10070000Y-10980000D02*
X10030000Y-11020000D01*
X10130000Y-10330000D02*
X10170000Y-10370000D01*
X10170000Y-10330000D02*
X10130000Y-10370000D01*
X10305000Y-5605000D02*
X10345000Y-5645000D01*
X10345000Y-5605000D02*
X10305000Y-5645000D01*
X10580000Y-9205000D02*
X10620000Y-9245000D01*
X10620000Y-9205000D02*
X10580000Y-9245000D01*
X10830000Y-8980000D02*
X10870000Y-9020000D01*
X10870000Y-8980000D02*
X10830000Y-9020000D01*
X11155000Y-13330000D02*
X11195000Y-13370000D01*
X11195000Y-13330000D02*
X11155000Y-13370000D01*
X12830000Y-7305000D02*
X12870000Y-7345000D01*
X12870000Y-7305000D02*
X12830000Y-7345000D01*
X12855000Y-10805000D02*
X12895000Y-10845000D01*
X12895000Y-10805000D02*
X12855000Y-10845000D01*
D12*
X4783928Y-14468214D02*
X4783928Y-14168214D01*
X4855357Y-14168214D01*
X4898214Y-14182500D01*
X4926786Y-14211071D01*
X4941071Y-14239643D01*
X4955357Y-14296786D01*
X4955357Y-14339643D01*
X4941071Y-14396786D01*
X4926786Y-14425357D01*
X4898214Y-14453929D01*
X4855357Y-14468214D01*
X4783928Y-14468214D01*
X5083928Y-14468214D02*
X5083928Y-14268214D01*
X5083928Y-14325357D02*
X5098214Y-14296786D01*
X5112500Y-14282500D01*
X5141071Y-14268214D01*
X5169643Y-14268214D01*
X5269643Y-14468214D02*
X5269643Y-14268214D01*
X5269643Y-14168214D02*
X5255357Y-14182500D01*
X5269643Y-14196786D01*
X5283928Y-14182500D01*
X5269643Y-14168214D01*
X5269643Y-14196786D01*
X5455357Y-14468214D02*
X5426786Y-14453929D01*
X5412500Y-14425357D01*
X5412500Y-14168214D01*
X5612500Y-14468214D02*
X5583928Y-14453929D01*
X5569643Y-14425357D01*
X5569643Y-14168214D01*
X5955357Y-14468214D02*
X5955357Y-14168214D01*
X6055357Y-14382500D01*
X6155357Y-14168214D01*
X6155357Y-14468214D01*
X6426786Y-14468214D02*
X6426786Y-14311071D01*
X6412500Y-14282500D01*
X6383928Y-14268214D01*
X6326786Y-14268214D01*
X6298214Y-14282500D01*
X6426786Y-14453929D02*
X6398214Y-14468214D01*
X6326786Y-14468214D01*
X6298214Y-14453929D01*
X6283928Y-14425357D01*
X6283928Y-14396786D01*
X6298214Y-14368214D01*
X6326786Y-14353929D01*
X6398214Y-14353929D01*
X6426786Y-14339643D01*
X6569643Y-14268214D02*
X6569643Y-14568214D01*
X6569643Y-14282500D02*
X6598214Y-14268214D01*
X6655357Y-14268214D01*
X6683928Y-14282500D01*
X6698214Y-14296786D01*
X6712500Y-14325357D01*
X6712500Y-14411071D01*
X6698214Y-14439643D01*
X6683928Y-14453929D01*
X6655357Y-14468214D01*
X6598214Y-14468214D01*
X6569643Y-14453929D01*
X6841071Y-14439643D02*
X6855357Y-14453929D01*
X6841071Y-14468214D01*
X6826786Y-14453929D01*
X6841071Y-14439643D01*
X6841071Y-14468214D01*
X6841071Y-14282500D02*
X6855357Y-14296786D01*
X6841071Y-14311071D01*
X6826786Y-14296786D01*
X6841071Y-14282500D01*
X6841071Y-14311071D01*
X4457500Y-14942500D02*
X4497500Y-14982500D01*
X4497500Y-14942500D02*
X4457500Y-14982500D01*
X4841071Y-14798214D02*
X4869643Y-14798214D01*
X4898214Y-14812500D01*
X4912500Y-14826786D01*
X4926786Y-14855357D01*
X4941071Y-14912500D01*
X4941071Y-14983929D01*
X4926786Y-15041071D01*
X4912500Y-15069643D01*
X4898214Y-15083929D01*
X4869643Y-15098214D01*
X4841071Y-15098214D01*
X4812500Y-15083929D01*
X4798214Y-15069643D01*
X4783928Y-15041071D01*
X4769643Y-14983929D01*
X4769643Y-14912500D01*
X4783928Y-14855357D01*
X4798214Y-14826786D01*
X4812500Y-14812500D01*
X4841071Y-14798214D01*
X5069643Y-15069643D02*
X5083928Y-15083929D01*
X5069643Y-15098214D01*
X5055357Y-15083929D01*
X5069643Y-15069643D01*
X5069643Y-15098214D01*
X5341071Y-14898214D02*
X5341071Y-15098214D01*
X5269643Y-14783929D02*
X5198214Y-14998214D01*
X5383928Y-14998214D01*
X5555357Y-14798214D02*
X5583928Y-14798214D01*
X5612500Y-14812500D01*
X5626786Y-14826786D01*
X5641071Y-14855357D01*
X5655357Y-14912500D01*
X5655357Y-14983929D01*
X5641071Y-15041071D01*
X5626786Y-15069643D01*
X5612500Y-15083929D01*
X5583928Y-15098214D01*
X5555357Y-15098214D01*
X5526786Y-15083929D01*
X5512500Y-15069643D01*
X5498214Y-15041071D01*
X5483928Y-14983929D01*
X5483928Y-14912500D01*
X5498214Y-14855357D01*
X5512500Y-14826786D01*
X5526786Y-14812500D01*
X5555357Y-14798214D01*
X5783928Y-15098214D02*
X5783928Y-14898214D01*
X5783928Y-14926786D02*
X5798214Y-14912500D01*
X5826786Y-14898214D01*
X5869643Y-14898214D01*
X5898214Y-14912500D01*
X5912500Y-14941071D01*
X5912500Y-15098214D01*
X5912500Y-14941071D02*
X5926786Y-14912500D01*
X5955357Y-14898214D01*
X5998214Y-14898214D01*
X6026786Y-14912500D01*
X6041071Y-14941071D01*
X6041071Y-15098214D01*
X6183928Y-15098214D02*
X6183928Y-14898214D01*
X6183928Y-14926786D02*
X6198214Y-14912500D01*
X6226786Y-14898214D01*
X6269643Y-14898214D01*
X6298214Y-14912500D01*
X6312500Y-14941071D01*
X6312500Y-15098214D01*
X6312500Y-14941071D02*
X6326786Y-14912500D01*
X6355357Y-14898214D01*
X6398214Y-14898214D01*
X6426786Y-14912500D01*
X6441071Y-14941071D01*
X6441071Y-15098214D01*
X7026786Y-14783929D02*
X6769643Y-15169643D01*
X7412500Y-14798214D02*
X7441071Y-14798214D01*
X7469643Y-14812500D01*
X7483928Y-14826786D01*
X7498214Y-14855357D01*
X7512500Y-14912500D01*
X7512500Y-14983929D01*
X7498214Y-15041071D01*
X7483928Y-15069643D01*
X7469643Y-15083929D01*
X7441071Y-15098214D01*
X7412500Y-15098214D01*
X7383928Y-15083929D01*
X7369643Y-15069643D01*
X7355357Y-15041071D01*
X7341071Y-14983929D01*
X7341071Y-14912500D01*
X7355357Y-14855357D01*
X7369643Y-14826786D01*
X7383928Y-14812500D01*
X7412500Y-14798214D01*
X7641071Y-15069643D02*
X7655357Y-15083929D01*
X7641071Y-15098214D01*
X7626786Y-15083929D01*
X7641071Y-15069643D01*
X7641071Y-15098214D01*
X7841071Y-14798214D02*
X7869643Y-14798214D01*
X7898214Y-14812500D01*
X7912500Y-14826786D01*
X7926786Y-14855357D01*
X7941071Y-14912500D01*
X7941071Y-14983929D01*
X7926786Y-15041071D01*
X7912500Y-15069643D01*
X7898214Y-15083929D01*
X7869643Y-15098214D01*
X7841071Y-15098214D01*
X7812500Y-15083929D01*
X7798214Y-15069643D01*
X7783928Y-15041071D01*
X7769643Y-14983929D01*
X7769643Y-14912500D01*
X7783928Y-14855357D01*
X7798214Y-14826786D01*
X7812500Y-14812500D01*
X7841071Y-14798214D01*
X8226786Y-15098214D02*
X8055357Y-15098214D01*
X8141071Y-15098214D02*
X8141071Y-14798214D01*
X8112500Y-14841071D01*
X8083928Y-14869643D01*
X8055357Y-14883929D01*
X8483928Y-14798214D02*
X8426786Y-14798214D01*
X8398214Y-14812500D01*
X8383928Y-14826786D01*
X8355357Y-14869643D01*
X8341071Y-14926786D01*
X8341071Y-15041071D01*
X8355357Y-15069643D01*
X8369643Y-15083929D01*
X8398214Y-15098214D01*
X8455357Y-15098214D01*
X8483928Y-15083929D01*
X8498214Y-15069643D01*
X8512500Y-15041071D01*
X8512500Y-14969643D01*
X8498214Y-14941071D01*
X8483928Y-14926786D01*
X8455357Y-14912500D01*
X8398214Y-14912500D01*
X8369643Y-14926786D01*
X8355357Y-14941071D01*
X8341071Y-14969643D01*
X8626786Y-14798214D02*
X8626786Y-14855357D01*
X8741071Y-14798214D02*
X8741071Y-14855357D01*
X9183928Y-15212500D02*
X9169643Y-15198214D01*
X9141071Y-15155357D01*
X9126786Y-15126786D01*
X9112500Y-15083929D01*
X9098214Y-15012500D01*
X9098214Y-14955357D01*
X9112500Y-14883929D01*
X9126786Y-14841071D01*
X9141071Y-14812500D01*
X9169643Y-14769643D01*
X9183928Y-14755357D01*
X9283928Y-14826786D02*
X9298214Y-14812500D01*
X9326786Y-14798214D01*
X9398214Y-14798214D01*
X9426786Y-14812500D01*
X9441071Y-14826786D01*
X9455357Y-14855357D01*
X9455357Y-14883929D01*
X9441071Y-14926786D01*
X9269643Y-15098214D01*
X9455357Y-15098214D01*
X9598214Y-15098214D02*
X9655357Y-15098214D01*
X9683928Y-15083929D01*
X9698214Y-15069643D01*
X9726786Y-15026786D01*
X9741071Y-14969643D01*
X9741071Y-14855357D01*
X9726786Y-14826786D01*
X9712500Y-14812500D01*
X9683928Y-14798214D01*
X9626786Y-14798214D01*
X9598214Y-14812500D01*
X9583928Y-14826786D01*
X9569643Y-14855357D01*
X9569643Y-14926786D01*
X9583928Y-14955357D01*
X9598214Y-14969643D01*
X9626786Y-14983929D01*
X9683928Y-14983929D01*
X9712500Y-14969643D01*
X9726786Y-14955357D01*
X9741071Y-14926786D01*
X10098214Y-15098214D02*
X10098214Y-14798214D01*
X10226786Y-15098214D02*
X10226786Y-14941071D01*
X10212500Y-14912500D01*
X10183928Y-14898214D01*
X10141071Y-14898214D01*
X10112500Y-14912500D01*
X10098214Y-14926786D01*
X10412500Y-15098214D02*
X10383928Y-15083929D01*
X10369643Y-15069643D01*
X10355357Y-15041071D01*
X10355357Y-14955357D01*
X10369643Y-14926786D01*
X10383928Y-14912500D01*
X10412500Y-14898214D01*
X10455357Y-14898214D01*
X10483928Y-14912500D01*
X10498214Y-14926786D01*
X10512500Y-14955357D01*
X10512500Y-15041071D01*
X10498214Y-15069643D01*
X10483928Y-15083929D01*
X10455357Y-15098214D01*
X10412500Y-15098214D01*
X10683928Y-15098214D02*
X10655357Y-15083929D01*
X10641071Y-15055357D01*
X10641071Y-14798214D01*
X10912500Y-15083929D02*
X10883928Y-15098214D01*
X10826786Y-15098214D01*
X10798214Y-15083929D01*
X10783928Y-15055357D01*
X10783928Y-14941071D01*
X10798214Y-14912500D01*
X10826786Y-14898214D01*
X10883928Y-14898214D01*
X10912500Y-14912500D01*
X10926786Y-14941071D01*
X10926786Y-14969643D01*
X10783928Y-14998214D01*
X11041071Y-15083929D02*
X11069643Y-15098214D01*
X11126786Y-15098214D01*
X11155357Y-15083929D01*
X11169643Y-15055357D01*
X11169643Y-15041071D01*
X11155357Y-15012500D01*
X11126786Y-14998214D01*
X11083928Y-14998214D01*
X11055357Y-14983929D01*
X11041071Y-14955357D01*
X11041071Y-14941071D01*
X11055357Y-14912500D01*
X11083928Y-14898214D01*
X11126786Y-14898214D01*
X11155357Y-14912500D01*
X11269643Y-15212500D02*
X11283928Y-15198214D01*
X11312500Y-15155357D01*
X11326786Y-15126786D01*
X11341071Y-15083929D01*
X11355357Y-15012500D01*
X11355357Y-14955357D01*
X11341071Y-14883929D01*
X11326786Y-14841071D01*
X11312500Y-14812500D01*
X11283928Y-14769643D01*
X11269643Y-14755357D01*
M02*
