G04 #@! TF.GenerationSoftware,KiCad,Pcbnew,(5.1.8)-1*
G04 #@! TF.CreationDate,2021-04-18T14:37:25+02:00*
G04 #@! TF.ProjectId,Coaster_LiPo,436f6173-7465-4725-9f4c-69506f2e6b69,D*
G04 #@! TF.SameCoordinates,Original*
G04 #@! TF.FileFunction,Legend,Bot*
G04 #@! TF.FilePolarity,Positive*
%FSLAX46Y46*%
G04 Gerber Fmt 4.6, Leading zero omitted, Abs format (unit mm)*
G04 Created by KiCad (PCBNEW (5.1.8)-1) date 2021-04-18 14:37:25*
%MOMM*%
%LPD*%
G01*
G04 APERTURE LIST*
%ADD10C,0.010000*%
%ADD11C,1.000000*%
%ADD12C,0.900000*%
G04 APERTURE END LIST*
D10*
G36*
X77778272Y-50401230D02*
G01*
X77597353Y-50993254D01*
X77186027Y-51853779D01*
X76605095Y-52875562D01*
X75915359Y-53951364D01*
X75177620Y-54973943D01*
X74481708Y-55804877D01*
X73215105Y-57366733D01*
X72328144Y-58964297D01*
X72051923Y-59645537D01*
X71544228Y-60944569D01*
X70910854Y-62475654D01*
X70279958Y-63929781D01*
X70216216Y-64071765D01*
X69491468Y-65919427D01*
X69160579Y-67386880D01*
X69134825Y-67835854D01*
X69012368Y-68942950D01*
X68712288Y-69996750D01*
X68608235Y-70226442D01*
X68398508Y-70757802D01*
X68236343Y-71492153D01*
X68111030Y-72523209D01*
X68011857Y-73944685D01*
X67928115Y-75850295D01*
X67911392Y-76323529D01*
X67841284Y-78045736D01*
X67757504Y-79591353D01*
X67667800Y-80847487D01*
X67579917Y-81701241D01*
X67521522Y-82005094D01*
X67120944Y-82564574D01*
X66444418Y-83100327D01*
X66400408Y-83126141D01*
X65495263Y-83645623D01*
X65644020Y-87156341D01*
X65778264Y-89482872D01*
X65978091Y-91384794D01*
X66269143Y-93033813D01*
X66677066Y-94601629D01*
X66829115Y-95091320D01*
X67289745Y-96527346D01*
X66547478Y-96809555D01*
X65826757Y-97026183D01*
X65386943Y-97091765D01*
X64931001Y-97254729D01*
X64619245Y-97782360D01*
X64439833Y-98732761D01*
X64380926Y-100164037D01*
X64418435Y-101844338D01*
X64533941Y-103757299D01*
X64722773Y-105242978D01*
X65010716Y-106469845D01*
X65223276Y-107102353D01*
X65716405Y-108506986D01*
X65973932Y-109497342D01*
X66007495Y-110203250D01*
X65828731Y-110754543D01*
X65583249Y-111118288D01*
X65175787Y-111563918D01*
X64764753Y-111700354D01*
X64111202Y-111575629D01*
X63783783Y-111480016D01*
X62852101Y-111091167D01*
X62084362Y-110589321D01*
X61960057Y-110470675D01*
X61546016Y-110119220D01*
X61362302Y-110147182D01*
X61361765Y-110160726D01*
X61623886Y-110796536D01*
X62345363Y-111565458D01*
X63428861Y-112383162D01*
X64777047Y-113165318D01*
X64902291Y-113228235D01*
X65967750Y-113775442D01*
X66622990Y-114199730D01*
X66998957Y-114631803D01*
X67226598Y-115202365D01*
X67347207Y-115668640D01*
X67521782Y-116779338D01*
X67363024Y-117626122D01*
X66798008Y-118409422D01*
X66126750Y-119023062D01*
X65476428Y-119480597D01*
X64770718Y-119719319D01*
X63777856Y-119805146D01*
X63355896Y-119811112D01*
X61511176Y-119819872D01*
X62501850Y-120720792D01*
X63086325Y-121206510D01*
X63621226Y-121466501D01*
X64316339Y-121557986D01*
X65381449Y-121538189D01*
X65482471Y-121533797D01*
X66573795Y-121461929D01*
X67227567Y-121329529D01*
X67603863Y-121080695D01*
X67656378Y-120997647D01*
X69728823Y-120997647D01*
X69830777Y-121288701D01*
X69860600Y-121296471D01*
X70115726Y-121087074D01*
X70177059Y-120997647D01*
X70153366Y-120722286D01*
X70045283Y-120698823D01*
X69740984Y-120915743D01*
X69728823Y-120997647D01*
X67656378Y-120997647D01*
X67837385Y-120711404D01*
X68317883Y-120077833D01*
X68778498Y-119763794D01*
X69236980Y-119313829D01*
X69548788Y-118484932D01*
X69658948Y-117488745D01*
X69567853Y-116725039D01*
X69574072Y-115941235D01*
X69849199Y-114969083D01*
X69904338Y-114839499D01*
X70422161Y-113676471D01*
X70695929Y-115021176D01*
X70918958Y-116424668D01*
X71020267Y-117753796D01*
X71001087Y-118875890D01*
X70862654Y-119658277D01*
X70650031Y-119957942D01*
X70399905Y-120211844D01*
X70540154Y-120434389D01*
X70655823Y-120936699D01*
X70367890Y-121687481D01*
X69758614Y-122587182D01*
X68910254Y-123536251D01*
X67905069Y-124435137D01*
X66825320Y-125184286D01*
X66441765Y-125394335D01*
X65599110Y-125864386D01*
X64908390Y-126321475D01*
X64841568Y-126373896D01*
X64345343Y-126666427D01*
X64094510Y-126675294D01*
X63913302Y-126805147D01*
X63803986Y-127215703D01*
X63563270Y-127735884D01*
X63165128Y-127795439D01*
X62769986Y-127439858D01*
X62559361Y-126862786D01*
X62407647Y-126011694D01*
X61838392Y-126642318D01*
X61538538Y-127084759D01*
X61609088Y-127272869D01*
X61614274Y-127272941D01*
X61856521Y-127532390D01*
X61959382Y-128157592D01*
X61959412Y-128169412D01*
X61859765Y-128833019D01*
X61503770Y-129060637D01*
X61398354Y-129065882D01*
X60738111Y-129282917D01*
X60465294Y-129514118D01*
X59907395Y-129845666D01*
X59233411Y-129962353D01*
X58632364Y-130029324D01*
X58408916Y-130186471D01*
X58354015Y-130885340D01*
X57892030Y-131153540D01*
X57793518Y-131157647D01*
X57214721Y-131304756D01*
X57016233Y-131476842D01*
X56608890Y-131670192D01*
X56385430Y-131629677D01*
X56093438Y-131612829D01*
X56113542Y-131724858D01*
X56058096Y-132107526D01*
X55869887Y-132322767D01*
X55430866Y-132482206D01*
X55100392Y-132220304D01*
X54883188Y-131711447D01*
X54928969Y-131469560D01*
X54969540Y-131193679D01*
X54695896Y-131202879D01*
X54305486Y-131473401D01*
X54233699Y-131553228D01*
X54066857Y-132019629D01*
X54236789Y-132280200D01*
X54427148Y-132811422D01*
X54375554Y-133113568D01*
X54135779Y-133444791D01*
X53746340Y-133253188D01*
X53738229Y-133246477D01*
X53360470Y-132737847D01*
X53293529Y-132465763D01*
X53129869Y-132092028D01*
X53012341Y-132054118D01*
X52594033Y-132280600D01*
X52506133Y-132755376D01*
X52662155Y-133036390D01*
X52965487Y-133591049D01*
X52994706Y-133794001D01*
X52910970Y-134061748D01*
X52570173Y-133866609D01*
X52546471Y-133847059D01*
X52166080Y-133325020D01*
X52098235Y-133038509D01*
X51904074Y-132723831D01*
X51724706Y-132732570D01*
X51461000Y-133090148D01*
X51454291Y-133429824D01*
X51583450Y-133954614D01*
X51858322Y-134174670D01*
X52362006Y-134288543D01*
X52875559Y-134536210D01*
X53637253Y-135069651D01*
X54514232Y-135773966D01*
X55373640Y-136534255D01*
X56082622Y-137235617D01*
X56508322Y-137763153D01*
X56573637Y-137930980D01*
X56345835Y-138340035D01*
X56238914Y-138393499D01*
X56049740Y-138629871D01*
X56247599Y-139162044D01*
X56409289Y-139516877D01*
X56337741Y-139710076D01*
X55921785Y-139787039D01*
X55050251Y-139793162D01*
X54713723Y-139788430D01*
X53650874Y-139746476D01*
X52997705Y-139616738D01*
X52566656Y-139333535D01*
X52232205Y-138919422D01*
X51881476Y-138478823D01*
X54787647Y-138478823D01*
X54937059Y-138628235D01*
X55086471Y-138478823D01*
X54937059Y-138329412D01*
X54787647Y-138478823D01*
X51881476Y-138478823D01*
X51753968Y-138318643D01*
X50996003Y-137444725D01*
X50094749Y-136453460D01*
X49757090Y-136093222D01*
X49692228Y-136024642D01*
X52743554Y-136024642D01*
X52961738Y-136461765D01*
X53310576Y-136919631D01*
X53680791Y-137165052D01*
X53886078Y-137083922D01*
X53891176Y-137031020D01*
X53693961Y-136781699D01*
X53250048Y-136358667D01*
X52807702Y-135980709D01*
X52743554Y-136024642D01*
X49692228Y-136024642D01*
X47879259Y-134107763D01*
X46925806Y-134666812D01*
X46500000Y-135000000D01*
X46250000Y-134750000D01*
X46000000Y-134500000D01*
X46000000Y-134250000D01*
X46065264Y-133862679D01*
X47454016Y-133114404D01*
X49358127Y-132285877D01*
X49558235Y-132206179D01*
X51189564Y-131524241D01*
X52764096Y-130779497D01*
X52895361Y-130709412D01*
X55684118Y-130709412D01*
X55833529Y-130858823D01*
X55982941Y-130709412D01*
X55833529Y-130560000D01*
X55684118Y-130709412D01*
X52895361Y-130709412D01*
X53211640Y-130540544D01*
X56355030Y-130540544D01*
X56395905Y-130560000D01*
X56668607Y-130349634D01*
X56730000Y-130261176D01*
X56806146Y-129981809D01*
X56765271Y-129962353D01*
X56492569Y-130172719D01*
X56431176Y-130261176D01*
X56355030Y-130540544D01*
X53211640Y-130540544D01*
X54391047Y-129910836D01*
X55571700Y-129215294D01*
X58074706Y-129215294D01*
X58224118Y-129364706D01*
X58373529Y-129215294D01*
X58224118Y-129065882D01*
X58074706Y-129215294D01*
X55571700Y-129215294D01*
X56179635Y-128857150D01*
X58239077Y-127557330D01*
X60363889Y-126160211D01*
X60845361Y-125833048D01*
X63154706Y-125833048D01*
X63325443Y-125953504D01*
X63610162Y-125772830D01*
X63923419Y-125407429D01*
X63928867Y-125258083D01*
X63597084Y-125251688D01*
X63252105Y-125553225D01*
X63154706Y-125833048D01*
X60845361Y-125833048D01*
X61220489Y-125578147D01*
X61904392Y-125093070D01*
X62178916Y-124882353D01*
X64499412Y-124882353D01*
X64523104Y-125157714D01*
X64631188Y-125181176D01*
X64935486Y-124964257D01*
X64947647Y-124882353D01*
X64845693Y-124591298D01*
X64815871Y-124583529D01*
X64560744Y-124792926D01*
X64499412Y-124882353D01*
X62178916Y-124882353D01*
X62181230Y-124880577D01*
X62666096Y-124579462D01*
X63469365Y-124178803D01*
X63899465Y-123986868D01*
X64688937Y-123558674D01*
X66441765Y-123558674D01*
X66661382Y-123556644D01*
X67039412Y-123388235D01*
X67509028Y-123079637D01*
X67637059Y-122918972D01*
X67417442Y-122921003D01*
X67039412Y-123089412D01*
X66569795Y-123398010D01*
X66441765Y-123558674D01*
X64688937Y-123558674D01*
X64824061Y-123485386D01*
X65230150Y-123032404D01*
X65109524Y-122686261D01*
X64453976Y-122505298D01*
X64109796Y-122491765D01*
X63207623Y-122369693D01*
X62584045Y-121993725D01*
X68633137Y-121993725D01*
X68674157Y-122171376D01*
X68832353Y-122192941D01*
X69078318Y-122083606D01*
X69031569Y-121993725D01*
X68676935Y-121957962D01*
X68633137Y-121993725D01*
X62584045Y-121993725D01*
X62453934Y-121915279D01*
X62043353Y-121520588D01*
X61442412Y-120752141D01*
X61062509Y-120003196D01*
X61013557Y-119802353D01*
X60996169Y-119390469D01*
X61169895Y-119150275D01*
X61664706Y-119015045D01*
X62610573Y-118918050D01*
X62759683Y-118905882D01*
X64443541Y-118603344D01*
X65607432Y-118009304D01*
X66254139Y-117121942D01*
X66387966Y-116533980D01*
X66377532Y-115889267D01*
X66138881Y-115367868D01*
X65579542Y-114876007D01*
X64607044Y-114319909D01*
X63824753Y-113934578D01*
X62254073Y-112925009D01*
X61194397Y-111658283D01*
X60673350Y-110167438D01*
X60673024Y-110165294D01*
X60636232Y-109391253D01*
X60865686Y-109067134D01*
X61414349Y-109181718D01*
X62335182Y-109723782D01*
X62436076Y-109791765D01*
X63453536Y-110336436D01*
X64334591Y-110545942D01*
X64966523Y-110417279D01*
X65236614Y-109947442D01*
X65239342Y-109866471D01*
X65070096Y-108616712D01*
X64592272Y-106911863D01*
X64076992Y-105463042D01*
X63702022Y-104210468D01*
X63505317Y-102800952D01*
X63453529Y-101195209D01*
X63543002Y-99213746D01*
X63819077Y-97769030D01*
X64293240Y-96826392D01*
X64976974Y-96351161D01*
X65066659Y-96325634D01*
X65767617Y-95915615D01*
X66048674Y-95259322D01*
X65837928Y-94549575D01*
X65763983Y-94455644D01*
X65322229Y-93619035D01*
X64953947Y-92251472D01*
X64670701Y-90416433D01*
X64484056Y-88177397D01*
X64439041Y-87182989D01*
X64315707Y-83698920D01*
X65304030Y-82700636D01*
X65932216Y-82019048D01*
X66388431Y-81360900D01*
X66699756Y-80614661D01*
X66893272Y-79668796D01*
X66996060Y-78411774D01*
X67035200Y-76732060D01*
X67039412Y-75553406D01*
X67047216Y-73777563D01*
X67081014Y-72468890D01*
X67156385Y-71497001D01*
X67288910Y-70731509D01*
X67494167Y-70042027D01*
X67786471Y-69301176D01*
X68190447Y-68157938D01*
X68461718Y-67039006D01*
X68533529Y-66379059D01*
X68646236Y-65464427D01*
X68922530Y-64724948D01*
X68972261Y-64651820D01*
X69326102Y-63973699D01*
X69420496Y-63532063D01*
X69553292Y-62997263D01*
X69890935Y-62128949D01*
X70326471Y-61185514D01*
X70784006Y-60203900D01*
X71107045Y-59397341D01*
X71222941Y-58957044D01*
X71360091Y-58358668D01*
X71804573Y-57579118D01*
X72605932Y-56545025D01*
X73654079Y-55357015D01*
X74619818Y-54226591D01*
X75570530Y-52992089D01*
X76309391Y-51909874D01*
X76343491Y-51854055D01*
X76905756Y-50999511D01*
X77387812Y-50397110D01*
X77667982Y-50184946D01*
X77778272Y-50401230D01*
G37*
X77778272Y-50401230D02*
X77597353Y-50993254D01*
X77186027Y-51853779D01*
X76605095Y-52875562D01*
X75915359Y-53951364D01*
X75177620Y-54973943D01*
X74481708Y-55804877D01*
X73215105Y-57366733D01*
X72328144Y-58964297D01*
X72051923Y-59645537D01*
X71544228Y-60944569D01*
X70910854Y-62475654D01*
X70279958Y-63929781D01*
X70216216Y-64071765D01*
X69491468Y-65919427D01*
X69160579Y-67386880D01*
X69134825Y-67835854D01*
X69012368Y-68942950D01*
X68712288Y-69996750D01*
X68608235Y-70226442D01*
X68398508Y-70757802D01*
X68236343Y-71492153D01*
X68111030Y-72523209D01*
X68011857Y-73944685D01*
X67928115Y-75850295D01*
X67911392Y-76323529D01*
X67841284Y-78045736D01*
X67757504Y-79591353D01*
X67667800Y-80847487D01*
X67579917Y-81701241D01*
X67521522Y-82005094D01*
X67120944Y-82564574D01*
X66444418Y-83100327D01*
X66400408Y-83126141D01*
X65495263Y-83645623D01*
X65644020Y-87156341D01*
X65778264Y-89482872D01*
X65978091Y-91384794D01*
X66269143Y-93033813D01*
X66677066Y-94601629D01*
X66829115Y-95091320D01*
X67289745Y-96527346D01*
X66547478Y-96809555D01*
X65826757Y-97026183D01*
X65386943Y-97091765D01*
X64931001Y-97254729D01*
X64619245Y-97782360D01*
X64439833Y-98732761D01*
X64380926Y-100164037D01*
X64418435Y-101844338D01*
X64533941Y-103757299D01*
X64722773Y-105242978D01*
X65010716Y-106469845D01*
X65223276Y-107102353D01*
X65716405Y-108506986D01*
X65973932Y-109497342D01*
X66007495Y-110203250D01*
X65828731Y-110754543D01*
X65583249Y-111118288D01*
X65175787Y-111563918D01*
X64764753Y-111700354D01*
X64111202Y-111575629D01*
X63783783Y-111480016D01*
X62852101Y-111091167D01*
X62084362Y-110589321D01*
X61960057Y-110470675D01*
X61546016Y-110119220D01*
X61362302Y-110147182D01*
X61361765Y-110160726D01*
X61623886Y-110796536D01*
X62345363Y-111565458D01*
X63428861Y-112383162D01*
X64777047Y-113165318D01*
X64902291Y-113228235D01*
X65967750Y-113775442D01*
X66622990Y-114199730D01*
X66998957Y-114631803D01*
X67226598Y-115202365D01*
X67347207Y-115668640D01*
X67521782Y-116779338D01*
X67363024Y-117626122D01*
X66798008Y-118409422D01*
X66126750Y-119023062D01*
X65476428Y-119480597D01*
X64770718Y-119719319D01*
X63777856Y-119805146D01*
X63355896Y-119811112D01*
X61511176Y-119819872D01*
X62501850Y-120720792D01*
X63086325Y-121206510D01*
X63621226Y-121466501D01*
X64316339Y-121557986D01*
X65381449Y-121538189D01*
X65482471Y-121533797D01*
X66573795Y-121461929D01*
X67227567Y-121329529D01*
X67603863Y-121080695D01*
X67656378Y-120997647D01*
X69728823Y-120997647D01*
X69830777Y-121288701D01*
X69860600Y-121296471D01*
X70115726Y-121087074D01*
X70177059Y-120997647D01*
X70153366Y-120722286D01*
X70045283Y-120698823D01*
X69740984Y-120915743D01*
X69728823Y-120997647D01*
X67656378Y-120997647D01*
X67837385Y-120711404D01*
X68317883Y-120077833D01*
X68778498Y-119763794D01*
X69236980Y-119313829D01*
X69548788Y-118484932D01*
X69658948Y-117488745D01*
X69567853Y-116725039D01*
X69574072Y-115941235D01*
X69849199Y-114969083D01*
X69904338Y-114839499D01*
X70422161Y-113676471D01*
X70695929Y-115021176D01*
X70918958Y-116424668D01*
X71020267Y-117753796D01*
X71001087Y-118875890D01*
X70862654Y-119658277D01*
X70650031Y-119957942D01*
X70399905Y-120211844D01*
X70540154Y-120434389D01*
X70655823Y-120936699D01*
X70367890Y-121687481D01*
X69758614Y-122587182D01*
X68910254Y-123536251D01*
X67905069Y-124435137D01*
X66825320Y-125184286D01*
X66441765Y-125394335D01*
X65599110Y-125864386D01*
X64908390Y-126321475D01*
X64841568Y-126373896D01*
X64345343Y-126666427D01*
X64094510Y-126675294D01*
X63913302Y-126805147D01*
X63803986Y-127215703D01*
X63563270Y-127735884D01*
X63165128Y-127795439D01*
X62769986Y-127439858D01*
X62559361Y-126862786D01*
X62407647Y-126011694D01*
X61838392Y-126642318D01*
X61538538Y-127084759D01*
X61609088Y-127272869D01*
X61614274Y-127272941D01*
X61856521Y-127532390D01*
X61959382Y-128157592D01*
X61959412Y-128169412D01*
X61859765Y-128833019D01*
X61503770Y-129060637D01*
X61398354Y-129065882D01*
X60738111Y-129282917D01*
X60465294Y-129514118D01*
X59907395Y-129845666D01*
X59233411Y-129962353D01*
X58632364Y-130029324D01*
X58408916Y-130186471D01*
X58354015Y-130885340D01*
X57892030Y-131153540D01*
X57793518Y-131157647D01*
X57214721Y-131304756D01*
X57016233Y-131476842D01*
X56608890Y-131670192D01*
X56385430Y-131629677D01*
X56093438Y-131612829D01*
X56113542Y-131724858D01*
X56058096Y-132107526D01*
X55869887Y-132322767D01*
X55430866Y-132482206D01*
X55100392Y-132220304D01*
X54883188Y-131711447D01*
X54928969Y-131469560D01*
X54969540Y-131193679D01*
X54695896Y-131202879D01*
X54305486Y-131473401D01*
X54233699Y-131553228D01*
X54066857Y-132019629D01*
X54236789Y-132280200D01*
X54427148Y-132811422D01*
X54375554Y-133113568D01*
X54135779Y-133444791D01*
X53746340Y-133253188D01*
X53738229Y-133246477D01*
X53360470Y-132737847D01*
X53293529Y-132465763D01*
X53129869Y-132092028D01*
X53012341Y-132054118D01*
X52594033Y-132280600D01*
X52506133Y-132755376D01*
X52662155Y-133036390D01*
X52965487Y-133591049D01*
X52994706Y-133794001D01*
X52910970Y-134061748D01*
X52570173Y-133866609D01*
X52546471Y-133847059D01*
X52166080Y-133325020D01*
X52098235Y-133038509D01*
X51904074Y-132723831D01*
X51724706Y-132732570D01*
X51461000Y-133090148D01*
X51454291Y-133429824D01*
X51583450Y-133954614D01*
X51858322Y-134174670D01*
X52362006Y-134288543D01*
X52875559Y-134536210D01*
X53637253Y-135069651D01*
X54514232Y-135773966D01*
X55373640Y-136534255D01*
X56082622Y-137235617D01*
X56508322Y-137763153D01*
X56573637Y-137930980D01*
X56345835Y-138340035D01*
X56238914Y-138393499D01*
X56049740Y-138629871D01*
X56247599Y-139162044D01*
X56409289Y-139516877D01*
X56337741Y-139710076D01*
X55921785Y-139787039D01*
X55050251Y-139793162D01*
X54713723Y-139788430D01*
X53650874Y-139746476D01*
X52997705Y-139616738D01*
X52566656Y-139333535D01*
X52232205Y-138919422D01*
X51881476Y-138478823D01*
X54787647Y-138478823D01*
X54937059Y-138628235D01*
X55086471Y-138478823D01*
X54937059Y-138329412D01*
X54787647Y-138478823D01*
X51881476Y-138478823D01*
X51753968Y-138318643D01*
X50996003Y-137444725D01*
X50094749Y-136453460D01*
X49757090Y-136093222D01*
X49692228Y-136024642D01*
X52743554Y-136024642D01*
X52961738Y-136461765D01*
X53310576Y-136919631D01*
X53680791Y-137165052D01*
X53886078Y-137083922D01*
X53891176Y-137031020D01*
X53693961Y-136781699D01*
X53250048Y-136358667D01*
X52807702Y-135980709D01*
X52743554Y-136024642D01*
X49692228Y-136024642D01*
X47879259Y-134107763D01*
X46925806Y-134666812D01*
X46500000Y-135000000D01*
X46250000Y-134750000D01*
X46000000Y-134500000D01*
X46000000Y-134250000D01*
X46065264Y-133862679D01*
X47454016Y-133114404D01*
X49358127Y-132285877D01*
X49558235Y-132206179D01*
X51189564Y-131524241D01*
X52764096Y-130779497D01*
X52895361Y-130709412D01*
X55684118Y-130709412D01*
X55833529Y-130858823D01*
X55982941Y-130709412D01*
X55833529Y-130560000D01*
X55684118Y-130709412D01*
X52895361Y-130709412D01*
X53211640Y-130540544D01*
X56355030Y-130540544D01*
X56395905Y-130560000D01*
X56668607Y-130349634D01*
X56730000Y-130261176D01*
X56806146Y-129981809D01*
X56765271Y-129962353D01*
X56492569Y-130172719D01*
X56431176Y-130261176D01*
X56355030Y-130540544D01*
X53211640Y-130540544D01*
X54391047Y-129910836D01*
X55571700Y-129215294D01*
X58074706Y-129215294D01*
X58224118Y-129364706D01*
X58373529Y-129215294D01*
X58224118Y-129065882D01*
X58074706Y-129215294D01*
X55571700Y-129215294D01*
X56179635Y-128857150D01*
X58239077Y-127557330D01*
X60363889Y-126160211D01*
X60845361Y-125833048D01*
X63154706Y-125833048D01*
X63325443Y-125953504D01*
X63610162Y-125772830D01*
X63923419Y-125407429D01*
X63928867Y-125258083D01*
X63597084Y-125251688D01*
X63252105Y-125553225D01*
X63154706Y-125833048D01*
X60845361Y-125833048D01*
X61220489Y-125578147D01*
X61904392Y-125093070D01*
X62178916Y-124882353D01*
X64499412Y-124882353D01*
X64523104Y-125157714D01*
X64631188Y-125181176D01*
X64935486Y-124964257D01*
X64947647Y-124882353D01*
X64845693Y-124591298D01*
X64815871Y-124583529D01*
X64560744Y-124792926D01*
X64499412Y-124882353D01*
X62178916Y-124882353D01*
X62181230Y-124880577D01*
X62666096Y-124579462D01*
X63469365Y-124178803D01*
X63899465Y-123986868D01*
X64688937Y-123558674D01*
X66441765Y-123558674D01*
X66661382Y-123556644D01*
X67039412Y-123388235D01*
X67509028Y-123079637D01*
X67637059Y-122918972D01*
X67417442Y-122921003D01*
X67039412Y-123089412D01*
X66569795Y-123398010D01*
X66441765Y-123558674D01*
X64688937Y-123558674D01*
X64824061Y-123485386D01*
X65230150Y-123032404D01*
X65109524Y-122686261D01*
X64453976Y-122505298D01*
X64109796Y-122491765D01*
X63207623Y-122369693D01*
X62584045Y-121993725D01*
X68633137Y-121993725D01*
X68674157Y-122171376D01*
X68832353Y-122192941D01*
X69078318Y-122083606D01*
X69031569Y-121993725D01*
X68676935Y-121957962D01*
X68633137Y-121993725D01*
X62584045Y-121993725D01*
X62453934Y-121915279D01*
X62043353Y-121520588D01*
X61442412Y-120752141D01*
X61062509Y-120003196D01*
X61013557Y-119802353D01*
X60996169Y-119390469D01*
X61169895Y-119150275D01*
X61664706Y-119015045D01*
X62610573Y-118918050D01*
X62759683Y-118905882D01*
X64443541Y-118603344D01*
X65607432Y-118009304D01*
X66254139Y-117121942D01*
X66387966Y-116533980D01*
X66377532Y-115889267D01*
X66138881Y-115367868D01*
X65579542Y-114876007D01*
X64607044Y-114319909D01*
X63824753Y-113934578D01*
X62254073Y-112925009D01*
X61194397Y-111658283D01*
X60673350Y-110167438D01*
X60673024Y-110165294D01*
X60636232Y-109391253D01*
X60865686Y-109067134D01*
X61414349Y-109181718D01*
X62335182Y-109723782D01*
X62436076Y-109791765D01*
X63453536Y-110336436D01*
X64334591Y-110545942D01*
X64966523Y-110417279D01*
X65236614Y-109947442D01*
X65239342Y-109866471D01*
X65070096Y-108616712D01*
X64592272Y-106911863D01*
X64076992Y-105463042D01*
X63702022Y-104210468D01*
X63505317Y-102800952D01*
X63453529Y-101195209D01*
X63543002Y-99213746D01*
X63819077Y-97769030D01*
X64293240Y-96826392D01*
X64976974Y-96351161D01*
X65066659Y-96325634D01*
X65767617Y-95915615D01*
X66048674Y-95259322D01*
X65837928Y-94549575D01*
X65763983Y-94455644D01*
X65322229Y-93619035D01*
X64953947Y-92251472D01*
X64670701Y-90416433D01*
X64484056Y-88177397D01*
X64439041Y-87182989D01*
X64315707Y-83698920D01*
X65304030Y-82700636D01*
X65932216Y-82019048D01*
X66388431Y-81360900D01*
X66699756Y-80614661D01*
X66893272Y-79668796D01*
X66996060Y-78411774D01*
X67035200Y-76732060D01*
X67039412Y-75553406D01*
X67047216Y-73777563D01*
X67081014Y-72468890D01*
X67156385Y-71497001D01*
X67288910Y-70731509D01*
X67494167Y-70042027D01*
X67786471Y-69301176D01*
X68190447Y-68157938D01*
X68461718Y-67039006D01*
X68533529Y-66379059D01*
X68646236Y-65464427D01*
X68922530Y-64724948D01*
X68972261Y-64651820D01*
X69326102Y-63973699D01*
X69420496Y-63532063D01*
X69553292Y-62997263D01*
X69890935Y-62128949D01*
X70326471Y-61185514D01*
X70784006Y-60203900D01*
X71107045Y-59397341D01*
X71222941Y-58957044D01*
X71360091Y-58358668D01*
X71804573Y-57579118D01*
X72605932Y-56545025D01*
X73654079Y-55357015D01*
X74619818Y-54226591D01*
X75570530Y-52992089D01*
X76309391Y-51909874D01*
X76343491Y-51854055D01*
X76905756Y-50999511D01*
X77387812Y-50397110D01*
X77667982Y-50184946D01*
X77778272Y-50401230D01*
G36*
X70598111Y-123462874D02*
G01*
X70625294Y-123721233D01*
X70417215Y-124292878D01*
X69888170Y-125023163D01*
X69529237Y-125397264D01*
X68887899Y-126039741D01*
X68618659Y-126496122D01*
X68643941Y-126973975D01*
X68782178Y-127396117D01*
X69075070Y-128403895D01*
X69048780Y-129108976D01*
X68681334Y-129727171D01*
X68527199Y-129900307D01*
X68019971Y-130683812D01*
X67737650Y-131476454D01*
X67485840Y-132175065D01*
X67138255Y-132563059D01*
X67133783Y-132564823D01*
X66833342Y-132949997D01*
X66802743Y-133357246D01*
X66701678Y-133895020D01*
X66441765Y-134022003D01*
X65546347Y-134102350D01*
X65100036Y-134198480D01*
X64954770Y-134350111D01*
X64947647Y-134422795D01*
X65193345Y-134713366D01*
X65428880Y-134796324D01*
X65708938Y-134923792D01*
X65554312Y-135201359D01*
X65290712Y-135452020D01*
X64885090Y-135776358D01*
X64601865Y-135758976D01*
X64273015Y-135330016D01*
X64032904Y-134929079D01*
X63480010Y-134127739D01*
X63062858Y-133863452D01*
X62731693Y-134105143D01*
X62726672Y-134113196D01*
X62828220Y-134443172D01*
X63302859Y-134864633D01*
X63306683Y-134867143D01*
X63842552Y-135347425D01*
X64051176Y-135774956D01*
X64247752Y-136307656D01*
X64539966Y-136683748D01*
X64845932Y-137182960D01*
X64712730Y-137488564D01*
X64517780Y-138014890D01*
X64554734Y-138216413D01*
X64473793Y-138572786D01*
X64252696Y-138628235D01*
X63800342Y-138378965D01*
X63602941Y-138030588D01*
X63326104Y-137547409D01*
X63114432Y-137432941D01*
X62952031Y-137199821D01*
X63005294Y-136835294D01*
X63026519Y-136342031D01*
X62734513Y-136280550D01*
X62282352Y-136656823D01*
X62091912Y-137035584D01*
X62314145Y-137202558D01*
X62506633Y-137420048D01*
X62311113Y-137905261D01*
X62184943Y-138105765D01*
X61877935Y-138703323D01*
X61977338Y-138999052D01*
X62041855Y-139031398D01*
X62218633Y-139241565D01*
X61959412Y-139497380D01*
X61347321Y-139781670D01*
X60887505Y-139752917D01*
X60764118Y-139528122D01*
X60552617Y-139032700D01*
X59993860Y-138301706D01*
X59444211Y-137731765D01*
X61062941Y-137731765D01*
X61290338Y-138021905D01*
X61361765Y-138030588D01*
X61651905Y-137803191D01*
X61660588Y-137731765D01*
X61433191Y-137441625D01*
X61361765Y-137432941D01*
X61071625Y-137660338D01*
X61062941Y-137731765D01*
X59444211Y-137731765D01*
X59201469Y-137480062D01*
X59045882Y-137336519D01*
X58564131Y-136784345D01*
X58373529Y-136346753D01*
X58187516Y-135883697D01*
X57732474Y-135253613D01*
X57660428Y-135171390D01*
X56763844Y-134163960D01*
X56233357Y-133519251D01*
X56132349Y-133334782D01*
X57534312Y-133334782D01*
X57972052Y-133793313D01*
X58224118Y-133968992D01*
X58762161Y-134464036D01*
X58971176Y-134921174D01*
X59217568Y-135581161D01*
X59809760Y-136150223D01*
X60017059Y-136258992D01*
X60270522Y-136625436D01*
X60274379Y-136760588D01*
X60400942Y-137106097D01*
X60498497Y-137134118D01*
X60707443Y-136881149D01*
X60764118Y-136475991D01*
X60566019Y-135870033D01*
X60414954Y-135640000D01*
X62855882Y-135640000D01*
X62965217Y-135885966D01*
X63055098Y-135839216D01*
X63090861Y-135484582D01*
X63055098Y-135440784D01*
X62877448Y-135481804D01*
X62855882Y-135640000D01*
X60414954Y-135640000D01*
X60218711Y-135341176D01*
X61062941Y-135341176D01*
X61172276Y-135587142D01*
X61262157Y-135540392D01*
X61297920Y-135185758D01*
X61262157Y-135141961D01*
X61084507Y-135182980D01*
X61062941Y-135341176D01*
X60218711Y-135341176D01*
X60066290Y-135109081D01*
X59792941Y-134794276D01*
X59214360Y-134085767D01*
X59117922Y-133692963D01*
X59197156Y-133633939D01*
X59471774Y-133395943D01*
X59274571Y-133144990D01*
X58721666Y-132975404D01*
X58355894Y-132950588D01*
X57662883Y-133049049D01*
X57534312Y-133334782D01*
X56132349Y-133334782D01*
X56034630Y-133156320D01*
X56133327Y-132994227D01*
X56495114Y-132952029D01*
X56718359Y-132950588D01*
X57497279Y-132738973D01*
X57988359Y-132393464D01*
X58684702Y-131816135D01*
X59270000Y-131453756D01*
X59972268Y-131028817D01*
X60837164Y-130422219D01*
X61132346Y-130197027D01*
X61990491Y-129633439D01*
X62535242Y-129560148D01*
X62806784Y-129985616D01*
X62855882Y-130560000D01*
X62759381Y-131236791D01*
X62534451Y-131615459D01*
X62277951Y-131579115D01*
X62173388Y-131383626D01*
X61962696Y-131159022D01*
X61510012Y-131321193D01*
X61404862Y-131381765D01*
X60653137Y-131681592D01*
X60170525Y-131755294D01*
X59671454Y-131961220D01*
X59568823Y-132372586D01*
X59686013Y-133085641D01*
X59966534Y-133696174D01*
X60303815Y-134011956D01*
X60468132Y-133994717D01*
X60905215Y-134004047D01*
X61336019Y-134199153D01*
X61929933Y-134430268D01*
X62151617Y-134217982D01*
X61941645Y-133628144D01*
X61905411Y-133568216D01*
X61666848Y-133048678D01*
X61834123Y-132734395D01*
X61959412Y-132647223D01*
X62621757Y-132410196D01*
X63080000Y-132357517D01*
X63790400Y-132148595D01*
X64354162Y-131751132D01*
X64751796Y-131278507D01*
X64743653Y-130875038D01*
X64469206Y-130406426D01*
X64041131Y-129875244D01*
X63717985Y-129663529D01*
X63519125Y-129407602D01*
X63490969Y-129196786D01*
X65414977Y-129196786D01*
X65448377Y-129543163D01*
X65857734Y-129899758D01*
X66557314Y-129880848D01*
X67388278Y-129505291D01*
X67702352Y-129275533D01*
X68273842Y-128649816D01*
X68360919Y-128034452D01*
X68339853Y-127941574D01*
X68112837Y-127421684D01*
X67728223Y-127320729D01*
X67054742Y-127624461D01*
X66804780Y-127774974D01*
X65815812Y-128527054D01*
X65414977Y-129196786D01*
X63490969Y-129196786D01*
X63453529Y-128916471D01*
X63608159Y-128317325D01*
X63897753Y-128169412D01*
X64417590Y-127988215D01*
X65263159Y-127503430D01*
X66308885Y-126803265D01*
X67429193Y-125975930D01*
X68498510Y-125109632D01*
X69329182Y-124354165D01*
X70040690Y-123678975D01*
X70433750Y-123396487D01*
X70598111Y-123462874D01*
G37*
X70598111Y-123462874D02*
X70625294Y-123721233D01*
X70417215Y-124292878D01*
X69888170Y-125023163D01*
X69529237Y-125397264D01*
X68887899Y-126039741D01*
X68618659Y-126496122D01*
X68643941Y-126973975D01*
X68782178Y-127396117D01*
X69075070Y-128403895D01*
X69048780Y-129108976D01*
X68681334Y-129727171D01*
X68527199Y-129900307D01*
X68019971Y-130683812D01*
X67737650Y-131476454D01*
X67485840Y-132175065D01*
X67138255Y-132563059D01*
X67133783Y-132564823D01*
X66833342Y-132949997D01*
X66802743Y-133357246D01*
X66701678Y-133895020D01*
X66441765Y-134022003D01*
X65546347Y-134102350D01*
X65100036Y-134198480D01*
X64954770Y-134350111D01*
X64947647Y-134422795D01*
X65193345Y-134713366D01*
X65428880Y-134796324D01*
X65708938Y-134923792D01*
X65554312Y-135201359D01*
X65290712Y-135452020D01*
X64885090Y-135776358D01*
X64601865Y-135758976D01*
X64273015Y-135330016D01*
X64032904Y-134929079D01*
X63480010Y-134127739D01*
X63062858Y-133863452D01*
X62731693Y-134105143D01*
X62726672Y-134113196D01*
X62828220Y-134443172D01*
X63302859Y-134864633D01*
X63306683Y-134867143D01*
X63842552Y-135347425D01*
X64051176Y-135774956D01*
X64247752Y-136307656D01*
X64539966Y-136683748D01*
X64845932Y-137182960D01*
X64712730Y-137488564D01*
X64517780Y-138014890D01*
X64554734Y-138216413D01*
X64473793Y-138572786D01*
X64252696Y-138628235D01*
X63800342Y-138378965D01*
X63602941Y-138030588D01*
X63326104Y-137547409D01*
X63114432Y-137432941D01*
X62952031Y-137199821D01*
X63005294Y-136835294D01*
X63026519Y-136342031D01*
X62734513Y-136280550D01*
X62282352Y-136656823D01*
X62091912Y-137035584D01*
X62314145Y-137202558D01*
X62506633Y-137420048D01*
X62311113Y-137905261D01*
X62184943Y-138105765D01*
X61877935Y-138703323D01*
X61977338Y-138999052D01*
X62041855Y-139031398D01*
X62218633Y-139241565D01*
X61959412Y-139497380D01*
X61347321Y-139781670D01*
X60887505Y-139752917D01*
X60764118Y-139528122D01*
X60552617Y-139032700D01*
X59993860Y-138301706D01*
X59444211Y-137731765D01*
X61062941Y-137731765D01*
X61290338Y-138021905D01*
X61361765Y-138030588D01*
X61651905Y-137803191D01*
X61660588Y-137731765D01*
X61433191Y-137441625D01*
X61361765Y-137432941D01*
X61071625Y-137660338D01*
X61062941Y-137731765D01*
X59444211Y-137731765D01*
X59201469Y-137480062D01*
X59045882Y-137336519D01*
X58564131Y-136784345D01*
X58373529Y-136346753D01*
X58187516Y-135883697D01*
X57732474Y-135253613D01*
X57660428Y-135171390D01*
X56763844Y-134163960D01*
X56233357Y-133519251D01*
X56132349Y-133334782D01*
X57534312Y-133334782D01*
X57972052Y-133793313D01*
X58224118Y-133968992D01*
X58762161Y-134464036D01*
X58971176Y-134921174D01*
X59217568Y-135581161D01*
X59809760Y-136150223D01*
X60017059Y-136258992D01*
X60270522Y-136625436D01*
X60274379Y-136760588D01*
X60400942Y-137106097D01*
X60498497Y-137134118D01*
X60707443Y-136881149D01*
X60764118Y-136475991D01*
X60566019Y-135870033D01*
X60414954Y-135640000D01*
X62855882Y-135640000D01*
X62965217Y-135885966D01*
X63055098Y-135839216D01*
X63090861Y-135484582D01*
X63055098Y-135440784D01*
X62877448Y-135481804D01*
X62855882Y-135640000D01*
X60414954Y-135640000D01*
X60218711Y-135341176D01*
X61062941Y-135341176D01*
X61172276Y-135587142D01*
X61262157Y-135540392D01*
X61297920Y-135185758D01*
X61262157Y-135141961D01*
X61084507Y-135182980D01*
X61062941Y-135341176D01*
X60218711Y-135341176D01*
X60066290Y-135109081D01*
X59792941Y-134794276D01*
X59214360Y-134085767D01*
X59117922Y-133692963D01*
X59197156Y-133633939D01*
X59471774Y-133395943D01*
X59274571Y-133144990D01*
X58721666Y-132975404D01*
X58355894Y-132950588D01*
X57662883Y-133049049D01*
X57534312Y-133334782D01*
X56132349Y-133334782D01*
X56034630Y-133156320D01*
X56133327Y-132994227D01*
X56495114Y-132952029D01*
X56718359Y-132950588D01*
X57497279Y-132738973D01*
X57988359Y-132393464D01*
X58684702Y-131816135D01*
X59270000Y-131453756D01*
X59972268Y-131028817D01*
X60837164Y-130422219D01*
X61132346Y-130197027D01*
X61990491Y-129633439D01*
X62535242Y-129560148D01*
X62806784Y-129985616D01*
X62855882Y-130560000D01*
X62759381Y-131236791D01*
X62534451Y-131615459D01*
X62277951Y-131579115D01*
X62173388Y-131383626D01*
X61962696Y-131159022D01*
X61510012Y-131321193D01*
X61404862Y-131381765D01*
X60653137Y-131681592D01*
X60170525Y-131755294D01*
X59671454Y-131961220D01*
X59568823Y-132372586D01*
X59686013Y-133085641D01*
X59966534Y-133696174D01*
X60303815Y-134011956D01*
X60468132Y-133994717D01*
X60905215Y-134004047D01*
X61336019Y-134199153D01*
X61929933Y-134430268D01*
X62151617Y-134217982D01*
X61941645Y-133628144D01*
X61905411Y-133568216D01*
X61666848Y-133048678D01*
X61834123Y-132734395D01*
X61959412Y-132647223D01*
X62621757Y-132410196D01*
X63080000Y-132357517D01*
X63790400Y-132148595D01*
X64354162Y-131751132D01*
X64751796Y-131278507D01*
X64743653Y-130875038D01*
X64469206Y-130406426D01*
X64041131Y-129875244D01*
X63717985Y-129663529D01*
X63519125Y-129407602D01*
X63490969Y-129196786D01*
X65414977Y-129196786D01*
X65448377Y-129543163D01*
X65857734Y-129899758D01*
X66557314Y-129880848D01*
X67388278Y-129505291D01*
X67702352Y-129275533D01*
X68273842Y-128649816D01*
X68360919Y-128034452D01*
X68339853Y-127941574D01*
X68112837Y-127421684D01*
X67728223Y-127320729D01*
X67054742Y-127624461D01*
X66804780Y-127774974D01*
X65815812Y-128527054D01*
X65414977Y-129196786D01*
X63490969Y-129196786D01*
X63453529Y-128916471D01*
X63608159Y-128317325D01*
X63897753Y-128169412D01*
X64417590Y-127988215D01*
X65263159Y-127503430D01*
X66308885Y-126803265D01*
X67429193Y-125975930D01*
X68498510Y-125109632D01*
X69329182Y-124354165D01*
X70040690Y-123678975D01*
X70433750Y-123396487D01*
X70598111Y-123462874D01*
G36*
X73912353Y-139674118D02*
G01*
X73762941Y-139823529D01*
X73613529Y-139674118D01*
X73762941Y-139524706D01*
X73912353Y-139674118D01*
G37*
X73912353Y-139674118D02*
X73762941Y-139823529D01*
X73613529Y-139674118D01*
X73762941Y-139524706D01*
X73912353Y-139674118D01*
G36*
X77697451Y-139624314D02*
G01*
X77656431Y-139801964D01*
X77498235Y-139823529D01*
X77252270Y-139714194D01*
X77299020Y-139624314D01*
X77653653Y-139588550D01*
X77697451Y-139624314D01*
G37*
X77697451Y-139624314D02*
X77656431Y-139801964D01*
X77498235Y-139823529D01*
X77252270Y-139714194D01*
X77299020Y-139624314D01*
X77653653Y-139588550D01*
X77697451Y-139624314D01*
G36*
X110053186Y-50245218D02*
G01*
X110688645Y-50390887D01*
X110787580Y-50450829D01*
X111250329Y-50692176D01*
X112102779Y-51025610D01*
X113156084Y-51377567D01*
X114143162Y-51710353D01*
X114856808Y-52004167D01*
X115150789Y-52198345D01*
X115151889Y-52205536D01*
X115386075Y-52482731D01*
X115953490Y-52872022D01*
X116014648Y-52907342D01*
X116612501Y-53399474D01*
X117362854Y-54225583D01*
X118106436Y-55209759D01*
X118128196Y-55241687D01*
X118793922Y-56161902D01*
X119385342Y-56874317D01*
X119785235Y-57239071D01*
X119813357Y-57252296D01*
X120230906Y-57617303D01*
X120754927Y-58327586D01*
X121260354Y-59177448D01*
X121622121Y-59961191D01*
X121724118Y-60394952D01*
X121856788Y-60845275D01*
X122201306Y-61654603D01*
X122677430Y-62660531D01*
X123204921Y-63700656D01*
X123703537Y-64612574D01*
X124093038Y-65233880D01*
X124153931Y-65312803D01*
X124496950Y-65978033D01*
X124858577Y-67093049D01*
X125208646Y-68511983D01*
X125516992Y-70088969D01*
X125753451Y-71678138D01*
X125887856Y-73133623D01*
X125907402Y-73791960D01*
X125855053Y-74971051D01*
X125654382Y-75988991D01*
X125240456Y-77102440D01*
X124861765Y-77925133D01*
X124190931Y-79513978D01*
X123885115Y-80826061D01*
X123931719Y-82047861D01*
X124318151Y-83365856D01*
X124469112Y-83738721D01*
X124994092Y-84726775D01*
X125763296Y-85863015D01*
X126672279Y-87024710D01*
X127616594Y-88089131D01*
X128491796Y-88933549D01*
X129193438Y-89435234D01*
X129378041Y-89506980D01*
X129949247Y-89850180D01*
X130622851Y-90529887D01*
X130990256Y-91016097D01*
X131887668Y-92345810D01*
X131131995Y-93336548D01*
X130759510Y-93769881D01*
X130328305Y-94102401D01*
X129734425Y-94368765D01*
X128873912Y-94603627D01*
X127642812Y-94841643D01*
X125937168Y-95117468D01*
X125662723Y-95159823D01*
X124809739Y-95382967D01*
X124271144Y-95700515D01*
X124198831Y-95809439D01*
X123883999Y-96330348D01*
X123353283Y-96985596D01*
X123309004Y-97033869D01*
X122758269Y-97927416D01*
X122681131Y-98570094D01*
X122793036Y-98990091D01*
X123098151Y-99290148D01*
X123727415Y-99548373D01*
X124811768Y-99842871D01*
X124817062Y-99844194D01*
X126165086Y-100219602D01*
X127023848Y-100582065D01*
X127495497Y-101004749D01*
X127682184Y-101560818D01*
X127700588Y-101909530D01*
X127610711Y-102534333D01*
X127239894Y-102754533D01*
X126971165Y-102769412D01*
X126349738Y-102863596D01*
X126082853Y-103026500D01*
X125713644Y-103219857D01*
X124969932Y-103405341D01*
X124602178Y-103464759D01*
X123549675Y-103699229D01*
X122324643Y-104097385D01*
X121680491Y-104358286D01*
X120797402Y-104779653D01*
X120265025Y-105179913D01*
X119925927Y-105747214D01*
X119622674Y-106669709D01*
X119557647Y-106895323D01*
X119199140Y-108394710D01*
X119060234Y-109766880D01*
X119133178Y-111252030D01*
X119365859Y-112839725D01*
X119531593Y-114294006D01*
X119517470Y-115879316D01*
X119365435Y-117495967D01*
X119218447Y-118806363D01*
X119164358Y-119656624D01*
X119211373Y-120178233D01*
X119367697Y-120502669D01*
X119565313Y-120698823D01*
X119986117Y-121201160D01*
X120526966Y-122038877D01*
X120943879Y-122790588D01*
X121465189Y-123749358D01*
X121942503Y-124539107D01*
X122205790Y-124905882D01*
X122552469Y-125519871D01*
X122620588Y-125863039D01*
X122868034Y-126298479D01*
X123478140Y-126750085D01*
X123626116Y-126825585D01*
X124954732Y-127643178D01*
X125816159Y-128586834D01*
X126078361Y-129193781D01*
X126437018Y-129777198D01*
X127202567Y-130050305D01*
X129249508Y-130612039D01*
X131456922Y-131664783D01*
X132705882Y-132439499D01*
X133701452Y-133146892D01*
X133750000Y-133250000D01*
X133750000Y-133500000D01*
X133750000Y-133750000D01*
X133750000Y-134000000D01*
X133500000Y-134500000D01*
X133250000Y-134500000D01*
X132654714Y-134217057D01*
X132590522Y-134174364D01*
X131737996Y-133680371D01*
X130636006Y-133143465D01*
X129415469Y-132614558D01*
X128207302Y-132144562D01*
X127142420Y-131784390D01*
X126351739Y-131584955D01*
X125966176Y-131597169D01*
X125965424Y-131597909D01*
X125752306Y-131433970D01*
X125314682Y-130877779D01*
X124742779Y-130045144D01*
X124677980Y-129945418D01*
X123999158Y-129000411D01*
X123331597Y-128243437D01*
X122822755Y-127840253D01*
X122175654Y-127345543D01*
X121569592Y-126581152D01*
X121182410Y-125795153D01*
X121126471Y-125474081D01*
X120969601Y-125054400D01*
X120562445Y-124325258D01*
X120000179Y-123428643D01*
X119377982Y-122506541D01*
X118791032Y-121700941D01*
X118334507Y-121153830D01*
X118125801Y-120997647D01*
X117743708Y-120765911D01*
X117464541Y-120252604D01*
X117398089Y-119730572D01*
X117527779Y-119511446D01*
X117772355Y-119093996D01*
X117922086Y-118347057D01*
X117932161Y-118206082D01*
X118021893Y-117496355D01*
X118171605Y-117128499D01*
X118207224Y-117114281D01*
X118303562Y-116856170D01*
X118292158Y-116220221D01*
X118199012Y-115411088D01*
X118050121Y-114633426D01*
X117871483Y-114091888D01*
X117811780Y-114001340D01*
X117544713Y-113983031D01*
X117307642Y-114433042D01*
X117137420Y-115222088D01*
X117070898Y-116220881D01*
X117078031Y-116575593D01*
X117073080Y-117365903D01*
X116993436Y-117810311D01*
X116924953Y-117848883D01*
X116579155Y-117917617D01*
X116240798Y-118349219D01*
X116059106Y-118925969D01*
X116059079Y-119112182D01*
X116082784Y-119854047D01*
X115940898Y-120024264D01*
X115743489Y-119802353D01*
X115573641Y-119655818D01*
X115585810Y-120038819D01*
X115637079Y-120330661D01*
X115717919Y-120979532D01*
X115581118Y-121179628D01*
X115359641Y-121128822D01*
X115032417Y-121117341D01*
X115049291Y-121540711D01*
X115057243Y-121571690D01*
X115070298Y-122060052D01*
X114920881Y-122192941D01*
X114613353Y-122442077D01*
X114465769Y-122790588D01*
X114206284Y-123242466D01*
X113869354Y-123392163D01*
X113663127Y-123167411D01*
X113655882Y-123071776D01*
X113472154Y-122894754D01*
X113352184Y-122943012D01*
X113170825Y-123287055D01*
X113206569Y-123386491D01*
X113208851Y-123809403D01*
X113001076Y-124427956D01*
X112698230Y-124973816D01*
X112437524Y-125181176D01*
X112146831Y-124947472D01*
X112094325Y-124829446D01*
X111864487Y-124558341D01*
X111606053Y-124720743D01*
X111428454Y-125168673D01*
X111433968Y-125722431D01*
X111532079Y-126269491D01*
X111421516Y-126283792D01*
X111116536Y-125928235D01*
X110767497Y-125529908D01*
X110705351Y-125638292D01*
X110795021Y-126077647D01*
X110813567Y-126579609D01*
X110545285Y-127038768D01*
X109888387Y-127605499D01*
X109631994Y-127795882D01*
X108840473Y-128335366D01*
X108221787Y-128687993D01*
X107990798Y-128767059D01*
X107714614Y-129008895D01*
X107679412Y-129215294D01*
X107556134Y-129613469D01*
X107452028Y-129663529D01*
X107115228Y-129844276D01*
X106497756Y-130307682D01*
X106032616Y-130696031D01*
X105354433Y-131311502D01*
X105075752Y-131695421D01*
X105131279Y-131991928D01*
X105338241Y-132228894D01*
X105588179Y-132423591D01*
X105873963Y-132442547D01*
X106290139Y-132232954D01*
X106931252Y-131742001D01*
X107891847Y-130916880D01*
X108248416Y-130603373D01*
X109304803Y-129686511D01*
X110250757Y-128890786D01*
X110963175Y-128318372D01*
X111261940Y-128102158D01*
X111732895Y-127664818D01*
X111862941Y-127350472D01*
X112102365Y-127013814D01*
X112294871Y-126974118D01*
X112719038Y-126729878D01*
X113118911Y-126156007D01*
X113587443Y-125482296D01*
X114068992Y-125222183D01*
X114432960Y-125397736D01*
X114552353Y-125913795D01*
X114427046Y-126505247D01*
X113936484Y-126802753D01*
X113655882Y-126869529D01*
X112956413Y-127158500D01*
X112759412Y-127626753D01*
X112646322Y-128021820D01*
X112482136Y-128033317D01*
X112184419Y-128161651D01*
X111757140Y-128685357D01*
X111566992Y-128996883D01*
X110948675Y-129816378D01*
X110209204Y-130435333D01*
X110029007Y-130530246D01*
X109289085Y-131028929D01*
X108804420Y-131640809D01*
X108493920Y-132172269D01*
X108276628Y-132352941D01*
X107969246Y-132542973D01*
X107371786Y-133037827D01*
X106716353Y-133634704D01*
X105957737Y-134288236D01*
X105338184Y-134709300D01*
X105027127Y-134805709D01*
X104691984Y-134965107D01*
X104385263Y-135542965D01*
X104172424Y-136361246D01*
X104118924Y-137241912D01*
X104120701Y-137271063D01*
X104148559Y-138426235D01*
X104037175Y-139057227D01*
X103814843Y-139225882D01*
X103503417Y-138957850D01*
X103225228Y-138274866D01*
X103048494Y-137358603D01*
X103029378Y-137134118D01*
X102922639Y-136281579D01*
X102761118Y-135455382D01*
X102667913Y-134793344D01*
X102903842Y-134439964D01*
X103466429Y-134200927D01*
X104113176Y-133841350D01*
X104391805Y-133414011D01*
X104392353Y-133396732D01*
X104260285Y-133069177D01*
X104114178Y-133087239D01*
X103730390Y-133049765D01*
X103648307Y-132955463D01*
X103282464Y-132652809D01*
X103015214Y-132860294D01*
X102976464Y-133311869D01*
X102867172Y-133894727D01*
X102490570Y-134066937D01*
X102026971Y-133813854D01*
X101762622Y-133410475D01*
X101359773Y-132787491D01*
X101032445Y-132675450D01*
X100894168Y-133057791D01*
X100951607Y-133528768D01*
X100965163Y-134360509D01*
X100527114Y-135022885D01*
X100046948Y-135676730D01*
X99934687Y-136223873D01*
X100206560Y-136518858D01*
X100358235Y-136536471D01*
X100755900Y-136375114D01*
X100806471Y-136237647D01*
X101056750Y-135994858D01*
X101404118Y-135938823D01*
X101919477Y-136096835D01*
X101925166Y-136459860D01*
X101605400Y-136745740D01*
X101298200Y-137157851D01*
X100966087Y-137934435D01*
X100819506Y-138404118D01*
X100429976Y-139823529D01*
X97571944Y-139823529D01*
X97370001Y-138628235D01*
X99611176Y-138628235D01*
X99720511Y-138874201D01*
X99810392Y-138827451D01*
X99846155Y-138472817D01*
X99810392Y-138429020D01*
X99632742Y-138470039D01*
X99611176Y-138628235D01*
X97370001Y-138628235D01*
X97363841Y-138591780D01*
X97083656Y-137648028D01*
X96633999Y-137225165D01*
X96590516Y-137212222D01*
X96146943Y-136835294D01*
X99312353Y-136835294D01*
X99421688Y-137081260D01*
X99511569Y-137034510D01*
X99547332Y-136679876D01*
X99511569Y-136636078D01*
X99333918Y-136677098D01*
X99312353Y-136835294D01*
X96146943Y-136835294D01*
X96121973Y-136814076D01*
X96029870Y-136277501D01*
X96173777Y-135356119D01*
X96668275Y-134815252D01*
X97164098Y-134608475D01*
X97642795Y-134295294D01*
X99312353Y-134295294D01*
X99461765Y-134444706D01*
X99611176Y-134295294D01*
X99461765Y-134145882D01*
X99312353Y-134295294D01*
X97642795Y-134295294D01*
X97828202Y-134173994D01*
X98065070Y-133847059D01*
X99910000Y-133847059D01*
X100019335Y-134093024D01*
X100109216Y-134046274D01*
X100144979Y-133691641D01*
X100109216Y-133647843D01*
X99931565Y-133688862D01*
X99910000Y-133847059D01*
X98065070Y-133847059D01*
X98168226Y-133704680D01*
X98686169Y-133041152D01*
X99195893Y-132691123D01*
X99756291Y-132217009D01*
X99910000Y-131761700D01*
X100023499Y-131334270D01*
X101404118Y-131334270D01*
X101630330Y-131337236D01*
X101852353Y-131265709D01*
X102248252Y-130952204D01*
X102300588Y-130790263D01*
X102122911Y-130691290D01*
X101852353Y-130858823D01*
X101481245Y-131212423D01*
X101404118Y-131334270D01*
X100023499Y-131334270D01*
X100039835Y-131272751D01*
X100223178Y-131157647D01*
X100621344Y-131006395D01*
X101351510Y-130611672D01*
X101426290Y-130566073D01*
X104093529Y-130566073D01*
X104309765Y-130648543D01*
X104852954Y-130464804D01*
X105564821Y-130097553D01*
X106287091Y-129629484D01*
X106861488Y-129143293D01*
X106903961Y-129097680D01*
X107223611Y-128654288D01*
X107196107Y-128468245D01*
X107194569Y-128468235D01*
X106742109Y-128641430D01*
X106052767Y-129067937D01*
X105339979Y-129608139D01*
X105043361Y-129875418D01*
X104570130Y-130205964D01*
X104371008Y-130261176D01*
X104102326Y-130490015D01*
X104093529Y-130566073D01*
X101426290Y-130566073D01*
X102171333Y-130111765D01*
X103113729Y-129565126D01*
X103934210Y-129186615D01*
X104398155Y-129065882D01*
X104894443Y-128857861D01*
X104990000Y-128567843D01*
X105076567Y-128235628D01*
X105178017Y-128257821D01*
X105524822Y-128208427D01*
X106216981Y-127816834D01*
X106690259Y-127484159D01*
X108695370Y-127484159D01*
X108801527Y-127571765D01*
X109223614Y-127365752D01*
X109472353Y-127123529D01*
X109651688Y-126762900D01*
X109545532Y-126675294D01*
X109123444Y-126881307D01*
X108874706Y-127123529D01*
X108695370Y-127484159D01*
X106690259Y-127484159D01*
X107164788Y-127150606D01*
X108278536Y-126277307D01*
X109468520Y-125264500D01*
X110645035Y-124179750D01*
X110826647Y-124003428D01*
X112191530Y-122546316D01*
X112561236Y-122043529D01*
X113954706Y-122043529D01*
X114104118Y-122192941D01*
X114253529Y-122043529D01*
X114104118Y-121894118D01*
X113954706Y-122043529D01*
X112561236Y-122043529D01*
X113283021Y-121061928D01*
X114300822Y-119277386D01*
X114337824Y-119205632D01*
X114936048Y-117962750D01*
X115408290Y-116830235D01*
X115692720Y-115965022D01*
X115747647Y-115627341D01*
X115891108Y-114722124D01*
X116167164Y-113982049D01*
X116430350Y-113129839D01*
X116280685Y-112229656D01*
X116025040Y-111162694D01*
X115983943Y-110331216D01*
X116118144Y-109810266D01*
X116388396Y-109674889D01*
X116755451Y-110000128D01*
X117100614Y-110661916D01*
X117429644Y-111345313D01*
X117691591Y-111713513D01*
X117736921Y-111734118D01*
X117806910Y-111462505D01*
X117811155Y-110749410D01*
X117748949Y-109747451D01*
X117746273Y-109717059D01*
X117684757Y-108365930D01*
X117795489Y-107441757D01*
X117991597Y-106952941D01*
X118306030Y-106095175D01*
X118426470Y-105241595D01*
X118645154Y-104315714D01*
X119127453Y-103824943D01*
X119994637Y-103393650D01*
X121173353Y-102970152D01*
X122396086Y-102636893D01*
X123395316Y-102476318D01*
X123517059Y-102472156D01*
X124338772Y-102390191D01*
X125231932Y-102192193D01*
X126002385Y-101935814D01*
X126455976Y-101678706D01*
X126505294Y-101584833D01*
X126239741Y-101382366D01*
X125557882Y-101141770D01*
X124965241Y-100994535D01*
X123845309Y-100677391D01*
X122757094Y-100241685D01*
X121847444Y-99761748D01*
X121263209Y-99311912D01*
X121126471Y-99051420D01*
X121258216Y-98622521D01*
X121595741Y-97872150D01*
X121873529Y-97327193D01*
X122302419Y-96411908D01*
X122572602Y-95624504D01*
X122620588Y-95323025D01*
X122741519Y-94852608D01*
X123157347Y-94478899D01*
X123947623Y-94168367D01*
X125191899Y-93887483D01*
X126559616Y-93662791D01*
X128153944Y-93374578D01*
X129224800Y-93057017D01*
X129846318Y-92687847D01*
X129864012Y-92670563D01*
X130189201Y-92306449D01*
X130224646Y-92009692D01*
X129915756Y-91618079D01*
X129327700Y-91076904D01*
X127388059Y-89310175D01*
X125860901Y-87843099D01*
X124693649Y-86599966D01*
X123833723Y-85505066D01*
X123228544Y-84482687D01*
X122825534Y-83457118D01*
X122572114Y-82352649D01*
X122418961Y-81128690D01*
X122348033Y-80035539D01*
X122421993Y-79232453D01*
X122698856Y-78449200D01*
X123202943Y-77476821D01*
X123844318Y-76110819D01*
X124215800Y-74759594D01*
X124325972Y-73286499D01*
X124183417Y-71554886D01*
X123796717Y-69428107D01*
X123728296Y-69112450D01*
X123273924Y-67258380D01*
X122817050Y-65870188D01*
X122311601Y-64817696D01*
X122078854Y-64451854D01*
X121506348Y-63515206D01*
X121074101Y-62620730D01*
X120948654Y-62249992D01*
X120210788Y-60268372D01*
X118965340Y-58189538D01*
X117402274Y-56254563D01*
X116541905Y-55349792D01*
X115744604Y-54626163D01*
X114870677Y-53984940D01*
X113780430Y-53327385D01*
X112334169Y-52554763D01*
X111728070Y-52244009D01*
X110251691Y-51489024D01*
X109252814Y-50961522D01*
X108676329Y-50617867D01*
X108467126Y-50414420D01*
X108570094Y-50307542D01*
X108930125Y-50253597D01*
X109188288Y-50232916D01*
X110053186Y-50245218D01*
G37*
X110053186Y-50245218D02*
X110688645Y-50390887D01*
X110787580Y-50450829D01*
X111250329Y-50692176D01*
X112102779Y-51025610D01*
X113156084Y-51377567D01*
X114143162Y-51710353D01*
X114856808Y-52004167D01*
X115150789Y-52198345D01*
X115151889Y-52205536D01*
X115386075Y-52482731D01*
X115953490Y-52872022D01*
X116014648Y-52907342D01*
X116612501Y-53399474D01*
X117362854Y-54225583D01*
X118106436Y-55209759D01*
X118128196Y-55241687D01*
X118793922Y-56161902D01*
X119385342Y-56874317D01*
X119785235Y-57239071D01*
X119813357Y-57252296D01*
X120230906Y-57617303D01*
X120754927Y-58327586D01*
X121260354Y-59177448D01*
X121622121Y-59961191D01*
X121724118Y-60394952D01*
X121856788Y-60845275D01*
X122201306Y-61654603D01*
X122677430Y-62660531D01*
X123204921Y-63700656D01*
X123703537Y-64612574D01*
X124093038Y-65233880D01*
X124153931Y-65312803D01*
X124496950Y-65978033D01*
X124858577Y-67093049D01*
X125208646Y-68511983D01*
X125516992Y-70088969D01*
X125753451Y-71678138D01*
X125887856Y-73133623D01*
X125907402Y-73791960D01*
X125855053Y-74971051D01*
X125654382Y-75988991D01*
X125240456Y-77102440D01*
X124861765Y-77925133D01*
X124190931Y-79513978D01*
X123885115Y-80826061D01*
X123931719Y-82047861D01*
X124318151Y-83365856D01*
X124469112Y-83738721D01*
X124994092Y-84726775D01*
X125763296Y-85863015D01*
X126672279Y-87024710D01*
X127616594Y-88089131D01*
X128491796Y-88933549D01*
X129193438Y-89435234D01*
X129378041Y-89506980D01*
X129949247Y-89850180D01*
X130622851Y-90529887D01*
X130990256Y-91016097D01*
X131887668Y-92345810D01*
X131131995Y-93336548D01*
X130759510Y-93769881D01*
X130328305Y-94102401D01*
X129734425Y-94368765D01*
X128873912Y-94603627D01*
X127642812Y-94841643D01*
X125937168Y-95117468D01*
X125662723Y-95159823D01*
X124809739Y-95382967D01*
X124271144Y-95700515D01*
X124198831Y-95809439D01*
X123883999Y-96330348D01*
X123353283Y-96985596D01*
X123309004Y-97033869D01*
X122758269Y-97927416D01*
X122681131Y-98570094D01*
X122793036Y-98990091D01*
X123098151Y-99290148D01*
X123727415Y-99548373D01*
X124811768Y-99842871D01*
X124817062Y-99844194D01*
X126165086Y-100219602D01*
X127023848Y-100582065D01*
X127495497Y-101004749D01*
X127682184Y-101560818D01*
X127700588Y-101909530D01*
X127610711Y-102534333D01*
X127239894Y-102754533D01*
X126971165Y-102769412D01*
X126349738Y-102863596D01*
X126082853Y-103026500D01*
X125713644Y-103219857D01*
X124969932Y-103405341D01*
X124602178Y-103464759D01*
X123549675Y-103699229D01*
X122324643Y-104097385D01*
X121680491Y-104358286D01*
X120797402Y-104779653D01*
X120265025Y-105179913D01*
X119925927Y-105747214D01*
X119622674Y-106669709D01*
X119557647Y-106895323D01*
X119199140Y-108394710D01*
X119060234Y-109766880D01*
X119133178Y-111252030D01*
X119365859Y-112839725D01*
X119531593Y-114294006D01*
X119517470Y-115879316D01*
X119365435Y-117495967D01*
X119218447Y-118806363D01*
X119164358Y-119656624D01*
X119211373Y-120178233D01*
X119367697Y-120502669D01*
X119565313Y-120698823D01*
X119986117Y-121201160D01*
X120526966Y-122038877D01*
X120943879Y-122790588D01*
X121465189Y-123749358D01*
X121942503Y-124539107D01*
X122205790Y-124905882D01*
X122552469Y-125519871D01*
X122620588Y-125863039D01*
X122868034Y-126298479D01*
X123478140Y-126750085D01*
X123626116Y-126825585D01*
X124954732Y-127643178D01*
X125816159Y-128586834D01*
X126078361Y-129193781D01*
X126437018Y-129777198D01*
X127202567Y-130050305D01*
X129249508Y-130612039D01*
X131456922Y-131664783D01*
X132705882Y-132439499D01*
X133701452Y-133146892D01*
X133750000Y-133250000D01*
X133750000Y-133500000D01*
X133750000Y-133750000D01*
X133750000Y-134000000D01*
X133500000Y-134500000D01*
X133250000Y-134500000D01*
X132654714Y-134217057D01*
X132590522Y-134174364D01*
X131737996Y-133680371D01*
X130636006Y-133143465D01*
X129415469Y-132614558D01*
X128207302Y-132144562D01*
X127142420Y-131784390D01*
X126351739Y-131584955D01*
X125966176Y-131597169D01*
X125965424Y-131597909D01*
X125752306Y-131433970D01*
X125314682Y-130877779D01*
X124742779Y-130045144D01*
X124677980Y-129945418D01*
X123999158Y-129000411D01*
X123331597Y-128243437D01*
X122822755Y-127840253D01*
X122175654Y-127345543D01*
X121569592Y-126581152D01*
X121182410Y-125795153D01*
X121126471Y-125474081D01*
X120969601Y-125054400D01*
X120562445Y-124325258D01*
X120000179Y-123428643D01*
X119377982Y-122506541D01*
X118791032Y-121700941D01*
X118334507Y-121153830D01*
X118125801Y-120997647D01*
X117743708Y-120765911D01*
X117464541Y-120252604D01*
X117398089Y-119730572D01*
X117527779Y-119511446D01*
X117772355Y-119093996D01*
X117922086Y-118347057D01*
X117932161Y-118206082D01*
X118021893Y-117496355D01*
X118171605Y-117128499D01*
X118207224Y-117114281D01*
X118303562Y-116856170D01*
X118292158Y-116220221D01*
X118199012Y-115411088D01*
X118050121Y-114633426D01*
X117871483Y-114091888D01*
X117811780Y-114001340D01*
X117544713Y-113983031D01*
X117307642Y-114433042D01*
X117137420Y-115222088D01*
X117070898Y-116220881D01*
X117078031Y-116575593D01*
X117073080Y-117365903D01*
X116993436Y-117810311D01*
X116924953Y-117848883D01*
X116579155Y-117917617D01*
X116240798Y-118349219D01*
X116059106Y-118925969D01*
X116059079Y-119112182D01*
X116082784Y-119854047D01*
X115940898Y-120024264D01*
X115743489Y-119802353D01*
X115573641Y-119655818D01*
X115585810Y-120038819D01*
X115637079Y-120330661D01*
X115717919Y-120979532D01*
X115581118Y-121179628D01*
X115359641Y-121128822D01*
X115032417Y-121117341D01*
X115049291Y-121540711D01*
X115057243Y-121571690D01*
X115070298Y-122060052D01*
X114920881Y-122192941D01*
X114613353Y-122442077D01*
X114465769Y-122790588D01*
X114206284Y-123242466D01*
X113869354Y-123392163D01*
X113663127Y-123167411D01*
X113655882Y-123071776D01*
X113472154Y-122894754D01*
X113352184Y-122943012D01*
X113170825Y-123287055D01*
X113206569Y-123386491D01*
X113208851Y-123809403D01*
X113001076Y-124427956D01*
X112698230Y-124973816D01*
X112437524Y-125181176D01*
X112146831Y-124947472D01*
X112094325Y-124829446D01*
X111864487Y-124558341D01*
X111606053Y-124720743D01*
X111428454Y-125168673D01*
X111433968Y-125722431D01*
X111532079Y-126269491D01*
X111421516Y-126283792D01*
X111116536Y-125928235D01*
X110767497Y-125529908D01*
X110705351Y-125638292D01*
X110795021Y-126077647D01*
X110813567Y-126579609D01*
X110545285Y-127038768D01*
X109888387Y-127605499D01*
X109631994Y-127795882D01*
X108840473Y-128335366D01*
X108221787Y-128687993D01*
X107990798Y-128767059D01*
X107714614Y-129008895D01*
X107679412Y-129215294D01*
X107556134Y-129613469D01*
X107452028Y-129663529D01*
X107115228Y-129844276D01*
X106497756Y-130307682D01*
X106032616Y-130696031D01*
X105354433Y-131311502D01*
X105075752Y-131695421D01*
X105131279Y-131991928D01*
X105338241Y-132228894D01*
X105588179Y-132423591D01*
X105873963Y-132442547D01*
X106290139Y-132232954D01*
X106931252Y-131742001D01*
X107891847Y-130916880D01*
X108248416Y-130603373D01*
X109304803Y-129686511D01*
X110250757Y-128890786D01*
X110963175Y-128318372D01*
X111261940Y-128102158D01*
X111732895Y-127664818D01*
X111862941Y-127350472D01*
X112102365Y-127013814D01*
X112294871Y-126974118D01*
X112719038Y-126729878D01*
X113118911Y-126156007D01*
X113587443Y-125482296D01*
X114068992Y-125222183D01*
X114432960Y-125397736D01*
X114552353Y-125913795D01*
X114427046Y-126505247D01*
X113936484Y-126802753D01*
X113655882Y-126869529D01*
X112956413Y-127158500D01*
X112759412Y-127626753D01*
X112646322Y-128021820D01*
X112482136Y-128033317D01*
X112184419Y-128161651D01*
X111757140Y-128685357D01*
X111566992Y-128996883D01*
X110948675Y-129816378D01*
X110209204Y-130435333D01*
X110029007Y-130530246D01*
X109289085Y-131028929D01*
X108804420Y-131640809D01*
X108493920Y-132172269D01*
X108276628Y-132352941D01*
X107969246Y-132542973D01*
X107371786Y-133037827D01*
X106716353Y-133634704D01*
X105957737Y-134288236D01*
X105338184Y-134709300D01*
X105027127Y-134805709D01*
X104691984Y-134965107D01*
X104385263Y-135542965D01*
X104172424Y-136361246D01*
X104118924Y-137241912D01*
X104120701Y-137271063D01*
X104148559Y-138426235D01*
X104037175Y-139057227D01*
X103814843Y-139225882D01*
X103503417Y-138957850D01*
X103225228Y-138274866D01*
X103048494Y-137358603D01*
X103029378Y-137134118D01*
X102922639Y-136281579D01*
X102761118Y-135455382D01*
X102667913Y-134793344D01*
X102903842Y-134439964D01*
X103466429Y-134200927D01*
X104113176Y-133841350D01*
X104391805Y-133414011D01*
X104392353Y-133396732D01*
X104260285Y-133069177D01*
X104114178Y-133087239D01*
X103730390Y-133049765D01*
X103648307Y-132955463D01*
X103282464Y-132652809D01*
X103015214Y-132860294D01*
X102976464Y-133311869D01*
X102867172Y-133894727D01*
X102490570Y-134066937D01*
X102026971Y-133813854D01*
X101762622Y-133410475D01*
X101359773Y-132787491D01*
X101032445Y-132675450D01*
X100894168Y-133057791D01*
X100951607Y-133528768D01*
X100965163Y-134360509D01*
X100527114Y-135022885D01*
X100046948Y-135676730D01*
X99934687Y-136223873D01*
X100206560Y-136518858D01*
X100358235Y-136536471D01*
X100755900Y-136375114D01*
X100806471Y-136237647D01*
X101056750Y-135994858D01*
X101404118Y-135938823D01*
X101919477Y-136096835D01*
X101925166Y-136459860D01*
X101605400Y-136745740D01*
X101298200Y-137157851D01*
X100966087Y-137934435D01*
X100819506Y-138404118D01*
X100429976Y-139823529D01*
X97571944Y-139823529D01*
X97370001Y-138628235D01*
X99611176Y-138628235D01*
X99720511Y-138874201D01*
X99810392Y-138827451D01*
X99846155Y-138472817D01*
X99810392Y-138429020D01*
X99632742Y-138470039D01*
X99611176Y-138628235D01*
X97370001Y-138628235D01*
X97363841Y-138591780D01*
X97083656Y-137648028D01*
X96633999Y-137225165D01*
X96590516Y-137212222D01*
X96146943Y-136835294D01*
X99312353Y-136835294D01*
X99421688Y-137081260D01*
X99511569Y-137034510D01*
X99547332Y-136679876D01*
X99511569Y-136636078D01*
X99333918Y-136677098D01*
X99312353Y-136835294D01*
X96146943Y-136835294D01*
X96121973Y-136814076D01*
X96029870Y-136277501D01*
X96173777Y-135356119D01*
X96668275Y-134815252D01*
X97164098Y-134608475D01*
X97642795Y-134295294D01*
X99312353Y-134295294D01*
X99461765Y-134444706D01*
X99611176Y-134295294D01*
X99461765Y-134145882D01*
X99312353Y-134295294D01*
X97642795Y-134295294D01*
X97828202Y-134173994D01*
X98065070Y-133847059D01*
X99910000Y-133847059D01*
X100019335Y-134093024D01*
X100109216Y-134046274D01*
X100144979Y-133691641D01*
X100109216Y-133647843D01*
X99931565Y-133688862D01*
X99910000Y-133847059D01*
X98065070Y-133847059D01*
X98168226Y-133704680D01*
X98686169Y-133041152D01*
X99195893Y-132691123D01*
X99756291Y-132217009D01*
X99910000Y-131761700D01*
X100023499Y-131334270D01*
X101404118Y-131334270D01*
X101630330Y-131337236D01*
X101852353Y-131265709D01*
X102248252Y-130952204D01*
X102300588Y-130790263D01*
X102122911Y-130691290D01*
X101852353Y-130858823D01*
X101481245Y-131212423D01*
X101404118Y-131334270D01*
X100023499Y-131334270D01*
X100039835Y-131272751D01*
X100223178Y-131157647D01*
X100621344Y-131006395D01*
X101351510Y-130611672D01*
X101426290Y-130566073D01*
X104093529Y-130566073D01*
X104309765Y-130648543D01*
X104852954Y-130464804D01*
X105564821Y-130097553D01*
X106287091Y-129629484D01*
X106861488Y-129143293D01*
X106903961Y-129097680D01*
X107223611Y-128654288D01*
X107196107Y-128468245D01*
X107194569Y-128468235D01*
X106742109Y-128641430D01*
X106052767Y-129067937D01*
X105339979Y-129608139D01*
X105043361Y-129875418D01*
X104570130Y-130205964D01*
X104371008Y-130261176D01*
X104102326Y-130490015D01*
X104093529Y-130566073D01*
X101426290Y-130566073D01*
X102171333Y-130111765D01*
X103113729Y-129565126D01*
X103934210Y-129186615D01*
X104398155Y-129065882D01*
X104894443Y-128857861D01*
X104990000Y-128567843D01*
X105076567Y-128235628D01*
X105178017Y-128257821D01*
X105524822Y-128208427D01*
X106216981Y-127816834D01*
X106690259Y-127484159D01*
X108695370Y-127484159D01*
X108801527Y-127571765D01*
X109223614Y-127365752D01*
X109472353Y-127123529D01*
X109651688Y-126762900D01*
X109545532Y-126675294D01*
X109123444Y-126881307D01*
X108874706Y-127123529D01*
X108695370Y-127484159D01*
X106690259Y-127484159D01*
X107164788Y-127150606D01*
X108278536Y-126277307D01*
X109468520Y-125264500D01*
X110645035Y-124179750D01*
X110826647Y-124003428D01*
X112191530Y-122546316D01*
X112561236Y-122043529D01*
X113954706Y-122043529D01*
X114104118Y-122192941D01*
X114253529Y-122043529D01*
X114104118Y-121894118D01*
X113954706Y-122043529D01*
X112561236Y-122043529D01*
X113283021Y-121061928D01*
X114300822Y-119277386D01*
X114337824Y-119205632D01*
X114936048Y-117962750D01*
X115408290Y-116830235D01*
X115692720Y-115965022D01*
X115747647Y-115627341D01*
X115891108Y-114722124D01*
X116167164Y-113982049D01*
X116430350Y-113129839D01*
X116280685Y-112229656D01*
X116025040Y-111162694D01*
X115983943Y-110331216D01*
X116118144Y-109810266D01*
X116388396Y-109674889D01*
X116755451Y-110000128D01*
X117100614Y-110661916D01*
X117429644Y-111345313D01*
X117691591Y-111713513D01*
X117736921Y-111734118D01*
X117806910Y-111462505D01*
X117811155Y-110749410D01*
X117748949Y-109747451D01*
X117746273Y-109717059D01*
X117684757Y-108365930D01*
X117795489Y-107441757D01*
X117991597Y-106952941D01*
X118306030Y-106095175D01*
X118426470Y-105241595D01*
X118645154Y-104315714D01*
X119127453Y-103824943D01*
X119994637Y-103393650D01*
X121173353Y-102970152D01*
X122396086Y-102636893D01*
X123395316Y-102476318D01*
X123517059Y-102472156D01*
X124338772Y-102390191D01*
X125231932Y-102192193D01*
X126002385Y-101935814D01*
X126455976Y-101678706D01*
X126505294Y-101584833D01*
X126239741Y-101382366D01*
X125557882Y-101141770D01*
X124965241Y-100994535D01*
X123845309Y-100677391D01*
X122757094Y-100241685D01*
X121847444Y-99761748D01*
X121263209Y-99311912D01*
X121126471Y-99051420D01*
X121258216Y-98622521D01*
X121595741Y-97872150D01*
X121873529Y-97327193D01*
X122302419Y-96411908D01*
X122572602Y-95624504D01*
X122620588Y-95323025D01*
X122741519Y-94852608D01*
X123157347Y-94478899D01*
X123947623Y-94168367D01*
X125191899Y-93887483D01*
X126559616Y-93662791D01*
X128153944Y-93374578D01*
X129224800Y-93057017D01*
X129846318Y-92687847D01*
X129864012Y-92670563D01*
X130189201Y-92306449D01*
X130224646Y-92009692D01*
X129915756Y-91618079D01*
X129327700Y-91076904D01*
X127388059Y-89310175D01*
X125860901Y-87843099D01*
X124693649Y-86599966D01*
X123833723Y-85505066D01*
X123228544Y-84482687D01*
X122825534Y-83457118D01*
X122572114Y-82352649D01*
X122418961Y-81128690D01*
X122348033Y-80035539D01*
X122421993Y-79232453D01*
X122698856Y-78449200D01*
X123202943Y-77476821D01*
X123844318Y-76110819D01*
X124215800Y-74759594D01*
X124325972Y-73286499D01*
X124183417Y-71554886D01*
X123796717Y-69428107D01*
X123728296Y-69112450D01*
X123273924Y-67258380D01*
X122817050Y-65870188D01*
X122311601Y-64817696D01*
X122078854Y-64451854D01*
X121506348Y-63515206D01*
X121074101Y-62620730D01*
X120948654Y-62249992D01*
X120210788Y-60268372D01*
X118965340Y-58189538D01*
X117402274Y-56254563D01*
X116541905Y-55349792D01*
X115744604Y-54626163D01*
X114870677Y-53984940D01*
X113780430Y-53327385D01*
X112334169Y-52554763D01*
X111728070Y-52244009D01*
X110251691Y-51489024D01*
X109252814Y-50961522D01*
X108676329Y-50617867D01*
X108467126Y-50414420D01*
X108570094Y-50307542D01*
X108930125Y-50253597D01*
X109188288Y-50232916D01*
X110053186Y-50245218D01*
G36*
X116843333Y-139624314D02*
G01*
X116802314Y-139801964D01*
X116644118Y-139823529D01*
X116398152Y-139714194D01*
X116444902Y-139624314D01*
X116799536Y-139588550D01*
X116843333Y-139624314D01*
G37*
X116843333Y-139624314D02*
X116802314Y-139801964D01*
X116644118Y-139823529D01*
X116398152Y-139714194D01*
X116444902Y-139624314D01*
X116799536Y-139588550D01*
X116843333Y-139624314D01*
G36*
X123517059Y-139375294D02*
G01*
X123802132Y-139643819D01*
X123815882Y-139691753D01*
X123584685Y-139820103D01*
X123517059Y-139823529D01*
X123229718Y-139593808D01*
X123218235Y-139507070D01*
X123401306Y-139328602D01*
X123517059Y-139375294D01*
G37*
X123517059Y-139375294D02*
X123802132Y-139643819D01*
X123815882Y-139691753D01*
X123584685Y-139820103D01*
X123517059Y-139823529D01*
X123229718Y-139593808D01*
X123218235Y-139507070D01*
X123401306Y-139328602D01*
X123517059Y-139375294D01*
G36*
X125808039Y-139624314D02*
G01*
X125767020Y-139801964D01*
X125608823Y-139823529D01*
X125362858Y-139714194D01*
X125409608Y-139624314D01*
X125764241Y-139588550D01*
X125808039Y-139624314D01*
G37*
X125808039Y-139624314D02*
X125767020Y-139801964D01*
X125608823Y-139823529D01*
X125362858Y-139714194D01*
X125409608Y-139624314D01*
X125764241Y-139588550D01*
X125808039Y-139624314D01*
G36*
X126505294Y-137582353D02*
G01*
X126753277Y-138035790D01*
X126766460Y-138755758D01*
X126544844Y-139459194D01*
X126505294Y-139524706D01*
X126321086Y-139652352D01*
X126229467Y-139270355D01*
X126211046Y-138685305D01*
X126267817Y-137890155D01*
X126429306Y-137567560D01*
X126505294Y-137582353D01*
G37*
X126505294Y-137582353D02*
X126753277Y-138035790D01*
X126766460Y-138755758D01*
X126544844Y-139459194D01*
X126505294Y-139524706D01*
X126321086Y-139652352D01*
X126229467Y-139270355D01*
X126211046Y-138685305D01*
X126267817Y-137890155D01*
X126429306Y-137567560D01*
X126505294Y-137582353D01*
G36*
X50301638Y-137676689D02*
G01*
X50706573Y-138220881D01*
X50871210Y-138784936D01*
X50847615Y-138910186D01*
X50568578Y-138949231D01*
X50081176Y-138707759D01*
X49571427Y-138209184D01*
X49423695Y-137736923D01*
X49668304Y-137455740D01*
X49846545Y-137432941D01*
X50301638Y-137676689D01*
G37*
X50301638Y-137676689D02*
X50706573Y-138220881D01*
X50871210Y-138784936D01*
X50847615Y-138910186D01*
X50568578Y-138949231D01*
X50081176Y-138707759D01*
X49571427Y-138209184D01*
X49423695Y-137736923D01*
X49668304Y-137455740D01*
X49846545Y-137432941D01*
X50301638Y-137676689D01*
G36*
X102898235Y-138777647D02*
G01*
X102748823Y-138927059D01*
X102599412Y-138777647D01*
X102748823Y-138628235D01*
X102898235Y-138777647D01*
G37*
X102898235Y-138777647D02*
X102748823Y-138927059D01*
X102599412Y-138777647D01*
X102748823Y-138628235D01*
X102898235Y-138777647D01*
G36*
X105513226Y-135902152D02*
G01*
X105627108Y-136546941D01*
X105644362Y-136685882D01*
X105665359Y-137373908D01*
X105559846Y-137721495D01*
X105527643Y-137731765D01*
X105369745Y-137468897D01*
X105290869Y-136822584D01*
X105288823Y-136685882D01*
X105318186Y-135994113D01*
X105390370Y-135648861D01*
X105405542Y-135640000D01*
X105513226Y-135902152D01*
G37*
X105513226Y-135902152D02*
X105627108Y-136546941D01*
X105644362Y-136685882D01*
X105665359Y-137373908D01*
X105559846Y-137721495D01*
X105527643Y-137731765D01*
X105369745Y-137468897D01*
X105290869Y-136822584D01*
X105288823Y-136685882D01*
X105318186Y-135994113D01*
X105390370Y-135648861D01*
X105405542Y-135640000D01*
X105513226Y-135902152D01*
G36*
X126709779Y-135274621D02*
G01*
X126659637Y-135624463D01*
X126673004Y-136121654D01*
X127147788Y-136547039D01*
X127371719Y-136670345D01*
X128182469Y-136997097D01*
X128877882Y-137134111D01*
X128881043Y-137134118D01*
X129374622Y-137256536D01*
X129493529Y-137432941D01*
X129247749Y-137662254D01*
X128638836Y-137690943D01*
X127859435Y-137538146D01*
X127102189Y-137223002D01*
X127045711Y-137189761D01*
X126426421Y-136643287D01*
X126071223Y-136004819D01*
X126017105Y-135432373D01*
X126301051Y-135083963D01*
X126543067Y-135042353D01*
X126709779Y-135274621D01*
G37*
X126709779Y-135274621D02*
X126659637Y-135624463D01*
X126673004Y-136121654D01*
X127147788Y-136547039D01*
X127371719Y-136670345D01*
X128182469Y-136997097D01*
X128877882Y-137134111D01*
X128881043Y-137134118D01*
X129374622Y-137256536D01*
X129493529Y-137432941D01*
X129247749Y-137662254D01*
X128638836Y-137690943D01*
X127859435Y-137538146D01*
X127102189Y-137223002D01*
X127045711Y-137189761D01*
X126426421Y-136643287D01*
X126071223Y-136004819D01*
X126017105Y-135432373D01*
X126301051Y-135083963D01*
X126543067Y-135042353D01*
X126709779Y-135274621D01*
G36*
X125509216Y-136934902D02*
G01*
X125468196Y-137112552D01*
X125310000Y-137134118D01*
X125064034Y-137024783D01*
X125110784Y-136934902D01*
X125465418Y-136899139D01*
X125509216Y-136934902D01*
G37*
X125509216Y-136934902D02*
X125468196Y-137112552D01*
X125310000Y-137134118D01*
X125064034Y-137024783D01*
X125110784Y-136934902D01*
X125465418Y-136899139D01*
X125509216Y-136934902D01*
G36*
X107969682Y-135854474D02*
G01*
X107978235Y-135921188D01*
X107761021Y-136325895D01*
X107679412Y-136387059D01*
X107423589Y-136319316D01*
X107380588Y-136105871D01*
X107536604Y-135697016D01*
X107679412Y-135640000D01*
X107969682Y-135854474D01*
G37*
X107969682Y-135854474D02*
X107978235Y-135921188D01*
X107761021Y-136325895D01*
X107679412Y-136387059D01*
X107423589Y-136319316D01*
X107380588Y-136105871D01*
X107536604Y-135697016D01*
X107679412Y-135640000D01*
X107969682Y-135854474D01*
G36*
X123994497Y-136060742D02*
G01*
X124114706Y-136237647D01*
X123873949Y-136505668D01*
X123684106Y-136536471D01*
X123175345Y-136354352D01*
X123068823Y-136237647D01*
X123160319Y-136002446D01*
X123499423Y-135938823D01*
X123994497Y-136060742D01*
G37*
X123994497Y-136060742D02*
X124114706Y-136237647D01*
X123873949Y-136505668D01*
X123684106Y-136536471D01*
X123175345Y-136354352D01*
X123068823Y-136237647D01*
X123160319Y-136002446D01*
X123499423Y-135938823D01*
X123994497Y-136060742D01*
G36*
X110059792Y-135031002D02*
G01*
X109882035Y-135282718D01*
X109491267Y-135733811D01*
X109391339Y-135938823D01*
X109254726Y-136114824D01*
X109197121Y-135732341D01*
X109308287Y-135124906D01*
X109492234Y-134880654D01*
X109889329Y-134814763D01*
X110059792Y-135031002D01*
G37*
X110059792Y-135031002D02*
X109882035Y-135282718D01*
X109491267Y-135733811D01*
X109391339Y-135938823D01*
X109254726Y-136114824D01*
X109197121Y-135732341D01*
X109308287Y-135124906D01*
X109492234Y-134880654D01*
X109889329Y-134814763D01*
X110059792Y-135031002D01*
G36*
X54950812Y-133756629D02*
G01*
X55473414Y-134244658D01*
X55623180Y-134400381D01*
X56156539Y-135046234D01*
X56416802Y-135538530D01*
X56412400Y-135670381D01*
X56144021Y-135890417D01*
X55746009Y-135729651D01*
X55135460Y-135180000D01*
X54683165Y-134543570D01*
X54549105Y-133960977D01*
X54552723Y-133941522D01*
X54680131Y-133671108D01*
X54950812Y-133756629D01*
G37*
X54950812Y-133756629D02*
X55473414Y-134244658D01*
X55623180Y-134400381D01*
X56156539Y-135046234D01*
X56416802Y-135538530D01*
X56412400Y-135670381D01*
X56144021Y-135890417D01*
X55746009Y-135729651D01*
X55135460Y-135180000D01*
X54683165Y-134543570D01*
X54549105Y-133960977D01*
X54552723Y-133941522D01*
X54680131Y-133671108D01*
X54950812Y-133756629D01*
G36*
X74122871Y-131690651D02*
G01*
X74061765Y-132054118D01*
X74040205Y-132537142D01*
X74349830Y-132651765D01*
X74867965Y-132885592D01*
X75024163Y-133552879D01*
X74814264Y-134577632D01*
X74536817Y-135326601D01*
X74222481Y-135676795D01*
X73668394Y-135752197D01*
X72972984Y-135702960D01*
X71884203Y-135607715D01*
X72806440Y-133532093D01*
X73278605Y-132541248D01*
X73688992Y-131807659D01*
X73960816Y-131465976D01*
X73990064Y-131456471D01*
X74122871Y-131690651D01*
G37*
X74122871Y-131690651D02*
X74061765Y-132054118D01*
X74040205Y-132537142D01*
X74349830Y-132651765D01*
X74867965Y-132885592D01*
X75024163Y-133552879D01*
X74814264Y-134577632D01*
X74536817Y-135326601D01*
X74222481Y-135676795D01*
X73668394Y-135752197D01*
X72972984Y-135702960D01*
X71884203Y-135607715D01*
X72806440Y-133532093D01*
X73278605Y-132541248D01*
X73688992Y-131807659D01*
X73960816Y-131465976D01*
X73990064Y-131456471D01*
X74122871Y-131690651D01*
G36*
X125600140Y-135568574D02*
G01*
X125608823Y-135640000D01*
X125381426Y-135930140D01*
X125310000Y-135938823D01*
X125019860Y-135711426D01*
X125011176Y-135640000D01*
X125238574Y-135349860D01*
X125310000Y-135341176D01*
X125600140Y-135568574D01*
G37*
X125600140Y-135568574D02*
X125608823Y-135640000D01*
X125381426Y-135930140D01*
X125310000Y-135938823D01*
X125019860Y-135711426D01*
X125011176Y-135640000D01*
X125238574Y-135349860D01*
X125310000Y-135341176D01*
X125600140Y-135568574D01*
G36*
X128198627Y-135141961D02*
G01*
X128234391Y-135496594D01*
X128198627Y-135540392D01*
X128020977Y-135499373D01*
X127999412Y-135341176D01*
X128108747Y-135095211D01*
X128198627Y-135141961D01*
G37*
X128198627Y-135141961D02*
X128234391Y-135496594D01*
X128198627Y-135540392D01*
X128020977Y-135499373D01*
X127999412Y-135341176D01*
X128108747Y-135095211D01*
X128198627Y-135141961D01*
G36*
X126259617Y-132639969D02*
G01*
X126662963Y-133139383D01*
X126658405Y-133478597D01*
X126392792Y-133788804D01*
X126017211Y-134056013D01*
X125887058Y-133985798D01*
X125835819Y-133498297D01*
X125753882Y-132836963D01*
X125641296Y-131976279D01*
X126259617Y-132639969D01*
G37*
X126259617Y-132639969D02*
X126662963Y-133139383D01*
X126658405Y-133478597D01*
X126392792Y-133788804D01*
X126017211Y-134056013D01*
X125887058Y-133985798D01*
X125835819Y-133498297D01*
X125753882Y-132836963D01*
X125641296Y-131976279D01*
X126259617Y-132639969D01*
G36*
X125310000Y-133398823D02*
G01*
X125160588Y-133548235D01*
X125011176Y-133398823D01*
X125160588Y-133249412D01*
X125310000Y-133398823D01*
G37*
X125310000Y-133398823D02*
X125160588Y-133548235D01*
X125011176Y-133398823D01*
X125160588Y-133249412D01*
X125310000Y-133398823D01*
G36*
X125011176Y-131605882D02*
G01*
X124861765Y-131755294D01*
X124712353Y-131605882D01*
X124861765Y-131456471D01*
X125011176Y-131605882D01*
G37*
X125011176Y-131605882D02*
X124861765Y-131755294D01*
X124712353Y-131605882D01*
X124861765Y-131456471D01*
X125011176Y-131605882D01*
G36*
X112457162Y-131090021D02*
G01*
X112460588Y-131157647D01*
X112230867Y-131444987D01*
X112144129Y-131456471D01*
X111965661Y-131273400D01*
X112012353Y-131157647D01*
X112280878Y-130872574D01*
X112328812Y-130858823D01*
X112457162Y-131090021D01*
G37*
X112457162Y-131090021D02*
X112460588Y-131157647D01*
X112230867Y-131444987D01*
X112144129Y-131456471D01*
X111965661Y-131273400D01*
X112012353Y-131157647D01*
X112280878Y-130872574D01*
X112328812Y-130858823D01*
X112457162Y-131090021D01*
G36*
X98714706Y-131008235D02*
G01*
X98565294Y-131157647D01*
X98415882Y-131008235D01*
X98565294Y-130858823D01*
X98714706Y-131008235D01*
G37*
X98714706Y-131008235D02*
X98565294Y-131157647D01*
X98415882Y-131008235D01*
X98565294Y-130858823D01*
X98714706Y-131008235D01*
G36*
X107976393Y-124485217D02*
G01*
X107978235Y-124504508D01*
X107758795Y-124818539D01*
X107181287Y-125373833D01*
X106366930Y-126054630D01*
X106299458Y-126107699D01*
X105384925Y-126835980D01*
X104605555Y-127478036D01*
X104132987Y-127892221D01*
X103021105Y-128787832D01*
X101661841Y-129639641D01*
X100683729Y-130119879D01*
X100012049Y-130377845D01*
X99757418Y-130380896D01*
X99795801Y-130127906D01*
X99801896Y-130111874D01*
X100178117Y-129714662D01*
X100390206Y-129663529D01*
X100767090Y-129504532D01*
X100806471Y-129387810D01*
X101032194Y-129118696D01*
X101615109Y-128623773D01*
X102413833Y-128006785D01*
X103286983Y-127371476D01*
X104093175Y-126821589D01*
X104691027Y-126460868D01*
X104910351Y-126376471D01*
X105248918Y-126196640D01*
X105717799Y-125818372D01*
X106466040Y-125208405D01*
X107184902Y-124728825D01*
X107734861Y-124460730D01*
X107976393Y-124485217D01*
G37*
X107976393Y-124485217D02*
X107978235Y-124504508D01*
X107758795Y-124818539D01*
X107181287Y-125373833D01*
X106366930Y-126054630D01*
X106299458Y-126107699D01*
X105384925Y-126835980D01*
X104605555Y-127478036D01*
X104132987Y-127892221D01*
X103021105Y-128787832D01*
X101661841Y-129639641D01*
X100683729Y-130119879D01*
X100012049Y-130377845D01*
X99757418Y-130380896D01*
X99795801Y-130127906D01*
X99801896Y-130111874D01*
X100178117Y-129714662D01*
X100390206Y-129663529D01*
X100767090Y-129504532D01*
X100806471Y-129387810D01*
X101032194Y-129118696D01*
X101615109Y-128623773D01*
X102413833Y-128006785D01*
X103286983Y-127371476D01*
X104093175Y-126821589D01*
X104691027Y-126460868D01*
X104910351Y-126376471D01*
X105248918Y-126196640D01*
X105717799Y-125818372D01*
X106466040Y-125208405D01*
X107184902Y-124728825D01*
X107734861Y-124460730D01*
X107976393Y-124485217D01*
G36*
X113310888Y-129784406D02*
G01*
X113629171Y-130062187D01*
X113655882Y-130129400D01*
X113514068Y-130252220D01*
X113218812Y-129977012D01*
X113179112Y-129916182D01*
X113143892Y-129711699D01*
X113310888Y-129784406D01*
G37*
X113310888Y-129784406D02*
X113629171Y-130062187D01*
X113655882Y-130129400D01*
X113514068Y-130252220D01*
X113218812Y-129977012D01*
X113179112Y-129916182D01*
X113143892Y-129711699D01*
X113310888Y-129784406D01*
G36*
X123218235Y-130111765D02*
G01*
X123068823Y-130261176D01*
X122919412Y-130111765D01*
X123068823Y-129962353D01*
X123218235Y-130111765D01*
G37*
X123218235Y-130111765D02*
X123068823Y-130261176D01*
X122919412Y-130111765D01*
X123068823Y-129962353D01*
X123218235Y-130111765D01*
G36*
X112958627Y-128567843D02*
G01*
X112994391Y-128922477D01*
X112958627Y-128966274D01*
X112780977Y-128925255D01*
X112759412Y-128767059D01*
X112868747Y-128521093D01*
X112958627Y-128567843D01*
G37*
X112958627Y-128567843D02*
X112994391Y-128922477D01*
X112958627Y-128966274D01*
X112780977Y-128925255D01*
X112759412Y-128767059D01*
X112868747Y-128521093D01*
X112958627Y-128567843D01*
G36*
X122919412Y-128916471D02*
G01*
X122770000Y-129065882D01*
X122620588Y-128916471D01*
X122770000Y-128767059D01*
X122919412Y-128916471D01*
G37*
X122919412Y-128916471D02*
X122770000Y-129065882D01*
X122620588Y-128916471D01*
X122770000Y-128767059D01*
X122919412Y-128916471D01*
G36*
X105537077Y-93667238D02*
G01*
X105587647Y-93804706D01*
X105357926Y-94092046D01*
X105271188Y-94103529D01*
X105086461Y-94283623D01*
X105126650Y-94381705D01*
X105088998Y-94765394D01*
X104994066Y-94848075D01*
X104851514Y-95235487D01*
X104999706Y-95615782D01*
X105157337Y-96081672D01*
X104965661Y-96195294D01*
X104748193Y-96430387D01*
X104772713Y-96773642D01*
X104722442Y-97323856D01*
X104513780Y-97509389D01*
X104232631Y-97867099D01*
X104257272Y-98067238D01*
X104157521Y-98507363D01*
X103722716Y-99127289D01*
X103513476Y-99348550D01*
X102847871Y-100064964D01*
X102643036Y-100484406D01*
X102881178Y-100667892D01*
X103122353Y-100689611D01*
X103345446Y-100774579D01*
X103034946Y-101027881D01*
X102823529Y-101147390D01*
X102249259Y-101529844D01*
X102001969Y-101835139D01*
X102001765Y-101840785D01*
X101847087Y-102224266D01*
X101461035Y-102879166D01*
X101309603Y-103108323D01*
X100890518Y-103867708D01*
X100706306Y-104681850D01*
X100699801Y-105810789D01*
X100702589Y-105869478D01*
X100738399Y-106839930D01*
X100688256Y-107340768D01*
X100498844Y-107499135D01*
X100116843Y-107442171D01*
X100050045Y-107425527D01*
X99490080Y-107386163D01*
X99312353Y-107544895D01*
X99069036Y-107789016D01*
X98489743Y-107849470D01*
X97800457Y-107746014D01*
X97227163Y-107498405D01*
X97069860Y-107348841D01*
X96810966Y-107092202D01*
X96606370Y-107250240D01*
X96355498Y-107903789D01*
X96346845Y-107929959D01*
X96148032Y-108743348D01*
X96246764Y-109341051D01*
X96500231Y-109790579D01*
X96953808Y-110303703D01*
X97308155Y-110271226D01*
X97324774Y-110255343D01*
X97458761Y-109836809D01*
X97280353Y-109582588D01*
X96945568Y-109117486D01*
X97141425Y-108926449D01*
X97668823Y-108971568D01*
X98145863Y-109203408D01*
X98425448Y-109565088D01*
X98407460Y-109866904D01*
X98180557Y-109941176D01*
X98022672Y-110206703D01*
X97914228Y-110870100D01*
X97897442Y-111139589D01*
X97804263Y-112149471D01*
X97571586Y-112695135D01*
X97115899Y-112907381D01*
X96754717Y-112929412D01*
X96200216Y-113059974D01*
X96020718Y-113302941D01*
X95950872Y-113516517D01*
X95788714Y-113318715D01*
X95434950Y-113028893D01*
X95141985Y-113225314D01*
X94975110Y-113796592D01*
X94999614Y-114631339D01*
X95003762Y-114657877D01*
X95148784Y-115408025D01*
X95310818Y-115660434D01*
X95574920Y-115511128D01*
X95674294Y-115414866D01*
X96100025Y-115176112D01*
X96307665Y-115407831D01*
X96224162Y-116000714D01*
X96166676Y-116151623D01*
X96052296Y-116740570D01*
X96002198Y-117660363D01*
X96008610Y-118187524D01*
X96003385Y-119088807D01*
X95841142Y-119736202D01*
X95423642Y-120366884D01*
X94832756Y-121026347D01*
X94136492Y-121822261D01*
X93797937Y-122402771D01*
X93731706Y-122953536D01*
X93780881Y-123313529D01*
X93828271Y-123967321D01*
X93706233Y-124280141D01*
X93679849Y-124284706D01*
X93306578Y-124473036D01*
X92700424Y-124946526D01*
X92439412Y-125181176D01*
X91764723Y-125732565D01*
X91214590Y-126048497D01*
X91083241Y-126077647D01*
X90683117Y-126326094D01*
X90497059Y-126675294D01*
X90108426Y-127160906D01*
X89747499Y-127272941D01*
X89183859Y-127414865D01*
X89002941Y-127571765D01*
X88591020Y-127854401D01*
X88071841Y-127551553D01*
X87957059Y-127422353D01*
X87448302Y-127042621D01*
X87173411Y-126974118D01*
X86799337Y-126837276D01*
X86761765Y-126739723D01*
X86580371Y-126476078D01*
X89251961Y-126476078D01*
X89292980Y-126653729D01*
X89451176Y-126675294D01*
X89697142Y-126565959D01*
X89650392Y-126476078D01*
X89295758Y-126440315D01*
X89251961Y-126476078D01*
X86580371Y-126476078D01*
X86493139Y-126349293D01*
X85798728Y-125951982D01*
X84845731Y-125615419D01*
X83801347Y-125407231D01*
X83387103Y-125374740D01*
X82409121Y-125288529D01*
X82084700Y-125161720D01*
X90420912Y-125161720D01*
X90461787Y-125181176D01*
X90734489Y-124970811D01*
X90795882Y-124882353D01*
X90872029Y-124602985D01*
X90831154Y-124583529D01*
X90558452Y-124793895D01*
X90497059Y-124882353D01*
X90420912Y-125161720D01*
X82084700Y-125161720D01*
X81926688Y-125099957D01*
X81831176Y-124876311D01*
X82081820Y-124499549D01*
X82428823Y-124392881D01*
X83150147Y-124252408D01*
X83867689Y-124019352D01*
X84780816Y-123765113D01*
X85511218Y-123677555D01*
X86388105Y-123507556D01*
X87007437Y-123096173D01*
X87222380Y-122557327D01*
X87183220Y-122380320D01*
X87179694Y-122157847D01*
X92359386Y-122157847D01*
X92408660Y-122192941D01*
X92695949Y-121951229D01*
X93110485Y-121340368D01*
X93305711Y-120988445D01*
X93786789Y-119923185D01*
X93912986Y-119269136D01*
X93681990Y-119053153D01*
X93468120Y-119103233D01*
X93139636Y-119441764D01*
X93148115Y-119660742D01*
X93108872Y-120145753D01*
X92832028Y-120886780D01*
X92716473Y-121116299D01*
X92418923Y-121778375D01*
X92359386Y-122157847D01*
X87179694Y-122157847D01*
X87176768Y-121973301D01*
X87327441Y-121894118D01*
X87596082Y-121644150D01*
X87658235Y-121296471D01*
X87861171Y-120639610D01*
X88235887Y-120121171D01*
X88608646Y-119650118D01*
X88532400Y-119323414D01*
X88411903Y-119210190D01*
X87999102Y-119033884D01*
X87805223Y-119208628D01*
X87252886Y-119657928D01*
X86251243Y-120077807D01*
X84948516Y-120427011D01*
X83492929Y-120664286D01*
X82279412Y-120746582D01*
X80151223Y-120653278D01*
X78415295Y-120300743D01*
X77115954Y-119709358D01*
X76297526Y-118899507D01*
X76168998Y-118457647D01*
X93933529Y-118457647D01*
X94082941Y-118607059D01*
X94232353Y-118457647D01*
X94082941Y-118308235D01*
X93933529Y-118457647D01*
X76168998Y-118457647D01*
X76004336Y-117891571D01*
X76004118Y-117861026D01*
X76023076Y-117710588D01*
X94232353Y-117710588D01*
X94341688Y-117956554D01*
X94431569Y-117909804D01*
X94467332Y-117555170D01*
X94431569Y-117511372D01*
X94253918Y-117552392D01*
X94232353Y-117710588D01*
X76023076Y-117710588D01*
X76125975Y-116894058D01*
X76420896Y-115890329D01*
X76437569Y-115849709D01*
X76691918Y-114990658D01*
X76563696Y-114505042D01*
X76559716Y-114501010D01*
X76402952Y-113992097D01*
X76398524Y-113243922D01*
X89978026Y-113243922D01*
X89989128Y-113407266D01*
X90062282Y-113388468D01*
X90574430Y-113007580D01*
X90879549Y-112624818D01*
X90962722Y-112471242D01*
X95652288Y-112471242D01*
X95692806Y-112630588D01*
X96078584Y-112426126D01*
X96330111Y-112175131D01*
X96582461Y-111745798D01*
X96574862Y-111586431D01*
X96309545Y-111682209D01*
X95937557Y-112041888D01*
X95652288Y-112471242D01*
X90962722Y-112471242D01*
X91145108Y-112134476D01*
X91040250Y-112109704D01*
X90568078Y-112549529D01*
X90332060Y-112796591D01*
X89978026Y-113243922D01*
X76398524Y-113243922D01*
X76396930Y-112974790D01*
X76463086Y-112185099D01*
X76677761Y-110180493D01*
X77584469Y-110361835D01*
X78536643Y-110638203D01*
X79385322Y-110989235D01*
X80317934Y-111295568D01*
X81381689Y-111419588D01*
X82362484Y-111359628D01*
X83046220Y-111114023D01*
X83149764Y-111018529D01*
X83670026Y-110674604D01*
X84614680Y-110422642D01*
X86037878Y-110253526D01*
X87993769Y-110158139D01*
X88306938Y-110150291D01*
X89587674Y-110135844D01*
X90428135Y-110183763D01*
X90984866Y-110325024D01*
X91414416Y-110590599D01*
X91668703Y-110815429D01*
X92165612Y-111195622D01*
X92427457Y-111226990D01*
X92439412Y-111174134D01*
X92466009Y-111136471D01*
X97220588Y-111136471D01*
X97329923Y-111382436D01*
X97419804Y-111335686D01*
X97455567Y-110981053D01*
X97419804Y-110937255D01*
X97242154Y-110978274D01*
X97220588Y-111136471D01*
X92466009Y-111136471D01*
X92688039Y-110822072D01*
X93294557Y-110450542D01*
X93373664Y-110415972D01*
X93944257Y-110091079D01*
X93999301Y-109836386D01*
X93966437Y-109812103D01*
X93780959Y-109419155D01*
X93839008Y-109254715D01*
X93964936Y-108857210D01*
X94837819Y-108857210D01*
X95011942Y-109167783D01*
X95245417Y-109165362D01*
X95553228Y-108778345D01*
X95618947Y-108303871D01*
X95512198Y-107831670D01*
X95237094Y-107884713D01*
X95203529Y-107911603D01*
X94899169Y-108363266D01*
X94837819Y-108857210D01*
X93964936Y-108857210D01*
X94009829Y-108715502D01*
X94028302Y-108077191D01*
X93909804Y-107584952D01*
X93726505Y-107461129D01*
X93544285Y-107264362D01*
X93557531Y-106824648D01*
X93554954Y-106803529D01*
X99910000Y-106803529D01*
X100059412Y-106952941D01*
X100208823Y-106803529D01*
X100059412Y-106654118D01*
X99910000Y-106803529D01*
X93554954Y-106803529D01*
X93479165Y-106182539D01*
X93133737Y-105357196D01*
X92635433Y-104537037D01*
X92098438Y-103910485D01*
X91643265Y-103665882D01*
X91180473Y-103424813D01*
X91053357Y-103217647D01*
X90738060Y-102801305D01*
X90445893Y-102920618D01*
X90347647Y-103384694D01*
X90232613Y-103797883D01*
X90048823Y-103815294D01*
X89818382Y-103403816D01*
X89750000Y-102893792D01*
X89512149Y-102192015D01*
X89031969Y-101883977D01*
X88408625Y-101558961D01*
X88117862Y-101293726D01*
X87695079Y-101045624D01*
X87210000Y-100976471D01*
X86574460Y-100849694D01*
X86291764Y-100642430D01*
X85860704Y-100448814D01*
X85023248Y-100437323D01*
X84854717Y-100454827D01*
X83698926Y-100496905D01*
X82750168Y-100356625D01*
X82168397Y-100064735D01*
X82076937Y-99920812D01*
X82230482Y-99561273D01*
X82865974Y-99258019D01*
X83868260Y-99041773D01*
X85122188Y-98943262D01*
X85732732Y-98945380D01*
X87437537Y-98866617D01*
X88614982Y-98518360D01*
X89262310Y-97902060D01*
X89377927Y-97026982D01*
X89346338Y-96568597D01*
X91567640Y-96568597D01*
X91736932Y-96792941D01*
X92223811Y-97477000D01*
X92807110Y-98451881D01*
X93196009Y-99183529D01*
X93972553Y-100665970D01*
X94555167Y-101625128D01*
X94935216Y-102047708D01*
X95055553Y-102045820D01*
X95002069Y-101729088D01*
X94726926Y-101027756D01*
X94287443Y-100085761D01*
X94226005Y-99962630D01*
X93691290Y-99034118D01*
X102599412Y-99034118D01*
X102748823Y-99183529D01*
X102898235Y-99034118D01*
X102748823Y-98884706D01*
X102599412Y-99034118D01*
X93691290Y-99034118D01*
X93564791Y-98814459D01*
X92875301Y-97838823D01*
X102599412Y-97838823D01*
X102748823Y-97988235D01*
X102898235Y-97838823D01*
X102748823Y-97689412D01*
X102599412Y-97838823D01*
X92875301Y-97838823D01*
X92804266Y-97738309D01*
X92176119Y-97034959D01*
X91692828Y-96616497D01*
X91567640Y-96568597D01*
X89346338Y-96568597D01*
X89337768Y-96444253D01*
X89504044Y-96086904D01*
X89990371Y-95884635D01*
X90910367Y-95767147D01*
X91483630Y-95724072D01*
X93643959Y-95563710D01*
X95317347Y-95412225D01*
X96614085Y-95256230D01*
X97644463Y-95082338D01*
X98518772Y-94877160D01*
X98565294Y-94864490D01*
X100599253Y-94339743D01*
X102224135Y-93989832D01*
X103402904Y-93819721D01*
X104098525Y-93834373D01*
X104273964Y-94038752D01*
X104242941Y-94103529D01*
X104266633Y-94378890D01*
X104374717Y-94402353D01*
X104655370Y-94160599D01*
X104691176Y-93954118D01*
X104930375Y-93557947D01*
X105139412Y-93505882D01*
X105537077Y-93667238D01*
G37*
X105537077Y-93667238D02*
X105587647Y-93804706D01*
X105357926Y-94092046D01*
X105271188Y-94103529D01*
X105086461Y-94283623D01*
X105126650Y-94381705D01*
X105088998Y-94765394D01*
X104994066Y-94848075D01*
X104851514Y-95235487D01*
X104999706Y-95615782D01*
X105157337Y-96081672D01*
X104965661Y-96195294D01*
X104748193Y-96430387D01*
X104772713Y-96773642D01*
X104722442Y-97323856D01*
X104513780Y-97509389D01*
X104232631Y-97867099D01*
X104257272Y-98067238D01*
X104157521Y-98507363D01*
X103722716Y-99127289D01*
X103513476Y-99348550D01*
X102847871Y-100064964D01*
X102643036Y-100484406D01*
X102881178Y-100667892D01*
X103122353Y-100689611D01*
X103345446Y-100774579D01*
X103034946Y-101027881D01*
X102823529Y-101147390D01*
X102249259Y-101529844D01*
X102001969Y-101835139D01*
X102001765Y-101840785D01*
X101847087Y-102224266D01*
X101461035Y-102879166D01*
X101309603Y-103108323D01*
X100890518Y-103867708D01*
X100706306Y-104681850D01*
X100699801Y-105810789D01*
X100702589Y-105869478D01*
X100738399Y-106839930D01*
X100688256Y-107340768D01*
X100498844Y-107499135D01*
X100116843Y-107442171D01*
X100050045Y-107425527D01*
X99490080Y-107386163D01*
X99312353Y-107544895D01*
X99069036Y-107789016D01*
X98489743Y-107849470D01*
X97800457Y-107746014D01*
X97227163Y-107498405D01*
X97069860Y-107348841D01*
X96810966Y-107092202D01*
X96606370Y-107250240D01*
X96355498Y-107903789D01*
X96346845Y-107929959D01*
X96148032Y-108743348D01*
X96246764Y-109341051D01*
X96500231Y-109790579D01*
X96953808Y-110303703D01*
X97308155Y-110271226D01*
X97324774Y-110255343D01*
X97458761Y-109836809D01*
X97280353Y-109582588D01*
X96945568Y-109117486D01*
X97141425Y-108926449D01*
X97668823Y-108971568D01*
X98145863Y-109203408D01*
X98425448Y-109565088D01*
X98407460Y-109866904D01*
X98180557Y-109941176D01*
X98022672Y-110206703D01*
X97914228Y-110870100D01*
X97897442Y-111139589D01*
X97804263Y-112149471D01*
X97571586Y-112695135D01*
X97115899Y-112907381D01*
X96754717Y-112929412D01*
X96200216Y-113059974D01*
X96020718Y-113302941D01*
X95950872Y-113516517D01*
X95788714Y-113318715D01*
X95434950Y-113028893D01*
X95141985Y-113225314D01*
X94975110Y-113796592D01*
X94999614Y-114631339D01*
X95003762Y-114657877D01*
X95148784Y-115408025D01*
X95310818Y-115660434D01*
X95574920Y-115511128D01*
X95674294Y-115414866D01*
X96100025Y-115176112D01*
X96307665Y-115407831D01*
X96224162Y-116000714D01*
X96166676Y-116151623D01*
X96052296Y-116740570D01*
X96002198Y-117660363D01*
X96008610Y-118187524D01*
X96003385Y-119088807D01*
X95841142Y-119736202D01*
X95423642Y-120366884D01*
X94832756Y-121026347D01*
X94136492Y-121822261D01*
X93797937Y-122402771D01*
X93731706Y-122953536D01*
X93780881Y-123313529D01*
X93828271Y-123967321D01*
X93706233Y-124280141D01*
X93679849Y-124284706D01*
X93306578Y-124473036D01*
X92700424Y-124946526D01*
X92439412Y-125181176D01*
X91764723Y-125732565D01*
X91214590Y-126048497D01*
X91083241Y-126077647D01*
X90683117Y-126326094D01*
X90497059Y-126675294D01*
X90108426Y-127160906D01*
X89747499Y-127272941D01*
X89183859Y-127414865D01*
X89002941Y-127571765D01*
X88591020Y-127854401D01*
X88071841Y-127551553D01*
X87957059Y-127422353D01*
X87448302Y-127042621D01*
X87173411Y-126974118D01*
X86799337Y-126837276D01*
X86761765Y-126739723D01*
X86580371Y-126476078D01*
X89251961Y-126476078D01*
X89292980Y-126653729D01*
X89451176Y-126675294D01*
X89697142Y-126565959D01*
X89650392Y-126476078D01*
X89295758Y-126440315D01*
X89251961Y-126476078D01*
X86580371Y-126476078D01*
X86493139Y-126349293D01*
X85798728Y-125951982D01*
X84845731Y-125615419D01*
X83801347Y-125407231D01*
X83387103Y-125374740D01*
X82409121Y-125288529D01*
X82084700Y-125161720D01*
X90420912Y-125161720D01*
X90461787Y-125181176D01*
X90734489Y-124970811D01*
X90795882Y-124882353D01*
X90872029Y-124602985D01*
X90831154Y-124583529D01*
X90558452Y-124793895D01*
X90497059Y-124882353D01*
X90420912Y-125161720D01*
X82084700Y-125161720D01*
X81926688Y-125099957D01*
X81831176Y-124876311D01*
X82081820Y-124499549D01*
X82428823Y-124392881D01*
X83150147Y-124252408D01*
X83867689Y-124019352D01*
X84780816Y-123765113D01*
X85511218Y-123677555D01*
X86388105Y-123507556D01*
X87007437Y-123096173D01*
X87222380Y-122557327D01*
X87183220Y-122380320D01*
X87179694Y-122157847D01*
X92359386Y-122157847D01*
X92408660Y-122192941D01*
X92695949Y-121951229D01*
X93110485Y-121340368D01*
X93305711Y-120988445D01*
X93786789Y-119923185D01*
X93912986Y-119269136D01*
X93681990Y-119053153D01*
X93468120Y-119103233D01*
X93139636Y-119441764D01*
X93148115Y-119660742D01*
X93108872Y-120145753D01*
X92832028Y-120886780D01*
X92716473Y-121116299D01*
X92418923Y-121778375D01*
X92359386Y-122157847D01*
X87179694Y-122157847D01*
X87176768Y-121973301D01*
X87327441Y-121894118D01*
X87596082Y-121644150D01*
X87658235Y-121296471D01*
X87861171Y-120639610D01*
X88235887Y-120121171D01*
X88608646Y-119650118D01*
X88532400Y-119323414D01*
X88411903Y-119210190D01*
X87999102Y-119033884D01*
X87805223Y-119208628D01*
X87252886Y-119657928D01*
X86251243Y-120077807D01*
X84948516Y-120427011D01*
X83492929Y-120664286D01*
X82279412Y-120746582D01*
X80151223Y-120653278D01*
X78415295Y-120300743D01*
X77115954Y-119709358D01*
X76297526Y-118899507D01*
X76168998Y-118457647D01*
X93933529Y-118457647D01*
X94082941Y-118607059D01*
X94232353Y-118457647D01*
X94082941Y-118308235D01*
X93933529Y-118457647D01*
X76168998Y-118457647D01*
X76004336Y-117891571D01*
X76004118Y-117861026D01*
X76023076Y-117710588D01*
X94232353Y-117710588D01*
X94341688Y-117956554D01*
X94431569Y-117909804D01*
X94467332Y-117555170D01*
X94431569Y-117511372D01*
X94253918Y-117552392D01*
X94232353Y-117710588D01*
X76023076Y-117710588D01*
X76125975Y-116894058D01*
X76420896Y-115890329D01*
X76437569Y-115849709D01*
X76691918Y-114990658D01*
X76563696Y-114505042D01*
X76559716Y-114501010D01*
X76402952Y-113992097D01*
X76398524Y-113243922D01*
X89978026Y-113243922D01*
X89989128Y-113407266D01*
X90062282Y-113388468D01*
X90574430Y-113007580D01*
X90879549Y-112624818D01*
X90962722Y-112471242D01*
X95652288Y-112471242D01*
X95692806Y-112630588D01*
X96078584Y-112426126D01*
X96330111Y-112175131D01*
X96582461Y-111745798D01*
X96574862Y-111586431D01*
X96309545Y-111682209D01*
X95937557Y-112041888D01*
X95652288Y-112471242D01*
X90962722Y-112471242D01*
X91145108Y-112134476D01*
X91040250Y-112109704D01*
X90568078Y-112549529D01*
X90332060Y-112796591D01*
X89978026Y-113243922D01*
X76398524Y-113243922D01*
X76396930Y-112974790D01*
X76463086Y-112185099D01*
X76677761Y-110180493D01*
X77584469Y-110361835D01*
X78536643Y-110638203D01*
X79385322Y-110989235D01*
X80317934Y-111295568D01*
X81381689Y-111419588D01*
X82362484Y-111359628D01*
X83046220Y-111114023D01*
X83149764Y-111018529D01*
X83670026Y-110674604D01*
X84614680Y-110422642D01*
X86037878Y-110253526D01*
X87993769Y-110158139D01*
X88306938Y-110150291D01*
X89587674Y-110135844D01*
X90428135Y-110183763D01*
X90984866Y-110325024D01*
X91414416Y-110590599D01*
X91668703Y-110815429D01*
X92165612Y-111195622D01*
X92427457Y-111226990D01*
X92439412Y-111174134D01*
X92466009Y-111136471D01*
X97220588Y-111136471D01*
X97329923Y-111382436D01*
X97419804Y-111335686D01*
X97455567Y-110981053D01*
X97419804Y-110937255D01*
X97242154Y-110978274D01*
X97220588Y-111136471D01*
X92466009Y-111136471D01*
X92688039Y-110822072D01*
X93294557Y-110450542D01*
X93373664Y-110415972D01*
X93944257Y-110091079D01*
X93999301Y-109836386D01*
X93966437Y-109812103D01*
X93780959Y-109419155D01*
X93839008Y-109254715D01*
X93964936Y-108857210D01*
X94837819Y-108857210D01*
X95011942Y-109167783D01*
X95245417Y-109165362D01*
X95553228Y-108778345D01*
X95618947Y-108303871D01*
X95512198Y-107831670D01*
X95237094Y-107884713D01*
X95203529Y-107911603D01*
X94899169Y-108363266D01*
X94837819Y-108857210D01*
X93964936Y-108857210D01*
X94009829Y-108715502D01*
X94028302Y-108077191D01*
X93909804Y-107584952D01*
X93726505Y-107461129D01*
X93544285Y-107264362D01*
X93557531Y-106824648D01*
X93554954Y-106803529D01*
X99910000Y-106803529D01*
X100059412Y-106952941D01*
X100208823Y-106803529D01*
X100059412Y-106654118D01*
X99910000Y-106803529D01*
X93554954Y-106803529D01*
X93479165Y-106182539D01*
X93133737Y-105357196D01*
X92635433Y-104537037D01*
X92098438Y-103910485D01*
X91643265Y-103665882D01*
X91180473Y-103424813D01*
X91053357Y-103217647D01*
X90738060Y-102801305D01*
X90445893Y-102920618D01*
X90347647Y-103384694D01*
X90232613Y-103797883D01*
X90048823Y-103815294D01*
X89818382Y-103403816D01*
X89750000Y-102893792D01*
X89512149Y-102192015D01*
X89031969Y-101883977D01*
X88408625Y-101558961D01*
X88117862Y-101293726D01*
X87695079Y-101045624D01*
X87210000Y-100976471D01*
X86574460Y-100849694D01*
X86291764Y-100642430D01*
X85860704Y-100448814D01*
X85023248Y-100437323D01*
X84854717Y-100454827D01*
X83698926Y-100496905D01*
X82750168Y-100356625D01*
X82168397Y-100064735D01*
X82076937Y-99920812D01*
X82230482Y-99561273D01*
X82865974Y-99258019D01*
X83868260Y-99041773D01*
X85122188Y-98943262D01*
X85732732Y-98945380D01*
X87437537Y-98866617D01*
X88614982Y-98518360D01*
X89262310Y-97902060D01*
X89377927Y-97026982D01*
X89346338Y-96568597D01*
X91567640Y-96568597D01*
X91736932Y-96792941D01*
X92223811Y-97477000D01*
X92807110Y-98451881D01*
X93196009Y-99183529D01*
X93972553Y-100665970D01*
X94555167Y-101625128D01*
X94935216Y-102047708D01*
X95055553Y-102045820D01*
X95002069Y-101729088D01*
X94726926Y-101027756D01*
X94287443Y-100085761D01*
X94226005Y-99962630D01*
X93691290Y-99034118D01*
X102599412Y-99034118D01*
X102748823Y-99183529D01*
X102898235Y-99034118D01*
X102748823Y-98884706D01*
X102599412Y-99034118D01*
X93691290Y-99034118D01*
X93564791Y-98814459D01*
X92875301Y-97838823D01*
X102599412Y-97838823D01*
X102748823Y-97988235D01*
X102898235Y-97838823D01*
X102748823Y-97689412D01*
X102599412Y-97838823D01*
X92875301Y-97838823D01*
X92804266Y-97738309D01*
X92176119Y-97034959D01*
X91692828Y-96616497D01*
X91567640Y-96568597D01*
X89346338Y-96568597D01*
X89337768Y-96444253D01*
X89504044Y-96086904D01*
X89990371Y-95884635D01*
X90910367Y-95767147D01*
X91483630Y-95724072D01*
X93643959Y-95563710D01*
X95317347Y-95412225D01*
X96614085Y-95256230D01*
X97644463Y-95082338D01*
X98518772Y-94877160D01*
X98565294Y-94864490D01*
X100599253Y-94339743D01*
X102224135Y-93989832D01*
X103402904Y-93819721D01*
X104098525Y-93834373D01*
X104273964Y-94038752D01*
X104242941Y-94103529D01*
X104266633Y-94378890D01*
X104374717Y-94402353D01*
X104655370Y-94160599D01*
X104691176Y-93954118D01*
X104930375Y-93557947D01*
X105139412Y-93505882D01*
X105537077Y-93667238D01*
G36*
X86101878Y-126614007D02*
G01*
X86164118Y-126834084D01*
X85976505Y-127228519D01*
X85596771Y-127185053D01*
X85436411Y-127005430D01*
X85515966Y-126688953D01*
X85717599Y-126566573D01*
X86101878Y-126614007D01*
G37*
X86101878Y-126614007D02*
X86164118Y-126834084D01*
X85976505Y-127228519D01*
X85596771Y-127185053D01*
X85436411Y-127005430D01*
X85515966Y-126688953D01*
X85717599Y-126566573D01*
X86101878Y-126614007D01*
G36*
X107242546Y-123158470D02*
G01*
X107651494Y-123287446D01*
X107489871Y-123439687D01*
X107284602Y-123531539D01*
X106747315Y-123872597D01*
X106015589Y-124463486D01*
X105673979Y-124773078D01*
X104849021Y-125486120D01*
X104346493Y-125746424D01*
X104118982Y-125570715D01*
X104093529Y-125330588D01*
X104331433Y-124934387D01*
X104539232Y-124882353D01*
X105034543Y-124651605D01*
X105358172Y-124284706D01*
X105784900Y-123816009D01*
X106082861Y-123687059D01*
X106496611Y-123452703D01*
X106545291Y-123354127D01*
X106881519Y-123141029D01*
X107242546Y-123158470D01*
G37*
X107242546Y-123158470D02*
X107651494Y-123287446D01*
X107489871Y-123439687D01*
X107284602Y-123531539D01*
X106747315Y-123872597D01*
X106015589Y-124463486D01*
X105673979Y-124773078D01*
X104849021Y-125486120D01*
X104346493Y-125746424D01*
X104118982Y-125570715D01*
X104093529Y-125330588D01*
X104331433Y-124934387D01*
X104539232Y-124882353D01*
X105034543Y-124651605D01*
X105358172Y-124284706D01*
X105784900Y-123816009D01*
X106082861Y-123687059D01*
X106496611Y-123452703D01*
X106545291Y-123354127D01*
X106881519Y-123141029D01*
X107242546Y-123158470D01*
G36*
X115910392Y-122955710D02*
G01*
X116228141Y-123313529D01*
X116544301Y-123936196D01*
X116621229Y-124525155D01*
X116442664Y-124862601D01*
X116345294Y-124882353D01*
X116083043Y-124639122D01*
X116046471Y-124416482D01*
X115901603Y-124107182D01*
X115747647Y-124135294D01*
X115496616Y-124556776D01*
X115448823Y-124899989D01*
X115295501Y-125408757D01*
X114917656Y-125413961D01*
X114751569Y-125280784D01*
X114551596Y-124744377D01*
X114698384Y-124152102D01*
X115000588Y-123877820D01*
X115398107Y-123478464D01*
X115448823Y-123248202D01*
X115569178Y-122831927D01*
X115910392Y-122955710D01*
G37*
X115910392Y-122955710D02*
X116228141Y-123313529D01*
X116544301Y-123936196D01*
X116621229Y-124525155D01*
X116442664Y-124862601D01*
X116345294Y-124882353D01*
X116083043Y-124639122D01*
X116046471Y-124416482D01*
X115901603Y-124107182D01*
X115747647Y-124135294D01*
X115496616Y-124556776D01*
X115448823Y-124899989D01*
X115295501Y-125408757D01*
X114917656Y-125413961D01*
X114751569Y-125280784D01*
X114551596Y-124744377D01*
X114698384Y-124152102D01*
X115000588Y-123877820D01*
X115398107Y-123478464D01*
X115448823Y-123248202D01*
X115569178Y-122831927D01*
X115910392Y-122955710D01*
G36*
X117274451Y-120868437D02*
G01*
X117515610Y-121325662D01*
X117414666Y-122022761D01*
X117109366Y-122587321D01*
X116772933Y-122960441D01*
X116548064Y-122847726D01*
X116402523Y-122604640D01*
X116329580Y-122074541D01*
X116509606Y-121463147D01*
X116836918Y-120980898D01*
X117205833Y-120838233D01*
X117274451Y-120868437D01*
G37*
X117274451Y-120868437D02*
X117515610Y-121325662D01*
X117414666Y-122022761D01*
X117109366Y-122587321D01*
X116772933Y-122960441D01*
X116548064Y-122847726D01*
X116402523Y-122604640D01*
X116329580Y-122074541D01*
X116509606Y-121463147D01*
X116836918Y-120980898D01*
X117205833Y-120838233D01*
X117274451Y-120868437D01*
G36*
X107978235Y-122342353D02*
G01*
X107828823Y-122491765D01*
X107679412Y-122342353D01*
X107828823Y-122192941D01*
X107978235Y-122342353D01*
G37*
X107978235Y-122342353D02*
X107828823Y-122491765D01*
X107679412Y-122342353D01*
X107828823Y-122192941D01*
X107978235Y-122342353D01*
G36*
X68946391Y-117102791D02*
G01*
X68734534Y-117685914D01*
X68526297Y-118517573D01*
X68510360Y-118596909D01*
X68372317Y-119269300D01*
X68308084Y-119378904D01*
X68277165Y-118949548D01*
X68269070Y-118738879D01*
X68396025Y-117879457D01*
X68705101Y-117244761D01*
X68972302Y-116962480D01*
X68946391Y-117102791D01*
G37*
X68946391Y-117102791D02*
X68734534Y-117685914D01*
X68526297Y-118517573D01*
X68510360Y-118596909D01*
X68372317Y-119269300D01*
X68308084Y-119378904D01*
X68277165Y-118949548D01*
X68269070Y-118738879D01*
X68396025Y-117879457D01*
X68705101Y-117244761D01*
X68972302Y-116962480D01*
X68946391Y-117102791D01*
G36*
X96523333Y-114523137D02*
G01*
X96482314Y-114700787D01*
X96324118Y-114722353D01*
X96078152Y-114613018D01*
X96124902Y-114523137D01*
X96479536Y-114487374D01*
X96523333Y-114523137D01*
G37*
X96523333Y-114523137D02*
X96482314Y-114700787D01*
X96324118Y-114722353D01*
X96078152Y-114613018D01*
X96124902Y-114523137D01*
X96479536Y-114487374D01*
X96523333Y-114523137D01*
G36*
X75904510Y-113327843D02*
G01*
X75940273Y-113682477D01*
X75904510Y-113726274D01*
X75726859Y-113685255D01*
X75705294Y-113527059D01*
X75814629Y-113281093D01*
X75904510Y-113327843D01*
G37*
X75904510Y-113327843D02*
X75940273Y-113682477D01*
X75904510Y-113726274D01*
X75726859Y-113685255D01*
X75705294Y-113527059D01*
X75814629Y-113281093D01*
X75904510Y-113327843D01*
G36*
X115648039Y-113029020D02*
G01*
X115683802Y-113383653D01*
X115648039Y-113427451D01*
X115470389Y-113386431D01*
X115448823Y-113228235D01*
X115558158Y-112982270D01*
X115648039Y-113029020D01*
G37*
X115648039Y-113029020D02*
X115683802Y-113383653D01*
X115648039Y-113427451D01*
X115470389Y-113386431D01*
X115448823Y-113228235D01*
X115558158Y-112982270D01*
X115648039Y-113029020D01*
G36*
X75921449Y-111644323D02*
G01*
X75979623Y-112272182D01*
X75941612Y-112538427D01*
X75824148Y-112860453D01*
X75628850Y-112697604D01*
X75440421Y-112374389D01*
X75217043Y-111703928D01*
X75368991Y-111353244D01*
X75691237Y-111282814D01*
X75921449Y-111644323D01*
G37*
X75921449Y-111644323D02*
X75979623Y-112272182D01*
X75941612Y-112538427D01*
X75824148Y-112860453D01*
X75628850Y-112697604D01*
X75440421Y-112374389D01*
X75217043Y-111703928D01*
X75368991Y-111353244D01*
X75691237Y-111282814D01*
X75921449Y-111644323D01*
G36*
X115150000Y-111883529D02*
G01*
X115000588Y-112032941D01*
X114851176Y-111883529D01*
X115000588Y-111734118D01*
X115150000Y-111883529D01*
G37*
X115150000Y-111883529D02*
X115000588Y-112032941D01*
X114851176Y-111883529D01*
X115000588Y-111734118D01*
X115150000Y-111883529D01*
G36*
X74111569Y-110339608D02*
G01*
X74070549Y-110517258D01*
X73912353Y-110538823D01*
X73666387Y-110429489D01*
X73713137Y-110339608D01*
X74067771Y-110303844D01*
X74111569Y-110339608D01*
G37*
X74111569Y-110339608D02*
X74070549Y-110517258D01*
X73912353Y-110538823D01*
X73666387Y-110429489D01*
X73713137Y-110339608D01*
X74067771Y-110303844D01*
X74111569Y-110339608D01*
G36*
X99901316Y-109570927D02*
G01*
X99910000Y-109642353D01*
X99682603Y-109932493D01*
X99611176Y-109941176D01*
X99321036Y-109713779D01*
X99312353Y-109642353D01*
X99539750Y-109352213D01*
X99611176Y-109343529D01*
X99901316Y-109570927D01*
G37*
X99901316Y-109570927D02*
X99910000Y-109642353D01*
X99682603Y-109932493D01*
X99611176Y-109941176D01*
X99321036Y-109713779D01*
X99312353Y-109642353D01*
X99539750Y-109352213D01*
X99611176Y-109343529D01*
X99901316Y-109570927D01*
G36*
X84639829Y-102886146D02*
G01*
X85338410Y-103073801D01*
X85463128Y-103164109D01*
X85907634Y-103340213D01*
X86198109Y-103367059D01*
X86763291Y-103502157D01*
X87600821Y-103845609D01*
X88067090Y-104077922D01*
X88995469Y-104499971D01*
X89554366Y-104564118D01*
X89726431Y-104466392D01*
X90000107Y-104318006D01*
X90048823Y-104522526D01*
X90215266Y-104991695D01*
X90627697Y-105678541D01*
X90751692Y-105852291D01*
X91305878Y-106688222D01*
X91650963Y-107378087D01*
X91727788Y-107789481D01*
X91643957Y-107849412D01*
X91324762Y-107688130D01*
X90676682Y-107269158D01*
X89991418Y-106790816D01*
X89160450Y-106213700D01*
X88622927Y-105945605D01*
X88191957Y-105939944D01*
X87680650Y-106150128D01*
X87593937Y-106193169D01*
X86828463Y-106511017D01*
X86231551Y-106653548D01*
X86207368Y-106654118D01*
X86196259Y-106772503D01*
X86627603Y-107080969D01*
X87305093Y-107458087D01*
X88119055Y-107936064D01*
X88637625Y-108355164D01*
X88747402Y-108578675D01*
X88408255Y-108795998D01*
X88218529Y-108775589D01*
X87537794Y-108693180D01*
X86463126Y-108682802D01*
X85192607Y-108734617D01*
X83924318Y-108838786D01*
X82856339Y-108985469D01*
X82507648Y-109059257D01*
X81655232Y-109210787D01*
X80504632Y-109337481D01*
X79238957Y-109428766D01*
X78041316Y-109474069D01*
X77094818Y-109462816D01*
X76619520Y-109399252D01*
X76342215Y-109041018D01*
X76342281Y-108412415D01*
X76593464Y-107757849D01*
X76825882Y-107478201D01*
X77431669Y-107096571D01*
X78319553Y-106698951D01*
X78644293Y-106582220D01*
X79939762Y-106150077D01*
X79558433Y-105992125D01*
X80894938Y-105992125D01*
X81241132Y-106133457D01*
X81956248Y-106236431D01*
X82848485Y-106294241D01*
X83726043Y-106300079D01*
X84397121Y-106247141D01*
X84669920Y-106128621D01*
X84670000Y-106126086D01*
X84405166Y-105860181D01*
X83746399Y-105623311D01*
X82897301Y-105456114D01*
X82061471Y-105399229D01*
X81461646Y-105485706D01*
X80981181Y-105764900D01*
X80894938Y-105992125D01*
X79558433Y-105992125D01*
X79017822Y-105768197D01*
X78348280Y-105399290D01*
X78105334Y-105072534D01*
X78335279Y-104880002D01*
X78561753Y-104861176D01*
X78871053Y-104716309D01*
X78842941Y-104562353D01*
X78404745Y-104334376D01*
X77642880Y-104275091D01*
X76806720Y-104383472D01*
X76283296Y-104572867D01*
X75801220Y-104725302D01*
X75705294Y-104578560D01*
X75961029Y-104297846D01*
X76527059Y-104078607D01*
X77264055Y-103836556D01*
X77703698Y-103603571D01*
X78197279Y-103475377D01*
X79021111Y-103481309D01*
X79390052Y-103524512D01*
X80695272Y-103559185D01*
X81766061Y-103228518D01*
X82627882Y-102967438D01*
X83661062Y-102852003D01*
X84639829Y-102886146D01*
G37*
X84639829Y-102886146D02*
X85338410Y-103073801D01*
X85463128Y-103164109D01*
X85907634Y-103340213D01*
X86198109Y-103367059D01*
X86763291Y-103502157D01*
X87600821Y-103845609D01*
X88067090Y-104077922D01*
X88995469Y-104499971D01*
X89554366Y-104564118D01*
X89726431Y-104466392D01*
X90000107Y-104318006D01*
X90048823Y-104522526D01*
X90215266Y-104991695D01*
X90627697Y-105678541D01*
X90751692Y-105852291D01*
X91305878Y-106688222D01*
X91650963Y-107378087D01*
X91727788Y-107789481D01*
X91643957Y-107849412D01*
X91324762Y-107688130D01*
X90676682Y-107269158D01*
X89991418Y-106790816D01*
X89160450Y-106213700D01*
X88622927Y-105945605D01*
X88191957Y-105939944D01*
X87680650Y-106150128D01*
X87593937Y-106193169D01*
X86828463Y-106511017D01*
X86231551Y-106653548D01*
X86207368Y-106654118D01*
X86196259Y-106772503D01*
X86627603Y-107080969D01*
X87305093Y-107458087D01*
X88119055Y-107936064D01*
X88637625Y-108355164D01*
X88747402Y-108578675D01*
X88408255Y-108795998D01*
X88218529Y-108775589D01*
X87537794Y-108693180D01*
X86463126Y-108682802D01*
X85192607Y-108734617D01*
X83924318Y-108838786D01*
X82856339Y-108985469D01*
X82507648Y-109059257D01*
X81655232Y-109210787D01*
X80504632Y-109337481D01*
X79238957Y-109428766D01*
X78041316Y-109474069D01*
X77094818Y-109462816D01*
X76619520Y-109399252D01*
X76342215Y-109041018D01*
X76342281Y-108412415D01*
X76593464Y-107757849D01*
X76825882Y-107478201D01*
X77431669Y-107096571D01*
X78319553Y-106698951D01*
X78644293Y-106582220D01*
X79939762Y-106150077D01*
X79558433Y-105992125D01*
X80894938Y-105992125D01*
X81241132Y-106133457D01*
X81956248Y-106236431D01*
X82848485Y-106294241D01*
X83726043Y-106300079D01*
X84397121Y-106247141D01*
X84669920Y-106128621D01*
X84670000Y-106126086D01*
X84405166Y-105860181D01*
X83746399Y-105623311D01*
X82897301Y-105456114D01*
X82061471Y-105399229D01*
X81461646Y-105485706D01*
X80981181Y-105764900D01*
X80894938Y-105992125D01*
X79558433Y-105992125D01*
X79017822Y-105768197D01*
X78348280Y-105399290D01*
X78105334Y-105072534D01*
X78335279Y-104880002D01*
X78561753Y-104861176D01*
X78871053Y-104716309D01*
X78842941Y-104562353D01*
X78404745Y-104334376D01*
X77642880Y-104275091D01*
X76806720Y-104383472D01*
X76283296Y-104572867D01*
X75801220Y-104725302D01*
X75705294Y-104578560D01*
X75961029Y-104297846D01*
X76527059Y-104078607D01*
X77264055Y-103836556D01*
X77703698Y-103603571D01*
X78197279Y-103475377D01*
X79021111Y-103481309D01*
X79390052Y-103524512D01*
X80695272Y-103559185D01*
X81766061Y-103228518D01*
X82627882Y-102967438D01*
X83661062Y-102852003D01*
X84639829Y-102886146D01*
G36*
X74768306Y-97177458D02*
G01*
X75095671Y-97342672D01*
X75225797Y-97566288D01*
X75273655Y-98149422D01*
X74997207Y-98434839D01*
X74555545Y-98282990D01*
X74486071Y-98215150D01*
X73898895Y-97929138D01*
X73426293Y-97922328D01*
X73019329Y-98120371D01*
X72718622Y-98604712D01*
X72479477Y-99483069D01*
X72283023Y-100677647D01*
X72062953Y-101373284D01*
X71646554Y-102225131D01*
X71174655Y-102971932D01*
X70864442Y-103309297D01*
X70430264Y-103801829D01*
X70326471Y-104131062D01*
X70152845Y-104510915D01*
X69835194Y-104495204D01*
X69683308Y-104188823D01*
X69429196Y-103016070D01*
X69027362Y-102330621D01*
X68650970Y-102171765D01*
X68272873Y-102010818D01*
X68364737Y-101611151D01*
X68682941Y-101275294D01*
X69065210Y-100726250D01*
X69132293Y-100416940D01*
X69281947Y-99851061D01*
X69648424Y-99090025D01*
X69725548Y-98959412D01*
X70103690Y-98286607D01*
X70106259Y-98036591D01*
X69680595Y-98163764D01*
X69125195Y-98439563D01*
X68137264Y-99222486D01*
X67670438Y-100255776D01*
X67637059Y-100658002D01*
X67515497Y-101154148D01*
X67338235Y-101275294D01*
X67185274Y-100998693D01*
X67079469Y-100256418D01*
X67039417Y-99179757D01*
X67039412Y-99165894D01*
X67077758Y-98015684D01*
X67187431Y-97362553D01*
X67338235Y-97241176D01*
X67585686Y-97660945D01*
X67637059Y-98030773D01*
X67781736Y-98470500D01*
X68010588Y-98498725D01*
X68308766Y-98167761D01*
X68309412Y-98025588D01*
X68499721Y-97756295D01*
X68907059Y-97665135D01*
X69758525Y-97590282D01*
X70326471Y-97506972D01*
X71014349Y-97412111D01*
X72054680Y-97299605D01*
X73049530Y-97208745D01*
X74133734Y-97140615D01*
X74768306Y-97177458D01*
G37*
X74768306Y-97177458D02*
X75095671Y-97342672D01*
X75225797Y-97566288D01*
X75273655Y-98149422D01*
X74997207Y-98434839D01*
X74555545Y-98282990D01*
X74486071Y-98215150D01*
X73898895Y-97929138D01*
X73426293Y-97922328D01*
X73019329Y-98120371D01*
X72718622Y-98604712D01*
X72479477Y-99483069D01*
X72283023Y-100677647D01*
X72062953Y-101373284D01*
X71646554Y-102225131D01*
X71174655Y-102971932D01*
X70864442Y-103309297D01*
X70430264Y-103801829D01*
X70326471Y-104131062D01*
X70152845Y-104510915D01*
X69835194Y-104495204D01*
X69683308Y-104188823D01*
X69429196Y-103016070D01*
X69027362Y-102330621D01*
X68650970Y-102171765D01*
X68272873Y-102010818D01*
X68364737Y-101611151D01*
X68682941Y-101275294D01*
X69065210Y-100726250D01*
X69132293Y-100416940D01*
X69281947Y-99851061D01*
X69648424Y-99090025D01*
X69725548Y-98959412D01*
X70103690Y-98286607D01*
X70106259Y-98036591D01*
X69680595Y-98163764D01*
X69125195Y-98439563D01*
X68137264Y-99222486D01*
X67670438Y-100255776D01*
X67637059Y-100658002D01*
X67515497Y-101154148D01*
X67338235Y-101275294D01*
X67185274Y-100998693D01*
X67079469Y-100256418D01*
X67039417Y-99179757D01*
X67039412Y-99165894D01*
X67077758Y-98015684D01*
X67187431Y-97362553D01*
X67338235Y-97241176D01*
X67585686Y-97660945D01*
X67637059Y-98030773D01*
X67781736Y-98470500D01*
X68010588Y-98498725D01*
X68308766Y-98167761D01*
X68309412Y-98025588D01*
X68499721Y-97756295D01*
X68907059Y-97665135D01*
X69758525Y-97590282D01*
X70326471Y-97506972D01*
X71014349Y-97412111D01*
X72054680Y-97299605D01*
X73049530Y-97208745D01*
X74133734Y-97140615D01*
X74768306Y-97177458D01*
G36*
X118020317Y-99614816D02*
G01*
X118391164Y-99806841D01*
X118258959Y-99986806D01*
X117914118Y-100157268D01*
X117358083Y-100531193D01*
X117300741Y-100838634D01*
X117756178Y-100975908D01*
X117802822Y-100976471D01*
X118459817Y-101193494D01*
X118743227Y-101433555D01*
X118936159Y-102077124D01*
X118691596Y-102821872D01*
X118095492Y-103480563D01*
X117694401Y-103718249D01*
X117143948Y-104049580D01*
X116942941Y-104311495D01*
X116772614Y-104577962D01*
X116403858Y-104496598D01*
X116050008Y-104152740D01*
X115946325Y-103912848D01*
X115880312Y-103210453D01*
X116102888Y-102918036D01*
X116528531Y-103096307D01*
X116992631Y-103325088D01*
X117158581Y-103094098D01*
X116967152Y-102515826D01*
X116684863Y-101625694D01*
X116707165Y-100744698D01*
X116980411Y-100020610D01*
X117450955Y-99601206D01*
X118020317Y-99614816D01*
G37*
X118020317Y-99614816D02*
X118391164Y-99806841D01*
X118258959Y-99986806D01*
X117914118Y-100157268D01*
X117358083Y-100531193D01*
X117300741Y-100838634D01*
X117756178Y-100975908D01*
X117802822Y-100976471D01*
X118459817Y-101193494D01*
X118743227Y-101433555D01*
X118936159Y-102077124D01*
X118691596Y-102821872D01*
X118095492Y-103480563D01*
X117694401Y-103718249D01*
X117143948Y-104049580D01*
X116942941Y-104311495D01*
X116772614Y-104577962D01*
X116403858Y-104496598D01*
X116050008Y-104152740D01*
X115946325Y-103912848D01*
X115880312Y-103210453D01*
X116102888Y-102918036D01*
X116528531Y-103096307D01*
X116992631Y-103325088D01*
X117158581Y-103094098D01*
X116967152Y-102515826D01*
X116684863Y-101625694D01*
X116707165Y-100744698D01*
X116980411Y-100020610D01*
X117450955Y-99601206D01*
X118020317Y-99614816D01*
G36*
X67766788Y-101836905D02*
G01*
X68004139Y-102502970D01*
X68111988Y-102918823D01*
X68279034Y-103711306D01*
X68348439Y-104194394D01*
X68337014Y-104263529D01*
X68156623Y-104028673D01*
X67832681Y-103455829D01*
X67794144Y-103381898D01*
X67445094Y-102527630D01*
X67348089Y-101877304D01*
X67521596Y-101579282D01*
X67569118Y-101574118D01*
X67766788Y-101836905D01*
G37*
X67766788Y-101836905D02*
X68004139Y-102502970D01*
X68111988Y-102918823D01*
X68279034Y-103711306D01*
X68348439Y-104194394D01*
X68337014Y-104263529D01*
X68156623Y-104028673D01*
X67832681Y-103455829D01*
X67794144Y-103381898D01*
X67445094Y-102527630D01*
X67348089Y-101877304D01*
X67521596Y-101579282D01*
X67569118Y-101574118D01*
X67766788Y-101836905D01*
G36*
X88232860Y-102334836D02*
G01*
X88255882Y-102435317D01*
X88037815Y-102857757D01*
X87957059Y-102918823D01*
X87681258Y-102905163D01*
X87658235Y-102804683D01*
X87876303Y-102382243D01*
X87957059Y-102321176D01*
X88232860Y-102334836D01*
G37*
X88232860Y-102334836D02*
X88255882Y-102435317D01*
X88037815Y-102857757D01*
X87957059Y-102918823D01*
X87681258Y-102905163D01*
X87658235Y-102804683D01*
X87876303Y-102382243D01*
X87957059Y-102321176D01*
X88232860Y-102334836D01*
G36*
X81091718Y-100670046D02*
G01*
X80649619Y-101207408D01*
X80486471Y-101574118D01*
X80331694Y-101861983D01*
X80009385Y-101747622D01*
X79761586Y-101374737D01*
X79708285Y-100859525D01*
X80087262Y-100508294D01*
X80867601Y-100260391D01*
X81696966Y-100064798D01*
X81091718Y-100670046D01*
G37*
X81091718Y-100670046D02*
X80649619Y-101207408D01*
X80486471Y-101574118D01*
X80331694Y-101861983D01*
X80009385Y-101747622D01*
X79761586Y-101374737D01*
X79708285Y-100859525D01*
X80087262Y-100508294D01*
X80867601Y-100260391D01*
X81696966Y-100064798D01*
X81091718Y-100670046D01*
G36*
X119532745Y-101076078D02*
G01*
X119568508Y-101430712D01*
X119532745Y-101474510D01*
X119355095Y-101433490D01*
X119333529Y-101275294D01*
X119442864Y-101029328D01*
X119532745Y-101076078D01*
G37*
X119532745Y-101076078D02*
X119568508Y-101430712D01*
X119532745Y-101474510D01*
X119355095Y-101433490D01*
X119333529Y-101275294D01*
X119442864Y-101029328D01*
X119532745Y-101076078D01*
G36*
X85865294Y-101125882D02*
G01*
X85715882Y-101275294D01*
X85566471Y-101125882D01*
X85715882Y-100976471D01*
X85865294Y-101125882D01*
G37*
X85865294Y-101125882D02*
X85715882Y-101275294D01*
X85566471Y-101125882D01*
X85715882Y-100976471D01*
X85865294Y-101125882D01*
G36*
X104691176Y-100229412D02*
G01*
X104541765Y-100378823D01*
X104392353Y-100229412D01*
X104541765Y-100080000D01*
X104691176Y-100229412D01*
G37*
X104691176Y-100229412D02*
X104541765Y-100378823D01*
X104392353Y-100229412D01*
X104541765Y-100080000D01*
X104691176Y-100229412D01*
G36*
X120528823Y-100229412D02*
G01*
X120379412Y-100378823D01*
X120230000Y-100229412D01*
X120379412Y-100080000D01*
X120528823Y-100229412D01*
G37*
X120528823Y-100229412D02*
X120379412Y-100378823D01*
X120230000Y-100229412D01*
X120379412Y-100080000D01*
X120528823Y-100229412D01*
G36*
X81669255Y-88575294D02*
G01*
X82155248Y-89315812D01*
X82674430Y-90194792D01*
X83128567Y-91034035D01*
X83419425Y-91655340D01*
X83474706Y-91850448D01*
X83218324Y-91971837D01*
X82727647Y-92011765D01*
X82128394Y-92149547D01*
X82013941Y-92458888D01*
X82427965Y-92783776D01*
X82503529Y-92812320D01*
X83754074Y-93277022D01*
X84499303Y-93624217D01*
X84809731Y-93896399D01*
X84755871Y-94136067D01*
X84735571Y-94157487D01*
X84312254Y-94337501D01*
X83975253Y-94146945D01*
X83534612Y-93967677D01*
X83189804Y-94236166D01*
X82948804Y-94771653D01*
X83273524Y-95115258D01*
X84163606Y-95266766D01*
X84920838Y-95267198D01*
X86283839Y-95342292D01*
X87424466Y-95635311D01*
X88261166Y-96091248D01*
X88712386Y-96655095D01*
X88696573Y-97271845D01*
X88435548Y-97637877D01*
X87981555Y-97907563D01*
X87178863Y-98104982D01*
X85929682Y-98249526D01*
X85032921Y-98312548D01*
X83569248Y-98444018D01*
X82305879Y-98637960D01*
X81413876Y-98866021D01*
X81233529Y-98942223D01*
X79793319Y-99490744D01*
X78546144Y-99540268D01*
X77498235Y-99170944D01*
X76953671Y-98826206D01*
X76819413Y-98620621D01*
X76900588Y-98596923D01*
X77030672Y-98444722D01*
X76652254Y-98029539D01*
X76498645Y-97902577D01*
X75648467Y-97222241D01*
X76304044Y-96111120D01*
X76770891Y-95429232D01*
X77164291Y-95037145D01*
X77264185Y-95000000D01*
X77656281Y-94817120D01*
X78290112Y-94355790D01*
X78589772Y-94103529D01*
X79255772Y-93563923D01*
X79749430Y-93244457D01*
X79864369Y-93207059D01*
X80168622Y-92958321D01*
X80292567Y-92370315D01*
X80213188Y-91680349D01*
X80049209Y-91301380D01*
X79817897Y-90543963D01*
X79977502Y-89837689D01*
X80452225Y-89387443D01*
X80781358Y-89322353D01*
X81203417Y-89227222D01*
X81272335Y-88827092D01*
X81211923Y-88500588D01*
X81029518Y-87678823D01*
X81669255Y-88575294D01*
G37*
X81669255Y-88575294D02*
X82155248Y-89315812D01*
X82674430Y-90194792D01*
X83128567Y-91034035D01*
X83419425Y-91655340D01*
X83474706Y-91850448D01*
X83218324Y-91971837D01*
X82727647Y-92011765D01*
X82128394Y-92149547D01*
X82013941Y-92458888D01*
X82427965Y-92783776D01*
X82503529Y-92812320D01*
X83754074Y-93277022D01*
X84499303Y-93624217D01*
X84809731Y-93896399D01*
X84755871Y-94136067D01*
X84735571Y-94157487D01*
X84312254Y-94337501D01*
X83975253Y-94146945D01*
X83534612Y-93967677D01*
X83189804Y-94236166D01*
X82948804Y-94771653D01*
X83273524Y-95115258D01*
X84163606Y-95266766D01*
X84920838Y-95267198D01*
X86283839Y-95342292D01*
X87424466Y-95635311D01*
X88261166Y-96091248D01*
X88712386Y-96655095D01*
X88696573Y-97271845D01*
X88435548Y-97637877D01*
X87981555Y-97907563D01*
X87178863Y-98104982D01*
X85929682Y-98249526D01*
X85032921Y-98312548D01*
X83569248Y-98444018D01*
X82305879Y-98637960D01*
X81413876Y-98866021D01*
X81233529Y-98942223D01*
X79793319Y-99490744D01*
X78546144Y-99540268D01*
X77498235Y-99170944D01*
X76953671Y-98826206D01*
X76819413Y-98620621D01*
X76900588Y-98596923D01*
X77030672Y-98444722D01*
X76652254Y-98029539D01*
X76498645Y-97902577D01*
X75648467Y-97222241D01*
X76304044Y-96111120D01*
X76770891Y-95429232D01*
X77164291Y-95037145D01*
X77264185Y-95000000D01*
X77656281Y-94817120D01*
X78290112Y-94355790D01*
X78589772Y-94103529D01*
X79255772Y-93563923D01*
X79749430Y-93244457D01*
X79864369Y-93207059D01*
X80168622Y-92958321D01*
X80292567Y-92370315D01*
X80213188Y-91680349D01*
X80049209Y-91301380D01*
X79817897Y-90543963D01*
X79977502Y-89837689D01*
X80452225Y-89387443D01*
X80781358Y-89322353D01*
X81203417Y-89227222D01*
X81272335Y-88827092D01*
X81211923Y-88500588D01*
X81029518Y-87678823D01*
X81669255Y-88575294D01*
G36*
X104392353Y-99332941D02*
G01*
X104242941Y-99482353D01*
X104093529Y-99332941D01*
X104242941Y-99183529D01*
X104392353Y-99332941D01*
G37*
X104392353Y-99332941D02*
X104242941Y-99482353D01*
X104093529Y-99332941D01*
X104242941Y-99183529D01*
X104392353Y-99332941D01*
G36*
X119599401Y-91322540D02*
G01*
X119854698Y-91906979D01*
X119873811Y-92035171D01*
X120065731Y-92823188D01*
X120398217Y-93703472D01*
X120399096Y-93705395D01*
X120954342Y-95408586D01*
X121025080Y-96973149D01*
X120608376Y-98302459D01*
X120542120Y-98414956D01*
X120097823Y-99118332D01*
X119848792Y-99416863D01*
X119677023Y-99414668D01*
X119544663Y-99295055D01*
X119539954Y-98931384D01*
X119778700Y-98294834D01*
X119815717Y-98221403D01*
X120103859Y-97486016D01*
X120039213Y-97147575D01*
X119649416Y-97259270D01*
X119410067Y-97440696D01*
X118759298Y-97918999D01*
X117962380Y-98409401D01*
X117191173Y-98818664D01*
X116617543Y-99053548D01*
X116422495Y-99061514D01*
X116406304Y-98707131D01*
X116571822Y-98067175D01*
X116717054Y-97266560D01*
X116749869Y-96197942D01*
X116717765Y-95661333D01*
X116677807Y-94641893D01*
X116820966Y-94185618D01*
X117165669Y-94281167D01*
X117730340Y-94917199D01*
X117792161Y-95000000D01*
X118519911Y-95692779D01*
X119245995Y-95875633D01*
X119868367Y-95523697D01*
X119880789Y-95508948D01*
X119979864Y-95127885D01*
X119647719Y-94616076D01*
X119346569Y-94313654D01*
X118678502Y-93790525D01*
X118107445Y-93517322D01*
X118015661Y-93505882D01*
X117613887Y-93307737D01*
X117576134Y-92820803D01*
X117873173Y-92206332D01*
X118338187Y-91726574D01*
X119105195Y-91264676D01*
X119599401Y-91322540D01*
G37*
X119599401Y-91322540D02*
X119854698Y-91906979D01*
X119873811Y-92035171D01*
X120065731Y-92823188D01*
X120398217Y-93703472D01*
X120399096Y-93705395D01*
X120954342Y-95408586D01*
X121025080Y-96973149D01*
X120608376Y-98302459D01*
X120542120Y-98414956D01*
X120097823Y-99118332D01*
X119848792Y-99416863D01*
X119677023Y-99414668D01*
X119544663Y-99295055D01*
X119539954Y-98931384D01*
X119778700Y-98294834D01*
X119815717Y-98221403D01*
X120103859Y-97486016D01*
X120039213Y-97147575D01*
X119649416Y-97259270D01*
X119410067Y-97440696D01*
X118759298Y-97918999D01*
X117962380Y-98409401D01*
X117191173Y-98818664D01*
X116617543Y-99053548D01*
X116422495Y-99061514D01*
X116406304Y-98707131D01*
X116571822Y-98067175D01*
X116717054Y-97266560D01*
X116749869Y-96197942D01*
X116717765Y-95661333D01*
X116677807Y-94641893D01*
X116820966Y-94185618D01*
X117165669Y-94281167D01*
X117730340Y-94917199D01*
X117792161Y-95000000D01*
X118519911Y-95692779D01*
X119245995Y-95875633D01*
X119868367Y-95523697D01*
X119880789Y-95508948D01*
X119979864Y-95127885D01*
X119647719Y-94616076D01*
X119346569Y-94313654D01*
X118678502Y-93790525D01*
X118107445Y-93517322D01*
X118015661Y-93505882D01*
X117613887Y-93307737D01*
X117576134Y-92820803D01*
X117873173Y-92206332D01*
X118338187Y-91726574D01*
X119105195Y-91264676D01*
X119599401Y-91322540D01*
G36*
X116248923Y-96603524D02*
G01*
X116156279Y-97079086D01*
X116035607Y-97254266D01*
X115551686Y-97645785D01*
X115220831Y-97572802D01*
X115150000Y-97277766D01*
X115360580Y-96747007D01*
X115571632Y-96516197D01*
X116016116Y-96355566D01*
X116248923Y-96603524D01*
G37*
X116248923Y-96603524D02*
X116156279Y-97079086D01*
X116035607Y-97254266D01*
X115551686Y-97645785D01*
X115220831Y-97572802D01*
X115150000Y-97277766D01*
X115360580Y-96747007D01*
X115571632Y-96516197D01*
X116016116Y-96355566D01*
X116248923Y-96603524D01*
G36*
X122374377Y-91981806D02*
G01*
X122535792Y-93015178D01*
X122500046Y-94184480D01*
X122311782Y-95092440D01*
X121993286Y-95977690D01*
X121719970Y-96528362D01*
X121543034Y-96686106D01*
X121513683Y-96392573D01*
X121606235Y-95896471D01*
X121727562Y-95024731D01*
X121789418Y-93850101D01*
X121785332Y-92921380D01*
X121782293Y-91838670D01*
X121868643Y-91316056D01*
X122031994Y-91303641D01*
X122374377Y-91981806D01*
G37*
X122374377Y-91981806D02*
X122535792Y-93015178D01*
X122500046Y-94184480D01*
X122311782Y-95092440D01*
X121993286Y-95977690D01*
X121719970Y-96528362D01*
X121543034Y-96686106D01*
X121513683Y-96392573D01*
X121606235Y-95896471D01*
X121727562Y-95024731D01*
X121789418Y-93850101D01*
X121785332Y-92921380D01*
X121782293Y-91838670D01*
X121868643Y-91316056D01*
X122031994Y-91303641D01*
X122374377Y-91981806D01*
G36*
X121325686Y-91513725D02*
G01*
X121361450Y-91868359D01*
X121325686Y-91912157D01*
X121148036Y-91871137D01*
X121126471Y-91712941D01*
X121235805Y-91466975D01*
X121325686Y-91513725D01*
G37*
X121325686Y-91513725D02*
X121361450Y-91868359D01*
X121325686Y-91912157D01*
X121148036Y-91871137D01*
X121126471Y-91712941D01*
X121235805Y-91466975D01*
X121325686Y-91513725D01*
G36*
X119695678Y-88343912D02*
G01*
X119925286Y-88568197D01*
X119963577Y-89023037D01*
X119600675Y-89623613D01*
X118969732Y-90247978D01*
X118203903Y-90774182D01*
X117436341Y-91080278D01*
X117145714Y-91113866D01*
X116580838Y-91082127D01*
X116533407Y-90911904D01*
X116789370Y-90628529D01*
X117119847Y-90107236D01*
X117138921Y-89784188D01*
X117310619Y-89424193D01*
X118009346Y-88921098D01*
X119190470Y-88306119D01*
X119374376Y-88220838D01*
X119695678Y-88343912D01*
G37*
X119695678Y-88343912D02*
X119925286Y-88568197D01*
X119963577Y-89023037D01*
X119600675Y-89623613D01*
X118969732Y-90247978D01*
X118203903Y-90774182D01*
X117436341Y-91080278D01*
X117145714Y-91113866D01*
X116580838Y-91082127D01*
X116533407Y-90911904D01*
X116789370Y-90628529D01*
X117119847Y-90107236D01*
X117138921Y-89784188D01*
X117310619Y-89424193D01*
X118009346Y-88921098D01*
X119190470Y-88306119D01*
X119374376Y-88220838D01*
X119695678Y-88343912D01*
G36*
X105258029Y-85311118D02*
G01*
X105533069Y-85859905D01*
X105722182Y-86775971D01*
X105804194Y-87832463D01*
X105757935Y-88802531D01*
X105632401Y-89322353D01*
X105431148Y-89768788D01*
X105341224Y-89733081D01*
X105310997Y-89162459D01*
X105307765Y-88990531D01*
X105255532Y-88008886D01*
X105147290Y-86840928D01*
X105100676Y-86450531D01*
X105020358Y-85592416D01*
X105079078Y-85245911D01*
X105258029Y-85311118D01*
G37*
X105258029Y-85311118D02*
X105533069Y-85859905D01*
X105722182Y-86775971D01*
X105804194Y-87832463D01*
X105757935Y-88802531D01*
X105632401Y-89322353D01*
X105431148Y-89768788D01*
X105341224Y-89733081D01*
X105310997Y-89162459D01*
X105307765Y-88990531D01*
X105255532Y-88008886D01*
X105147290Y-86840928D01*
X105100676Y-86450531D01*
X105020358Y-85592416D01*
X105079078Y-85245911D01*
X105258029Y-85311118D01*
G36*
X80685686Y-87330196D02*
G01*
X80721450Y-87684830D01*
X80685686Y-87728627D01*
X80508036Y-87687608D01*
X80486471Y-87529412D01*
X80595805Y-87283446D01*
X80685686Y-87330196D01*
G37*
X80685686Y-87330196D02*
X80721450Y-87684830D01*
X80685686Y-87728627D01*
X80508036Y-87687608D01*
X80486471Y-87529412D01*
X80595805Y-87283446D01*
X80685686Y-87330196D01*
G36*
X105194130Y-83887500D02*
G01*
X105229754Y-84354525D01*
X105170539Y-84460245D01*
X105034720Y-84371124D01*
X105013591Y-84068039D01*
X105086570Y-83749184D01*
X105194130Y-83887500D01*
G37*
X105194130Y-83887500D02*
X105229754Y-84354525D01*
X105170539Y-84460245D01*
X105034720Y-84371124D01*
X105013591Y-84068039D01*
X105086570Y-83749184D01*
X105194130Y-83887500D01*
G36*
X107371905Y-84170927D02*
G01*
X107380588Y-84242353D01*
X107153191Y-84532493D01*
X107081765Y-84541176D01*
X106791625Y-84313779D01*
X106782941Y-84242353D01*
X107010338Y-83952213D01*
X107081765Y-83943529D01*
X107371905Y-84170927D01*
G37*
X107371905Y-84170927D02*
X107380588Y-84242353D01*
X107153191Y-84532493D01*
X107081765Y-84541176D01*
X106791625Y-84313779D01*
X106782941Y-84242353D01*
X107010338Y-83952213D01*
X107081765Y-83943529D01*
X107371905Y-84170927D01*
G36*
X73860289Y-82688610D02*
G01*
X73912353Y-82897647D01*
X73730329Y-83309208D01*
X73317053Y-83235022D01*
X73215098Y-83146667D01*
X73024752Y-82709288D01*
X73335771Y-82459433D01*
X73464118Y-82449412D01*
X73860289Y-82688610D01*
G37*
X73860289Y-82688610D02*
X73912353Y-82897647D01*
X73730329Y-83309208D01*
X73317053Y-83235022D01*
X73215098Y-83146667D01*
X73024752Y-82709288D01*
X73335771Y-82459433D01*
X73464118Y-82449412D01*
X73860289Y-82688610D01*
G36*
X86429228Y-81496152D02*
G01*
X86462941Y-81702353D01*
X86301585Y-82100018D01*
X86164118Y-82150588D01*
X85899008Y-81908554D01*
X85865294Y-81702353D01*
X86026650Y-81304688D01*
X86164118Y-81254118D01*
X86429228Y-81496152D01*
G37*
X86429228Y-81496152D02*
X86462941Y-81702353D01*
X86301585Y-82100018D01*
X86164118Y-82150588D01*
X85899008Y-81908554D01*
X85865294Y-81702353D01*
X86026650Y-81304688D01*
X86164118Y-81254118D01*
X86429228Y-81496152D01*
G36*
X92140588Y-81403529D02*
G01*
X92425661Y-81672054D01*
X92439412Y-81719989D01*
X92208214Y-81848339D01*
X92140588Y-81851765D01*
X91853248Y-81622043D01*
X91841765Y-81535305D01*
X92024835Y-81356837D01*
X92140588Y-81403529D01*
G37*
X92140588Y-81403529D02*
X92425661Y-81672054D01*
X92439412Y-81719989D01*
X92208214Y-81848339D01*
X92140588Y-81851765D01*
X91853248Y-81622043D01*
X91841765Y-81535305D01*
X92024835Y-81356837D01*
X92140588Y-81403529D01*
G36*
X108874706Y-81403529D02*
G01*
X108725294Y-81552941D01*
X108575882Y-81403529D01*
X108725294Y-81254118D01*
X108874706Y-81403529D01*
G37*
X108874706Y-81403529D02*
X108725294Y-81552941D01*
X108575882Y-81403529D01*
X108725294Y-81254118D01*
X108874706Y-81403529D01*
G36*
X88593575Y-64732163D02*
G01*
X88690126Y-64807211D01*
X89288680Y-65040628D01*
X89618430Y-65002738D01*
X90255373Y-64985290D01*
X90661235Y-65125549D01*
X91387457Y-65253290D01*
X91797650Y-65075848D01*
X92404487Y-64928165D01*
X93252336Y-64983593D01*
X94159733Y-65192015D01*
X94945218Y-65503312D01*
X95427329Y-65867368D01*
X95494428Y-66096857D01*
X95614929Y-66634121D01*
X95769327Y-66787663D01*
X96001443Y-66812268D01*
X95936042Y-66511373D01*
X95942313Y-66090215D01*
X96184084Y-66014118D01*
X96575693Y-66178467D01*
X96622941Y-66312941D01*
X96871647Y-66560467D01*
X97186280Y-66611765D01*
X98265726Y-66843821D01*
X99480272Y-67454716D01*
X100659966Y-68316535D01*
X101634859Y-69301365D01*
X102235000Y-70281292D01*
X102292184Y-70454730D01*
X102464174Y-71310758D01*
X102345554Y-71671726D01*
X101909891Y-71578666D01*
X101660252Y-71435630D01*
X101123631Y-71209200D01*
X100860731Y-71239072D01*
X100900757Y-71526374D01*
X101071220Y-71670706D01*
X101325655Y-72137040D01*
X101279937Y-72508740D01*
X101331539Y-73206726D01*
X101560927Y-73490845D01*
X101853673Y-73855327D01*
X101656190Y-74111247D01*
X101441145Y-74399669D01*
X101589608Y-74908523D01*
X101687088Y-75098614D01*
X101934172Y-75735702D01*
X101802230Y-76194600D01*
X101711395Y-76313343D01*
X101489990Y-76673569D01*
X101734929Y-76771092D01*
X101790862Y-76771765D01*
X102273760Y-76646262D01*
X102376122Y-76547647D01*
X102431325Y-76563091D01*
X102395869Y-76734934D01*
X102477972Y-77300040D01*
X102636839Y-77563920D01*
X102839875Y-78003804D01*
X102791406Y-78173496D01*
X102614572Y-78137115D01*
X102599412Y-78016863D01*
X102341797Y-77764195D01*
X101775674Y-77668235D01*
X100906346Y-77576459D01*
X99940704Y-77354627D01*
X99908027Y-77344618D01*
X98464428Y-76927581D01*
X97416988Y-76713187D01*
X96607538Y-76680697D01*
X95877908Y-76809368D01*
X95861167Y-76813961D01*
X95181091Y-77077933D01*
X94839462Y-77359744D01*
X94830000Y-77403595D01*
X95060559Y-77577877D01*
X95382232Y-77533238D01*
X96044054Y-77539645D01*
X96887123Y-77806181D01*
X97692766Y-78229342D01*
X98242311Y-78705629D01*
X98354276Y-78939957D01*
X98325379Y-79388181D01*
X97993365Y-79353620D01*
X97338290Y-78833440D01*
X97290511Y-78788823D01*
X96992194Y-78527329D01*
X96677932Y-78344406D01*
X96249426Y-78231718D01*
X95608377Y-78180928D01*
X94656489Y-78183698D01*
X93295461Y-78231690D01*
X91617647Y-78307677D01*
X90740857Y-78390045D01*
X90171450Y-78523163D01*
X90048823Y-78622172D01*
X89783882Y-78774400D01*
X89123340Y-78858010D01*
X88873666Y-78863529D01*
X88049345Y-78936759D01*
X87628601Y-79211693D01*
X87500165Y-79488456D01*
X87066779Y-80088183D01*
X86168803Y-80551418D01*
X84770115Y-80888811D01*
X82834589Y-81111014D01*
X81775388Y-81176432D01*
X78394706Y-81342931D01*
X78394706Y-80103230D01*
X78330653Y-79338489D01*
X78169991Y-78902365D01*
X78095882Y-78863529D01*
X77887858Y-78603409D01*
X77814044Y-78091569D01*
X81107709Y-78091569D01*
X81162649Y-78479147D01*
X81264657Y-78483774D01*
X81335991Y-78083832D01*
X81288248Y-77911029D01*
X81155561Y-77797841D01*
X81107709Y-78091569D01*
X77814044Y-78091569D01*
X77797195Y-77974737D01*
X77797059Y-77946922D01*
X77744340Y-77324276D01*
X77497807Y-77156779D01*
X77124706Y-77240139D01*
X76515092Y-77525409D01*
X76258142Y-77752463D01*
X75848840Y-77914353D01*
X75121092Y-77890816D01*
X74311448Y-77718142D01*
X73656460Y-77432622D01*
X73529089Y-77333776D01*
X73363947Y-77040897D01*
X73519633Y-76648773D01*
X74057284Y-76031948D01*
X74267072Y-75819399D01*
X74498928Y-75576774D01*
X80823857Y-75576774D01*
X80829504Y-76336105D01*
X80888126Y-76863894D01*
X80999734Y-77029490D01*
X81124326Y-76821158D01*
X81257654Y-75963757D01*
X81200634Y-75402381D01*
X81164916Y-74858318D01*
X81318151Y-74680000D01*
X81622218Y-74424433D01*
X81817149Y-73825193D01*
X81851400Y-73133473D01*
X81728177Y-72681782D01*
X81517018Y-72461502D01*
X81312965Y-72706405D01*
X81124647Y-73216017D01*
X80971440Y-73886081D01*
X80871173Y-74716550D01*
X80823857Y-75576774D01*
X74498928Y-75576774D01*
X75023570Y-75027765D01*
X75346945Y-74581421D01*
X75256298Y-74434923D01*
X74808823Y-74530588D01*
X74340133Y-74556096D01*
X74211302Y-74127826D01*
X74211176Y-74102490D01*
X74267190Y-73883137D01*
X74908431Y-73883137D01*
X74949451Y-74060787D01*
X75107647Y-74082353D01*
X75265136Y-74012347D01*
X75868188Y-74012347D01*
X75877405Y-74469264D01*
X76186894Y-74476436D01*
X76488203Y-74250437D01*
X76467833Y-74147637D01*
X76491988Y-73820114D01*
X76646940Y-73579685D01*
X76830122Y-73137644D01*
X76666337Y-72906945D01*
X76290994Y-73078300D01*
X76290965Y-73078329D01*
X75988338Y-73606030D01*
X75868188Y-74012347D01*
X75265136Y-74012347D01*
X75353613Y-73973018D01*
X75306863Y-73883137D01*
X74952229Y-73847374D01*
X74908431Y-73883137D01*
X74267190Y-73883137D01*
X74337918Y-73606168D01*
X74523099Y-73484706D01*
X74780949Y-73255267D01*
X74786518Y-73111176D01*
X74744879Y-72319831D01*
X75213707Y-72319831D01*
X75315902Y-72769583D01*
X75499286Y-73164094D01*
X75602222Y-73004227D01*
X75648175Y-72788964D01*
X75658094Y-72270735D01*
X82036618Y-72270735D01*
X82118190Y-72548574D01*
X82298088Y-72532206D01*
X82750955Y-72153869D01*
X82821029Y-72009265D01*
X82739457Y-71731426D01*
X82559559Y-71747794D01*
X82106692Y-72126131D01*
X82036618Y-72270735D01*
X75658094Y-72270735D01*
X75658618Y-72243397D01*
X75582297Y-72066807D01*
X75307474Y-71987667D01*
X75213707Y-72319831D01*
X74744879Y-72319831D01*
X74742172Y-72268402D01*
X74805425Y-71511023D01*
X74949349Y-71020704D01*
X75107647Y-70944706D01*
X75573919Y-71050704D01*
X75761240Y-70745234D01*
X75603430Y-70175314D01*
X75518193Y-70032652D01*
X75213230Y-69516432D01*
X75263559Y-69326236D01*
X75553485Y-69301176D01*
X75922154Y-69131381D01*
X75896055Y-68852941D01*
X75945698Y-68469811D01*
X76080457Y-68435004D01*
X77881712Y-68435004D01*
X77944410Y-68734431D01*
X77965683Y-68791123D01*
X78202409Y-69157045D01*
X78336995Y-69159672D01*
X78303475Y-68843559D01*
X78132963Y-68623843D01*
X78034147Y-68549573D01*
X99732477Y-68549573D01*
X99760588Y-68703529D01*
X100142621Y-68990954D01*
X100226459Y-69002353D01*
X100499599Y-68774427D01*
X100507647Y-68703529D01*
X100264416Y-68441278D01*
X100041776Y-68404706D01*
X99732477Y-68549573D01*
X78034147Y-68549573D01*
X77881712Y-68435004D01*
X76080457Y-68435004D01*
X76197760Y-68404706D01*
X76538090Y-68215985D01*
X76515259Y-67807356D01*
X76529923Y-67201743D01*
X76876937Y-66985198D01*
X77320369Y-67185796D01*
X77789614Y-67311847D01*
X78441590Y-67212728D01*
X79095293Y-66963149D01*
X79569722Y-66637823D01*
X79683875Y-66311461D01*
X79629324Y-66232736D01*
X79326394Y-65653839D01*
X79299128Y-65431412D01*
X79423331Y-65304329D01*
X79748772Y-65683983D01*
X79819239Y-65794389D01*
X80272490Y-66320569D01*
X80682492Y-66483708D01*
X80707758Y-66476121D01*
X81046453Y-66509757D01*
X81084118Y-66621143D01*
X81213291Y-66920591D01*
X81480902Y-66813446D01*
X81707087Y-66398947D01*
X81735687Y-66261641D01*
X81983582Y-65682908D01*
X82250020Y-65474576D01*
X82538218Y-65523712D01*
X82502113Y-65974111D01*
X82481123Y-66449478D01*
X82866882Y-66605196D01*
X83086417Y-66611765D01*
X83616767Y-66525257D01*
X83654458Y-66312941D01*
X87359412Y-66312941D01*
X87461366Y-66603995D01*
X87491188Y-66611765D01*
X87746314Y-66402368D01*
X87807647Y-66312941D01*
X87783955Y-66037580D01*
X87675871Y-66014118D01*
X87371573Y-66231037D01*
X87359412Y-66312941D01*
X83654458Y-66312941D01*
X83674789Y-66198417D01*
X83640295Y-66097932D01*
X83559785Y-65760753D01*
X83633727Y-65774708D01*
X84024835Y-65825156D01*
X84652973Y-65670409D01*
X85253474Y-65404448D01*
X85561675Y-65121252D01*
X85566471Y-65088415D01*
X85796417Y-64828330D01*
X85878393Y-64818823D01*
X86102417Y-65055164D01*
X86102511Y-65310764D01*
X86213458Y-65801847D01*
X86388235Y-65933313D01*
X86718365Y-65823232D01*
X86744110Y-65715294D01*
X88554706Y-65715294D01*
X88664041Y-65961260D01*
X88753921Y-65914510D01*
X88758943Y-65864706D01*
X93933529Y-65864706D01*
X94082941Y-66014118D01*
X94232353Y-65864706D01*
X94082941Y-65715294D01*
X93933529Y-65864706D01*
X88758943Y-65864706D01*
X88789685Y-65559876D01*
X88753921Y-65516078D01*
X88576271Y-65557098D01*
X88554706Y-65715294D01*
X86744110Y-65715294D01*
X86761765Y-65641279D01*
X87000636Y-65202615D01*
X87498637Y-64824275D01*
X88130818Y-64584864D01*
X88593575Y-64732163D01*
G37*
X88593575Y-64732163D02*
X88690126Y-64807211D01*
X89288680Y-65040628D01*
X89618430Y-65002738D01*
X90255373Y-64985290D01*
X90661235Y-65125549D01*
X91387457Y-65253290D01*
X91797650Y-65075848D01*
X92404487Y-64928165D01*
X93252336Y-64983593D01*
X94159733Y-65192015D01*
X94945218Y-65503312D01*
X95427329Y-65867368D01*
X95494428Y-66096857D01*
X95614929Y-66634121D01*
X95769327Y-66787663D01*
X96001443Y-66812268D01*
X95936042Y-66511373D01*
X95942313Y-66090215D01*
X96184084Y-66014118D01*
X96575693Y-66178467D01*
X96622941Y-66312941D01*
X96871647Y-66560467D01*
X97186280Y-66611765D01*
X98265726Y-66843821D01*
X99480272Y-67454716D01*
X100659966Y-68316535D01*
X101634859Y-69301365D01*
X102235000Y-70281292D01*
X102292184Y-70454730D01*
X102464174Y-71310758D01*
X102345554Y-71671726D01*
X101909891Y-71578666D01*
X101660252Y-71435630D01*
X101123631Y-71209200D01*
X100860731Y-71239072D01*
X100900757Y-71526374D01*
X101071220Y-71670706D01*
X101325655Y-72137040D01*
X101279937Y-72508740D01*
X101331539Y-73206726D01*
X101560927Y-73490845D01*
X101853673Y-73855327D01*
X101656190Y-74111247D01*
X101441145Y-74399669D01*
X101589608Y-74908523D01*
X101687088Y-75098614D01*
X101934172Y-75735702D01*
X101802230Y-76194600D01*
X101711395Y-76313343D01*
X101489990Y-76673569D01*
X101734929Y-76771092D01*
X101790862Y-76771765D01*
X102273760Y-76646262D01*
X102376122Y-76547647D01*
X102431325Y-76563091D01*
X102395869Y-76734934D01*
X102477972Y-77300040D01*
X102636839Y-77563920D01*
X102839875Y-78003804D01*
X102791406Y-78173496D01*
X102614572Y-78137115D01*
X102599412Y-78016863D01*
X102341797Y-77764195D01*
X101775674Y-77668235D01*
X100906346Y-77576459D01*
X99940704Y-77354627D01*
X99908027Y-77344618D01*
X98464428Y-76927581D01*
X97416988Y-76713187D01*
X96607538Y-76680697D01*
X95877908Y-76809368D01*
X95861167Y-76813961D01*
X95181091Y-77077933D01*
X94839462Y-77359744D01*
X94830000Y-77403595D01*
X95060559Y-77577877D01*
X95382232Y-77533238D01*
X96044054Y-77539645D01*
X96887123Y-77806181D01*
X97692766Y-78229342D01*
X98242311Y-78705629D01*
X98354276Y-78939957D01*
X98325379Y-79388181D01*
X97993365Y-79353620D01*
X97338290Y-78833440D01*
X97290511Y-78788823D01*
X96992194Y-78527329D01*
X96677932Y-78344406D01*
X96249426Y-78231718D01*
X95608377Y-78180928D01*
X94656489Y-78183698D01*
X93295461Y-78231690D01*
X91617647Y-78307677D01*
X90740857Y-78390045D01*
X90171450Y-78523163D01*
X90048823Y-78622172D01*
X89783882Y-78774400D01*
X89123340Y-78858010D01*
X88873666Y-78863529D01*
X88049345Y-78936759D01*
X87628601Y-79211693D01*
X87500165Y-79488456D01*
X87066779Y-80088183D01*
X86168803Y-80551418D01*
X84770115Y-80888811D01*
X82834589Y-81111014D01*
X81775388Y-81176432D01*
X78394706Y-81342931D01*
X78394706Y-80103230D01*
X78330653Y-79338489D01*
X78169991Y-78902365D01*
X78095882Y-78863529D01*
X77887858Y-78603409D01*
X77814044Y-78091569D01*
X81107709Y-78091569D01*
X81162649Y-78479147D01*
X81264657Y-78483774D01*
X81335991Y-78083832D01*
X81288248Y-77911029D01*
X81155561Y-77797841D01*
X81107709Y-78091569D01*
X77814044Y-78091569D01*
X77797195Y-77974737D01*
X77797059Y-77946922D01*
X77744340Y-77324276D01*
X77497807Y-77156779D01*
X77124706Y-77240139D01*
X76515092Y-77525409D01*
X76258142Y-77752463D01*
X75848840Y-77914353D01*
X75121092Y-77890816D01*
X74311448Y-77718142D01*
X73656460Y-77432622D01*
X73529089Y-77333776D01*
X73363947Y-77040897D01*
X73519633Y-76648773D01*
X74057284Y-76031948D01*
X74267072Y-75819399D01*
X74498928Y-75576774D01*
X80823857Y-75576774D01*
X80829504Y-76336105D01*
X80888126Y-76863894D01*
X80999734Y-77029490D01*
X81124326Y-76821158D01*
X81257654Y-75963757D01*
X81200634Y-75402381D01*
X81164916Y-74858318D01*
X81318151Y-74680000D01*
X81622218Y-74424433D01*
X81817149Y-73825193D01*
X81851400Y-73133473D01*
X81728177Y-72681782D01*
X81517018Y-72461502D01*
X81312965Y-72706405D01*
X81124647Y-73216017D01*
X80971440Y-73886081D01*
X80871173Y-74716550D01*
X80823857Y-75576774D01*
X74498928Y-75576774D01*
X75023570Y-75027765D01*
X75346945Y-74581421D01*
X75256298Y-74434923D01*
X74808823Y-74530588D01*
X74340133Y-74556096D01*
X74211302Y-74127826D01*
X74211176Y-74102490D01*
X74267190Y-73883137D01*
X74908431Y-73883137D01*
X74949451Y-74060787D01*
X75107647Y-74082353D01*
X75265136Y-74012347D01*
X75868188Y-74012347D01*
X75877405Y-74469264D01*
X76186894Y-74476436D01*
X76488203Y-74250437D01*
X76467833Y-74147637D01*
X76491988Y-73820114D01*
X76646940Y-73579685D01*
X76830122Y-73137644D01*
X76666337Y-72906945D01*
X76290994Y-73078300D01*
X76290965Y-73078329D01*
X75988338Y-73606030D01*
X75868188Y-74012347D01*
X75265136Y-74012347D01*
X75353613Y-73973018D01*
X75306863Y-73883137D01*
X74952229Y-73847374D01*
X74908431Y-73883137D01*
X74267190Y-73883137D01*
X74337918Y-73606168D01*
X74523099Y-73484706D01*
X74780949Y-73255267D01*
X74786518Y-73111176D01*
X74744879Y-72319831D01*
X75213707Y-72319831D01*
X75315902Y-72769583D01*
X75499286Y-73164094D01*
X75602222Y-73004227D01*
X75648175Y-72788964D01*
X75658094Y-72270735D01*
X82036618Y-72270735D01*
X82118190Y-72548574D01*
X82298088Y-72532206D01*
X82750955Y-72153869D01*
X82821029Y-72009265D01*
X82739457Y-71731426D01*
X82559559Y-71747794D01*
X82106692Y-72126131D01*
X82036618Y-72270735D01*
X75658094Y-72270735D01*
X75658618Y-72243397D01*
X75582297Y-72066807D01*
X75307474Y-71987667D01*
X75213707Y-72319831D01*
X74744879Y-72319831D01*
X74742172Y-72268402D01*
X74805425Y-71511023D01*
X74949349Y-71020704D01*
X75107647Y-70944706D01*
X75573919Y-71050704D01*
X75761240Y-70745234D01*
X75603430Y-70175314D01*
X75518193Y-70032652D01*
X75213230Y-69516432D01*
X75263559Y-69326236D01*
X75553485Y-69301176D01*
X75922154Y-69131381D01*
X75896055Y-68852941D01*
X75945698Y-68469811D01*
X76080457Y-68435004D01*
X77881712Y-68435004D01*
X77944410Y-68734431D01*
X77965683Y-68791123D01*
X78202409Y-69157045D01*
X78336995Y-69159672D01*
X78303475Y-68843559D01*
X78132963Y-68623843D01*
X78034147Y-68549573D01*
X99732477Y-68549573D01*
X99760588Y-68703529D01*
X100142621Y-68990954D01*
X100226459Y-69002353D01*
X100499599Y-68774427D01*
X100507647Y-68703529D01*
X100264416Y-68441278D01*
X100041776Y-68404706D01*
X99732477Y-68549573D01*
X78034147Y-68549573D01*
X77881712Y-68435004D01*
X76080457Y-68435004D01*
X76197760Y-68404706D01*
X76538090Y-68215985D01*
X76515259Y-67807356D01*
X76529923Y-67201743D01*
X76876937Y-66985198D01*
X77320369Y-67185796D01*
X77789614Y-67311847D01*
X78441590Y-67212728D01*
X79095293Y-66963149D01*
X79569722Y-66637823D01*
X79683875Y-66311461D01*
X79629324Y-66232736D01*
X79326394Y-65653839D01*
X79299128Y-65431412D01*
X79423331Y-65304329D01*
X79748772Y-65683983D01*
X79819239Y-65794389D01*
X80272490Y-66320569D01*
X80682492Y-66483708D01*
X80707758Y-66476121D01*
X81046453Y-66509757D01*
X81084118Y-66621143D01*
X81213291Y-66920591D01*
X81480902Y-66813446D01*
X81707087Y-66398947D01*
X81735687Y-66261641D01*
X81983582Y-65682908D01*
X82250020Y-65474576D01*
X82538218Y-65523712D01*
X82502113Y-65974111D01*
X82481123Y-66449478D01*
X82866882Y-66605196D01*
X83086417Y-66611765D01*
X83616767Y-66525257D01*
X83654458Y-66312941D01*
X87359412Y-66312941D01*
X87461366Y-66603995D01*
X87491188Y-66611765D01*
X87746314Y-66402368D01*
X87807647Y-66312941D01*
X87783955Y-66037580D01*
X87675871Y-66014118D01*
X87371573Y-66231037D01*
X87359412Y-66312941D01*
X83654458Y-66312941D01*
X83674789Y-66198417D01*
X83640295Y-66097932D01*
X83559785Y-65760753D01*
X83633727Y-65774708D01*
X84024835Y-65825156D01*
X84652973Y-65670409D01*
X85253474Y-65404448D01*
X85561675Y-65121252D01*
X85566471Y-65088415D01*
X85796417Y-64828330D01*
X85878393Y-64818823D01*
X86102417Y-65055164D01*
X86102511Y-65310764D01*
X86213458Y-65801847D01*
X86388235Y-65933313D01*
X86718365Y-65823232D01*
X86744110Y-65715294D01*
X88554706Y-65715294D01*
X88664041Y-65961260D01*
X88753921Y-65914510D01*
X88758943Y-65864706D01*
X93933529Y-65864706D01*
X94082941Y-66014118D01*
X94232353Y-65864706D01*
X94082941Y-65715294D01*
X93933529Y-65864706D01*
X88758943Y-65864706D01*
X88789685Y-65559876D01*
X88753921Y-65516078D01*
X88576271Y-65557098D01*
X88554706Y-65715294D01*
X86744110Y-65715294D01*
X86761765Y-65641279D01*
X87000636Y-65202615D01*
X87498637Y-64824275D01*
X88130818Y-64584864D01*
X88593575Y-64732163D01*
G36*
X99611176Y-80780980D02*
G01*
X99370578Y-81192623D01*
X99138039Y-81254118D01*
X98789524Y-81080370D01*
X98783186Y-80899265D01*
X99080619Y-80504649D01*
X99438690Y-80454475D01*
X99611176Y-80780980D01*
G37*
X99611176Y-80780980D02*
X99370578Y-81192623D01*
X99138039Y-81254118D01*
X98789524Y-81080370D01*
X98783186Y-80899265D01*
X99080619Y-80504649D01*
X99438690Y-80454475D01*
X99611176Y-80780980D01*
G36*
X107691804Y-80198165D02*
G01*
X107786557Y-80233365D01*
X108207510Y-80525201D01*
X108277059Y-80688441D01*
X108172875Y-80938981D01*
X107832910Y-80683530D01*
X107673734Y-80500218D01*
X107455708Y-80176251D01*
X107691804Y-80198165D01*
G37*
X107691804Y-80198165D02*
X107786557Y-80233365D01*
X108207510Y-80525201D01*
X108277059Y-80688441D01*
X108172875Y-80938981D01*
X107832910Y-80683530D01*
X107673734Y-80500218D01*
X107455708Y-80176251D01*
X107691804Y-80198165D01*
G36*
X76716483Y-78942186D02*
G01*
X76861723Y-79392095D01*
X76773469Y-79722632D01*
X76658528Y-79760000D01*
X76363689Y-79510481D01*
X76211895Y-79145289D01*
X76202749Y-78686273D01*
X76401160Y-78647110D01*
X76716483Y-78942186D01*
G37*
X76716483Y-78942186D02*
X76861723Y-79392095D01*
X76773469Y-79722632D01*
X76658528Y-79760000D01*
X76363689Y-79510481D01*
X76211895Y-79145289D01*
X76202749Y-78686273D01*
X76401160Y-78647110D01*
X76716483Y-78942186D01*
G36*
X105078248Y-79080744D02*
G01*
X105139412Y-79162353D01*
X105071668Y-79418176D01*
X104858224Y-79461176D01*
X104449369Y-79305161D01*
X104392353Y-79162353D01*
X104606827Y-78872083D01*
X104673541Y-78863529D01*
X105078248Y-79080744D01*
G37*
X105078248Y-79080744D02*
X105139412Y-79162353D01*
X105071668Y-79418176D01*
X104858224Y-79461176D01*
X104449369Y-79305161D01*
X104392353Y-79162353D01*
X104606827Y-78872083D01*
X104673541Y-78863529D01*
X105078248Y-79080744D01*
G36*
X106185294Y-79311765D02*
G01*
X106035882Y-79461176D01*
X105886471Y-79311765D01*
X106035882Y-79162353D01*
X106185294Y-79311765D01*
G37*
X106185294Y-79311765D02*
X106035882Y-79461176D01*
X105886471Y-79311765D01*
X106035882Y-79162353D01*
X106185294Y-79311765D01*
G36*
X107081765Y-78714118D02*
G01*
X106932353Y-78863529D01*
X106782941Y-78714118D01*
X106932353Y-78564706D01*
X107081765Y-78714118D01*
G37*
X107081765Y-78714118D02*
X106932353Y-78863529D01*
X106782941Y-78714118D01*
X106932353Y-78564706D01*
X107081765Y-78714118D01*
G36*
X104300643Y-76715418D02*
G01*
X104597630Y-77277049D01*
X104847191Y-77909138D01*
X104941261Y-78362988D01*
X104916641Y-78434484D01*
X104707596Y-78277892D01*
X104317647Y-77806875D01*
X103887227Y-77081241D01*
X103828763Y-76604729D01*
X104064297Y-76472941D01*
X104300643Y-76715418D01*
G37*
X104300643Y-76715418D02*
X104597630Y-77277049D01*
X104847191Y-77909138D01*
X104941261Y-78362988D01*
X104916641Y-78434484D01*
X104707596Y-78277892D01*
X104317647Y-77806875D01*
X103887227Y-77081241D01*
X103828763Y-76604729D01*
X104064297Y-76472941D01*
X104300643Y-76715418D01*
G36*
X103495882Y-78116471D02*
G01*
X103346471Y-78265882D01*
X103197059Y-78116471D01*
X103346471Y-77967059D01*
X103495882Y-78116471D01*
G37*
X103495882Y-78116471D02*
X103346471Y-78265882D01*
X103197059Y-78116471D01*
X103346471Y-77967059D01*
X103495882Y-78116471D01*
G36*
X105288823Y-74829412D02*
G01*
X105139412Y-74978823D01*
X104990000Y-74829412D01*
X105139412Y-74680000D01*
X105288823Y-74829412D01*
G37*
X105288823Y-74829412D02*
X105139412Y-74978823D01*
X104990000Y-74829412D01*
X105139412Y-74680000D01*
X105288823Y-74829412D01*
G36*
X103495882Y-74231765D02*
G01*
X103346471Y-74381176D01*
X103197059Y-74231765D01*
X103346471Y-74082353D01*
X103495882Y-74231765D01*
G37*
X103495882Y-74231765D02*
X103346471Y-74381176D01*
X103197059Y-74231765D01*
X103346471Y-74082353D01*
X103495882Y-74231765D01*
G36*
X102898235Y-73932941D02*
G01*
X102748823Y-74082353D01*
X102599412Y-73932941D01*
X102748823Y-73783529D01*
X102898235Y-73932941D01*
G37*
X102898235Y-73932941D02*
X102748823Y-74082353D01*
X102599412Y-73932941D01*
X102748823Y-73783529D01*
X102898235Y-73932941D01*
G36*
X111890726Y-71934938D02*
G01*
X112379603Y-72354638D01*
X112460588Y-72438823D01*
X112889347Y-72974567D01*
X113023146Y-73311476D01*
X113010788Y-73332937D01*
X112731627Y-73241532D01*
X112242750Y-72821832D01*
X112161765Y-72737647D01*
X111733006Y-72201903D01*
X111599207Y-71864995D01*
X111611565Y-71843533D01*
X111890726Y-71934938D01*
G37*
X111890726Y-71934938D02*
X112379603Y-72354638D01*
X112460588Y-72438823D01*
X112889347Y-72974567D01*
X113023146Y-73311476D01*
X113010788Y-73332937D01*
X112731627Y-73241532D01*
X112242750Y-72821832D01*
X112161765Y-72737647D01*
X111733006Y-72201903D01*
X111599207Y-71864995D01*
X111611565Y-71843533D01*
X111890726Y-71934938D01*
G36*
X102300588Y-73036471D02*
G01*
X102151176Y-73185882D01*
X102001765Y-73036471D01*
X102151176Y-72887059D01*
X102300588Y-73036471D01*
G37*
X102300588Y-73036471D02*
X102151176Y-73185882D01*
X102001765Y-73036471D01*
X102151176Y-72887059D01*
X102300588Y-73036471D01*
G36*
X72111363Y-64150278D02*
G01*
X72119412Y-64221176D01*
X71876181Y-64483428D01*
X71653541Y-64520000D01*
X71344241Y-64375133D01*
X71372353Y-64221176D01*
X71754386Y-63933752D01*
X71838224Y-63922353D01*
X72111363Y-64150278D01*
G37*
X72111363Y-64150278D02*
X72119412Y-64221176D01*
X71876181Y-64483428D01*
X71653541Y-64520000D01*
X71344241Y-64375133D01*
X71372353Y-64221176D01*
X71754386Y-63933752D01*
X71838224Y-63922353D01*
X72111363Y-64150278D01*
%LPC*%
D11*
X87200000Y-56500000D03*
X82800000Y-56500000D03*
D12*
X99000000Y-53170000D03*
X96000000Y-53170000D03*
M02*
