M48
; DRILL file {KiCad (5.1.8)-1} date 04/18/21 14:38:15
; FORMAT={-:-/ absolute / metric / decimal}
; #@! TF.CreationDate,2021-04-18T14:38:15+02:00
; #@! TF.GenerationSoftware,Kicad,Pcbnew,(5.1.8)-1
; #@! TF.FileFunction,Plated,1,2,PTH
FMAT,2
METRIC
T1C0.400
%
G90
G05
T1
X50.25Y-116.75
X51.25Y-81.75
X68.25Y-56.25
X73.25Y-111.5
X76.75Y-133.5
X78.5Y-53.5
X78.5Y-59.25
X82.25Y-59.25
X84.75Y-104.25
X88.25Y-93.5
X88.25Y-96.5
X89.0Y-92.0
X89.0Y-98.0
X89.5Y-61.0
X91.0Y-92.0
X91.0Y-98.0
X91.5Y-53.75
X91.75Y-93.5
X91.75Y-96.5
X93.5Y-116.0
X96.5Y-118.0
X100.5Y-110.0
X101.5Y-103.5
X103.25Y-56.25
X106.0Y-92.25
X108.5Y-90.0
X111.75Y-133.5
X128.5Y-73.25
X128.75Y-108.25
T0
M30
