G04 #@! TF.GenerationSoftware,KiCad,Pcbnew,(5.1.8)-1*
G04 #@! TF.CreationDate,2021-04-18T14:37:25+02:00*
G04 #@! TF.ProjectId,Coaster_LiPo,436f6173-7465-4725-9f4c-69506f2e6b69,D*
G04 #@! TF.SameCoordinates,Original*
G04 #@! TF.FileFunction,Copper,L1,Top*
G04 #@! TF.FilePolarity,Positive*
%FSLAX46Y46*%
G04 Gerber Fmt 4.6, Leading zero omitted, Abs format (unit mm)*
G04 Created by KiCad (PCBNEW (5.1.8)-1) date 2021-04-18 14:37:25*
%MOMM*%
%LPD*%
G01*
G04 APERTURE LIST*
G04 #@! TA.AperFunction,SMDPad,CuDef*
%ADD10R,1.700000X1.000000*%
G04 #@! TD*
G04 #@! TA.AperFunction,SMDPad,CuDef*
%ADD11R,1.700000X0.650000*%
G04 #@! TD*
G04 #@! TA.AperFunction,SMDPad,CuDef*
%ADD12R,0.500000X2.000000*%
G04 #@! TD*
G04 #@! TA.AperFunction,SMDPad,CuDef*
%ADD13R,2.000000X1.700000*%
G04 #@! TD*
G04 #@! TA.AperFunction,SMDPad,CuDef*
%ADD14R,2.400000X0.740000*%
G04 #@! TD*
G04 #@! TA.AperFunction,SMDPad,CuDef*
%ADD15R,1.060000X0.650000*%
G04 #@! TD*
G04 #@! TA.AperFunction,SMDPad,CuDef*
%ADD16C,3.000000*%
G04 #@! TD*
G04 #@! TA.AperFunction,SMDPad,CuDef*
%ADD17R,1.000000X1.500000*%
G04 #@! TD*
G04 #@! TA.AperFunction,SMDPad,CuDef*
%ADD18R,1.500000X1.000000*%
G04 #@! TD*
G04 #@! TA.AperFunction,SMDPad,CuDef*
%ADD19R,0.700000X1.500000*%
G04 #@! TD*
G04 #@! TA.AperFunction,SMDPad,CuDef*
%ADD20R,1.000000X0.800000*%
G04 #@! TD*
G04 #@! TA.AperFunction,ViaPad*
%ADD21C,0.800000*%
G04 #@! TD*
G04 #@! TA.AperFunction,Conductor*
%ADD22C,0.500000*%
G04 #@! TD*
G04 #@! TA.AperFunction,Conductor*
%ADD23C,1.000000*%
G04 #@! TD*
G04 APERTURE END LIST*
D10*
X76100000Y-94350000D03*
X82400000Y-94350000D03*
X76100000Y-98150000D03*
X82400000Y-98150000D03*
G04 #@! TA.AperFunction,SMDPad,CuDef*
G36*
G01*
X100599999Y-104700000D02*
X101900001Y-104700000D01*
G75*
G02*
X102150000Y-104949999I0J-249999D01*
G01*
X102150000Y-105600001D01*
G75*
G02*
X101900001Y-105850000I-249999J0D01*
G01*
X100599999Y-105850000D01*
G75*
G02*
X100350000Y-105600001I0J249999D01*
G01*
X100350000Y-104949999D01*
G75*
G02*
X100599999Y-104700000I249999J0D01*
G01*
G37*
G04 #@! TD.AperFunction*
G04 #@! TA.AperFunction,SMDPad,CuDef*
G36*
G01*
X100599999Y-107650000D02*
X101900001Y-107650000D01*
G75*
G02*
X102150000Y-107899999I0J-249999D01*
G01*
X102150000Y-108550001D01*
G75*
G02*
X101900001Y-108800000I-249999J0D01*
G01*
X100599999Y-108800000D01*
G75*
G02*
X100350000Y-108550001I0J249999D01*
G01*
X100350000Y-107899999D01*
G75*
G02*
X100599999Y-107650000I249999J0D01*
G01*
G37*
G04 #@! TD.AperFunction*
D11*
X83150000Y-108155000D03*
X83150000Y-106885000D03*
X83150000Y-105615000D03*
X83150000Y-104345000D03*
X75850000Y-104345000D03*
X75850000Y-105615000D03*
X75850000Y-106885000D03*
X75850000Y-108155000D03*
D12*
X86600000Y-59200000D03*
X85800000Y-59200000D03*
X85000000Y-59200000D03*
X84200000Y-59200000D03*
X83400000Y-59200000D03*
D13*
X89450000Y-59100000D03*
X89450000Y-53650000D03*
X80550000Y-59100000D03*
X80550000Y-53650000D03*
G04 #@! TA.AperFunction,SMDPad,CuDef*
G36*
G01*
X94150001Y-112100000D02*
X92849999Y-112100000D01*
G75*
G02*
X92600000Y-111850001I0J249999D01*
G01*
X92600000Y-111199999D01*
G75*
G02*
X92849999Y-110950000I249999J0D01*
G01*
X94150001Y-110950000D01*
G75*
G02*
X94400000Y-111199999I0J-249999D01*
G01*
X94400000Y-111850001D01*
G75*
G02*
X94150001Y-112100000I-249999J0D01*
G01*
G37*
G04 #@! TD.AperFunction*
G04 #@! TA.AperFunction,SMDPad,CuDef*
G36*
G01*
X94150001Y-115050000D02*
X92849999Y-115050000D01*
G75*
G02*
X92600000Y-114800001I0J249999D01*
G01*
X92600000Y-114149999D01*
G75*
G02*
X92849999Y-113900000I249999J0D01*
G01*
X94150001Y-113900000D01*
G75*
G02*
X94400000Y-114149999I0J-249999D01*
G01*
X94400000Y-114800001D01*
G75*
G02*
X94150001Y-115050000I-249999J0D01*
G01*
G37*
G04 #@! TD.AperFunction*
D14*
X80700000Y-115020000D03*
X76800000Y-115020000D03*
X80700000Y-113750000D03*
X76800000Y-113750000D03*
X80700000Y-112480000D03*
X76800000Y-112480000D03*
G04 #@! TA.AperFunction,SMDPad,CuDef*
G36*
G01*
X100400000Y-60125003D02*
X100400000Y-58874997D01*
G75*
G02*
X100649997Y-58625000I249997J0D01*
G01*
X101275003Y-58625000D01*
G75*
G02*
X101525000Y-58874997I0J-249997D01*
G01*
X101525000Y-60125003D01*
G75*
G02*
X101275003Y-60375000I-249997J0D01*
G01*
X100649997Y-60375000D01*
G75*
G02*
X100400000Y-60125003I0J249997D01*
G01*
G37*
G04 #@! TD.AperFunction*
G04 #@! TA.AperFunction,SMDPad,CuDef*
G36*
G01*
X97475000Y-60125003D02*
X97475000Y-58874997D01*
G75*
G02*
X97724997Y-58625000I249997J0D01*
G01*
X98350003Y-58625000D01*
G75*
G02*
X98600000Y-58874997I0J-249997D01*
G01*
X98600000Y-60125003D01*
G75*
G02*
X98350003Y-60375000I-249997J0D01*
G01*
X97724997Y-60375000D01*
G75*
G02*
X97475000Y-60125003I0J249997D01*
G01*
G37*
G04 #@! TD.AperFunction*
G04 #@! TA.AperFunction,SMDPad,CuDef*
G36*
G01*
X95874997Y-112975000D02*
X97125003Y-112975000D01*
G75*
G02*
X97375000Y-113224997I0J-249997D01*
G01*
X97375000Y-113850003D01*
G75*
G02*
X97125003Y-114100000I-249997J0D01*
G01*
X95874997Y-114100000D01*
G75*
G02*
X95625000Y-113850003I0J249997D01*
G01*
X95625000Y-113224997D01*
G75*
G02*
X95874997Y-112975000I249997J0D01*
G01*
G37*
G04 #@! TD.AperFunction*
G04 #@! TA.AperFunction,SMDPad,CuDef*
G36*
G01*
X95874997Y-115900000D02*
X97125003Y-115900000D01*
G75*
G02*
X97375000Y-116149997I0J-249997D01*
G01*
X97375000Y-116775003D01*
G75*
G02*
X97125003Y-117025000I-249997J0D01*
G01*
X95874997Y-117025000D01*
G75*
G02*
X95625000Y-116775003I0J249997D01*
G01*
X95625000Y-116149997D01*
G75*
G02*
X95874997Y-115900000I249997J0D01*
G01*
G37*
G04 #@! TD.AperFunction*
G04 #@! TA.AperFunction,SMDPad,CuDef*
G36*
G01*
X87650000Y-111125003D02*
X87650000Y-109874997D01*
G75*
G02*
X87899997Y-109625000I249997J0D01*
G01*
X88525003Y-109625000D01*
G75*
G02*
X88775000Y-109874997I0J-249997D01*
G01*
X88775000Y-111125003D01*
G75*
G02*
X88525003Y-111375000I-249997J0D01*
G01*
X87899997Y-111375000D01*
G75*
G02*
X87650000Y-111125003I0J249997D01*
G01*
G37*
G04 #@! TD.AperFunction*
G04 #@! TA.AperFunction,SMDPad,CuDef*
G36*
G01*
X84725000Y-111125003D02*
X84725000Y-109874997D01*
G75*
G02*
X84974997Y-109625000I249997J0D01*
G01*
X85600003Y-109625000D01*
G75*
G02*
X85850000Y-109874997I0J-249997D01*
G01*
X85850000Y-111125003D01*
G75*
G02*
X85600003Y-111375000I-249997J0D01*
G01*
X84974997Y-111375000D01*
G75*
G02*
X84725000Y-111125003I0J249997D01*
G01*
G37*
G04 #@! TD.AperFunction*
G04 #@! TA.AperFunction,SMDPad,CuDef*
G36*
G01*
X90625003Y-97025000D02*
X89374997Y-97025000D01*
G75*
G02*
X89125000Y-96775003I0J249997D01*
G01*
X89125000Y-96149997D01*
G75*
G02*
X89374997Y-95900000I249997J0D01*
G01*
X90625003Y-95900000D01*
G75*
G02*
X90875000Y-96149997I0J-249997D01*
G01*
X90875000Y-96775003D01*
G75*
G02*
X90625003Y-97025000I-249997J0D01*
G01*
G37*
G04 #@! TD.AperFunction*
G04 #@! TA.AperFunction,SMDPad,CuDef*
G36*
G01*
X90625003Y-94100000D02*
X89374997Y-94100000D01*
G75*
G02*
X89125000Y-93850003I0J249997D01*
G01*
X89125000Y-93224997D01*
G75*
G02*
X89374997Y-92975000I249997J0D01*
G01*
X90625003Y-92975000D01*
G75*
G02*
X90875000Y-93224997I0J-249997D01*
G01*
X90875000Y-93850003D01*
G75*
G02*
X90625003Y-94100000I-249997J0D01*
G01*
G37*
G04 #@! TD.AperFunction*
D15*
X98850000Y-110950000D03*
X98850000Y-110000000D03*
X98850000Y-109050000D03*
X96650000Y-109050000D03*
X96650000Y-110950000D03*
D16*
X106000000Y-90000000D03*
X95500000Y-90000000D03*
D17*
X54600000Y-75050000D03*
X51400000Y-75050000D03*
X54600000Y-79950000D03*
X51400000Y-79950000D03*
D18*
X70050000Y-56400000D03*
X70050000Y-59600000D03*
X74950000Y-56400000D03*
X74950000Y-59600000D03*
X109950000Y-59600000D03*
X109950000Y-56400000D03*
X105050000Y-59600000D03*
X105050000Y-56400000D03*
D17*
X128600000Y-75050000D03*
X125400000Y-75050000D03*
X128600000Y-79950000D03*
X125400000Y-79950000D03*
D19*
X99750000Y-54930000D03*
X96750000Y-54930000D03*
X95250000Y-54930000D03*
D20*
X101150000Y-52070000D03*
X93850000Y-52070000D03*
X93850000Y-54280000D03*
X101150000Y-54280000D03*
G04 #@! TA.AperFunction,SMDPad,CuDef*
G36*
G01*
X96025000Y-58875000D02*
X96025000Y-60125000D01*
G75*
G02*
X95775000Y-60375000I-250000J0D01*
G01*
X95025000Y-60375000D01*
G75*
G02*
X94775000Y-60125000I0J250000D01*
G01*
X94775000Y-58875000D01*
G75*
G02*
X95025000Y-58625000I250000J0D01*
G01*
X95775000Y-58625000D01*
G75*
G02*
X96025000Y-58875000I0J-250000D01*
G01*
G37*
G04 #@! TD.AperFunction*
G04 #@! TA.AperFunction,SMDPad,CuDef*
G36*
G01*
X93225000Y-58875000D02*
X93225000Y-60125000D01*
G75*
G02*
X92975000Y-60375000I-250000J0D01*
G01*
X92225000Y-60375000D01*
G75*
G02*
X91975000Y-60125000I0J250000D01*
G01*
X91975000Y-58875000D01*
G75*
G02*
X92225000Y-58625000I250000J0D01*
G01*
X92975000Y-58625000D01*
G75*
G02*
X93225000Y-58875000I0J-250000D01*
G01*
G37*
G04 #@! TD.AperFunction*
D17*
X128600000Y-110050000D03*
X125400000Y-110050000D03*
X128600000Y-114950000D03*
X125400000Y-114950000D03*
D18*
X105050000Y-130400000D03*
X105050000Y-133600000D03*
X109950000Y-130400000D03*
X109950000Y-133600000D03*
X74950000Y-133600000D03*
X74950000Y-130400000D03*
X70050000Y-133600000D03*
X70050000Y-130400000D03*
D17*
X53600000Y-110050000D03*
X50400000Y-110050000D03*
X53600000Y-114950000D03*
X50400000Y-114950000D03*
D21*
X73250000Y-111500000D03*
X101500000Y-103500000D03*
X100500000Y-110000000D03*
X93500000Y-116000000D03*
X96500000Y-118000000D03*
X84750000Y-104250000D03*
X50250000Y-116750000D03*
X76750000Y-133500000D03*
X111750000Y-133500000D03*
X128750000Y-108250000D03*
X128500000Y-73250000D03*
X51250000Y-81750000D03*
X103250000Y-56250000D03*
X68250000Y-56250000D03*
X82250000Y-59250000D03*
X89000000Y-98000000D03*
X91000000Y-98000000D03*
X91000000Y-92000000D03*
X88250000Y-96500000D03*
X91750000Y-96500000D03*
X88250000Y-93500000D03*
X91750000Y-93500000D03*
X89000000Y-92000000D03*
X106000000Y-92250000D03*
X108500000Y-90000000D03*
X89500000Y-61000000D03*
X91500000Y-53750000D03*
X78500000Y-59250000D03*
X78500000Y-53500000D03*
D22*
X96750000Y-55340002D02*
X94000000Y-58090002D01*
X96750000Y-54930000D02*
X96750000Y-55340002D01*
X94000001Y-88500001D02*
X95500000Y-90000000D01*
X94000000Y-58090002D02*
X94000001Y-88500001D01*
D23*
X98500000Y-108624999D02*
X98850000Y-108974999D01*
D22*
X98899999Y-108225000D02*
X98500000Y-108624999D01*
X101250000Y-108225000D02*
X98899999Y-108225000D01*
D23*
X98500000Y-93000000D02*
X95500000Y-90000000D01*
X98500000Y-108624999D02*
X98500000Y-93000000D01*
D22*
X80400000Y-53500000D02*
X80550000Y-53650000D01*
X78500000Y-53500000D02*
X80400000Y-53500000D01*
X91400000Y-53650000D02*
X91500000Y-53750000D01*
X89450000Y-53650000D02*
X91400000Y-53650000D01*
X89500000Y-59150000D02*
X89450000Y-59100000D01*
X89500000Y-61000000D02*
X89500000Y-59150000D01*
X78650000Y-59100000D02*
X78500000Y-59250000D01*
X80550000Y-59100000D02*
X78650000Y-59100000D01*
X82300000Y-59200000D02*
X82250000Y-59250000D01*
X83400000Y-59200000D02*
X82300000Y-59200000D01*
X89962500Y-93500000D02*
X90000000Y-93537500D01*
X88250000Y-93500000D02*
X89962500Y-93500000D01*
X89000000Y-92537500D02*
X90000000Y-93537500D01*
X89000000Y-92000000D02*
X89000000Y-92537500D01*
X91000000Y-92537500D02*
X90000000Y-93537500D01*
X91000000Y-92000000D02*
X91000000Y-92537500D01*
X90037500Y-93500000D02*
X90000000Y-93537500D01*
X91750000Y-93500000D02*
X90037500Y-93500000D01*
X88250000Y-96500000D02*
X88250000Y-93500000D01*
X91750000Y-96500000D02*
X91750000Y-93500000D01*
X91750000Y-97250000D02*
X91750000Y-96500000D01*
X91000000Y-98000000D02*
X91750000Y-97250000D01*
X88250000Y-97250000D02*
X88250000Y-96500000D01*
X89000000Y-98000000D02*
X88250000Y-97250000D01*
X69900000Y-56250000D02*
X70050000Y-56400000D01*
X68250000Y-56250000D02*
X69900000Y-56250000D01*
X103400000Y-56400000D02*
X103250000Y-56250000D01*
X105050000Y-56400000D02*
X103400000Y-56400000D01*
X51250000Y-80100000D02*
X51400000Y-79950000D01*
X51250000Y-81750000D02*
X51250000Y-80100000D01*
X128600000Y-73350000D02*
X128500000Y-73250000D01*
X128600000Y-75050000D02*
X128600000Y-73350000D01*
X128600000Y-108400000D02*
X128750000Y-108250000D01*
X128600000Y-110050000D02*
X128600000Y-108400000D01*
X111650000Y-133600000D02*
X111750000Y-133500000D01*
X109950000Y-133600000D02*
X111650000Y-133600000D01*
X75050000Y-133500000D02*
X74950000Y-133600000D01*
X76750000Y-133500000D02*
X75050000Y-133500000D01*
X50250000Y-115100000D02*
X50400000Y-114950000D01*
X50250000Y-116750000D02*
X50250000Y-115100000D01*
X106000000Y-92250000D02*
X106000000Y-90000000D01*
X108500000Y-90000000D02*
X106000000Y-90000000D01*
X83245000Y-104250000D02*
X83150000Y-104345000D01*
X84750000Y-104250000D02*
X83245000Y-104250000D01*
X93500000Y-116000000D02*
X93500000Y-114475000D01*
X96500000Y-118000000D02*
X96500000Y-116462500D01*
X98850000Y-110000000D02*
X100500000Y-110000000D01*
X101250000Y-103750000D02*
X101500000Y-103500000D01*
X101250000Y-105275000D02*
X101250000Y-103750000D01*
X75820000Y-111500000D02*
X76800000Y-112480000D01*
X73250000Y-111500000D02*
X75820000Y-111500000D01*
X92600000Y-59500000D02*
X92600000Y-59100000D01*
X92600000Y-59100000D02*
X91000000Y-57500000D01*
X91000000Y-57500000D02*
X88000000Y-57500000D01*
X86600000Y-58900000D02*
X86600000Y-59200000D01*
X88000000Y-57500000D02*
X86600000Y-58900000D01*
X94175000Y-111525000D02*
X96650000Y-109050000D01*
X93500000Y-111525000D02*
X94175000Y-111525000D01*
X92600000Y-92341998D02*
X92600000Y-59500000D01*
X93650000Y-93391998D02*
X92600000Y-92341998D01*
X93650000Y-104150000D02*
X93650000Y-93391998D01*
X96650000Y-107150000D02*
X93650000Y-104150000D01*
X96650000Y-109050000D02*
X96650000Y-107150000D01*
X95400000Y-59500000D02*
X98037500Y-59500000D01*
D23*
X109950000Y-59600000D02*
X111600000Y-59600000D01*
X111600000Y-59600000D02*
X123500000Y-71500000D01*
X123500000Y-78050000D02*
X125400000Y-79950000D01*
X123500000Y-71500000D02*
X123500000Y-78050000D01*
X125400000Y-79950000D02*
X125400000Y-80100000D01*
X125400000Y-80100000D02*
X123750000Y-81750000D01*
X123750000Y-113300000D02*
X125400000Y-114950000D01*
X123750000Y-81750000D02*
X123750000Y-113300000D01*
X125400000Y-114950000D02*
X125400000Y-116100000D01*
X125400000Y-116100000D02*
X113000000Y-128500000D01*
X106950000Y-128500000D02*
X105050000Y-130400000D01*
X105050000Y-130400000D02*
X78150000Y-130400000D01*
X78150000Y-130400000D02*
X76250000Y-128500000D01*
X71950000Y-128500000D02*
X70050000Y-130400000D01*
X76250000Y-128500000D02*
X71950000Y-128500000D01*
X70050000Y-130400000D02*
X67650000Y-130400000D01*
X67650000Y-130400000D02*
X56000000Y-118750000D01*
X56000000Y-112450000D02*
X53600000Y-110050000D01*
X56000000Y-118750000D02*
X56000000Y-112450000D01*
X107500000Y-128500000D02*
X106950000Y-128500000D01*
X113000000Y-128500000D02*
X107500000Y-128500000D01*
X59500000Y-75050000D02*
X74950000Y-59600000D01*
X54600000Y-75050000D02*
X59500000Y-75050000D01*
X54600000Y-75050000D02*
X54600000Y-75150000D01*
X54600000Y-75150000D02*
X52000000Y-77750000D01*
X52000000Y-77750000D02*
X49750000Y-77750000D01*
X49750000Y-77750000D02*
X48500000Y-79000000D01*
X48500000Y-104950000D02*
X53600000Y-110050000D01*
X48500000Y-79000000D02*
X48500000Y-104950000D01*
X99750000Y-54930000D02*
X103000000Y-58180000D01*
X103000000Y-60060002D02*
X104439998Y-61500000D01*
X103000000Y-58180000D02*
X103000000Y-60060002D01*
X108050000Y-61500000D02*
X109950000Y-59600000D01*
X104439998Y-61500000D02*
X108050000Y-61500000D01*
D22*
X60295000Y-108155000D02*
X56000000Y-112450000D01*
X75850000Y-108155000D02*
X60295000Y-108155000D01*
X85287500Y-110500000D02*
X85287500Y-116712500D01*
X76250000Y-125750000D02*
X76250000Y-128500000D01*
X85287500Y-116712500D02*
X76250000Y-125750000D01*
X73000000Y-98500000D02*
X73000000Y-93250000D01*
X80250000Y-105750000D02*
X73000000Y-98500000D01*
X80250000Y-110008002D02*
X80250000Y-105750000D01*
X79000000Y-113930002D02*
X79000000Y-111258002D01*
X79000000Y-111258002D02*
X80250000Y-110008002D01*
X77910002Y-115020000D02*
X79000000Y-113930002D01*
X59500000Y-79750000D02*
X59500000Y-75050000D01*
X76800000Y-115020000D02*
X77910002Y-115020000D01*
X74750000Y-93000000D02*
X76100000Y-94350000D01*
X72750000Y-93000000D02*
X74750000Y-93000000D01*
X73000000Y-93250000D02*
X72750000Y-93000000D01*
X72750000Y-93000000D02*
X59500000Y-79750000D01*
X76100000Y-94350000D02*
X82400000Y-94350000D01*
X54600000Y-79950000D02*
X57450000Y-79950000D01*
X57450000Y-79950000D02*
X71345000Y-93845000D01*
X79000000Y-106425038D02*
X76919962Y-104345000D01*
X76919962Y-104345000D02*
X75850000Y-104345000D01*
X79000000Y-109000000D02*
X79000000Y-106425038D01*
X72750000Y-110500000D02*
X77500000Y-110500000D01*
X77500000Y-110500000D02*
X79000000Y-109000000D01*
X71750000Y-111500000D02*
X72750000Y-110500000D01*
X71750000Y-113000000D02*
X71750000Y-111500000D01*
X72500000Y-113750000D02*
X71750000Y-113000000D01*
X76800000Y-113750000D02*
X72500000Y-113750000D01*
X71345000Y-99840000D02*
X75850000Y-104345000D01*
X71345000Y-93845000D02*
X71345000Y-99840000D01*
X77200000Y-105615000D02*
X78000000Y-106415000D01*
X75850000Y-105615000D02*
X77200000Y-105615000D01*
X78000000Y-108979965D02*
X77279955Y-109700010D01*
X78000000Y-106415000D02*
X78000000Y-108979965D01*
X77279955Y-109700010D02*
X71049990Y-109700010D01*
X71049990Y-109700010D02*
X70500000Y-110250000D01*
X70500000Y-117250000D02*
X70750000Y-117500000D01*
X70500000Y-110250000D02*
X70500000Y-117250000D01*
X78220000Y-117500000D02*
X80700000Y-115020000D01*
X70750000Y-117500000D02*
X78220000Y-117500000D01*
X83000000Y-114350000D02*
X82400000Y-113750000D01*
X83000000Y-117000000D02*
X83000000Y-114350000D01*
X70500000Y-118250000D02*
X81750000Y-118250000D01*
X69750000Y-109750000D02*
X69750000Y-117500000D01*
X70500000Y-109000000D02*
X69750000Y-109750000D01*
X77250000Y-108740002D02*
X76990002Y-109000000D01*
X77250000Y-107569998D02*
X77250000Y-108740002D01*
X82400000Y-113750000D02*
X80700000Y-113750000D01*
X69750000Y-117500000D02*
X70500000Y-118250000D01*
X76990002Y-109000000D02*
X70500000Y-109000000D01*
X76565002Y-106885000D02*
X77250000Y-107569998D01*
X81750000Y-118250000D02*
X83000000Y-117000000D01*
X75850000Y-106885000D02*
X76565002Y-106885000D01*
X80700000Y-110605000D02*
X83150000Y-108155000D01*
X80700000Y-112480000D02*
X80700000Y-110605000D01*
X103912510Y-62450010D02*
X107450010Y-62450010D01*
X100962500Y-59500000D02*
X103912510Y-62450010D01*
X107450010Y-62450010D02*
X111000000Y-66000000D01*
X111000000Y-66000000D02*
X111000000Y-96500000D01*
X111000000Y-96500000D02*
X104550000Y-102950000D01*
X104550000Y-102950000D02*
X104550000Y-108850000D01*
X102450000Y-110950000D02*
X98850000Y-110950000D01*
X104550000Y-108850000D02*
X102450000Y-110950000D01*
X96650000Y-113387500D02*
X96500000Y-113537500D01*
X96650000Y-110950000D02*
X96650000Y-113387500D01*
X90000000Y-99212500D02*
X89212500Y-100000000D01*
X90000000Y-96462500D02*
X90000000Y-99212500D01*
X89115000Y-100000000D02*
X89212500Y-100000000D01*
X84500000Y-106885000D02*
X88115000Y-110500000D01*
X83150000Y-106885000D02*
X84500000Y-106885000D01*
X84500000Y-106885000D02*
X84615000Y-106885000D01*
X89115000Y-102385000D02*
X89115000Y-100000000D01*
X84615000Y-106885000D02*
X89115000Y-102385000D01*
X66850000Y-59600000D02*
X51400000Y-75050000D01*
X70050000Y-59600000D02*
X66850000Y-59600000D01*
X107500000Y-57150000D02*
X105050000Y-59600000D01*
X107500000Y-55000000D02*
X107500000Y-57150000D01*
X102100001Y-50850001D02*
X103350001Y-50850001D01*
X103350001Y-50850001D02*
X107500000Y-55000000D01*
X102000000Y-50750000D02*
X102100001Y-50850001D01*
X86500000Y-50750000D02*
X102000000Y-50750000D01*
X80850000Y-56400000D02*
X86500000Y-50750000D01*
X74950000Y-56400000D02*
X80850000Y-56400000D01*
X109950000Y-56400000D02*
X111650000Y-56400000D01*
X125400000Y-70150000D02*
X125400000Y-75050000D01*
X111650000Y-56400000D02*
X125400000Y-70150000D01*
X125400000Y-83150000D02*
X128600000Y-79950000D01*
X125400000Y-110050000D02*
X125400000Y-83150000D01*
X114400000Y-130400000D02*
X109950000Y-130400000D01*
X128600000Y-116200000D02*
X114400000Y-130400000D01*
X128600000Y-114950000D02*
X128600000Y-116200000D01*
X78150000Y-133600000D02*
X74950000Y-130400000D01*
X105050000Y-133600000D02*
X78150000Y-133600000D01*
X70050000Y-133600000D02*
X66850000Y-133600000D01*
X53600000Y-120350000D02*
X53600000Y-114950000D01*
X66850000Y-133600000D02*
X53600000Y-120350000D01*
X76100000Y-98150000D02*
X82400000Y-98150000D01*
X81849999Y-98700001D02*
X81799999Y-98700001D01*
X82400000Y-98150000D02*
X81849999Y-98700001D01*
X81799999Y-98700001D02*
X81000000Y-99500000D01*
X81800000Y-105615000D02*
X83150000Y-105615000D01*
X81000000Y-104815000D02*
X81800000Y-105615000D01*
X81000000Y-99500000D02*
X81000000Y-104815000D01*
M02*
